<svg width="128" height="245" viewBox="0 0 128 245" fill="none" xmlns="http://www.w3.org/2000/svg">
<path d="M7.59846 172.932H13.2874L19.2959 187.591H19.5516L25.5601 172.932H31.249V194.75H26.7746V180.549H26.5935L20.9472 194.643H17.9003L12.254 180.496H12.0729V194.75H7.59846V172.932ZM46.8856 179.207C46.8003 178.347 46.4346 177.68 45.7883 177.204C45.142 176.728 44.2648 176.49 43.1569 176.49C42.404 176.49 41.7684 176.597 41.2499 176.81C40.7314 177.016 40.3337 177.303 40.0567 177.673C39.7868 178.042 39.6519 178.461 39.6519 178.93C39.6377 179.32 39.7194 179.661 39.8969 179.952C40.0816 180.244 40.3337 180.496 40.6533 180.709C40.9729 180.915 41.3422 181.096 41.7613 181.252C42.1803 181.401 42.6278 181.529 43.1036 181.636L45.0638 182.104C46.0155 182.317 46.8891 182.602 47.6846 182.957C48.48 183.312 49.1689 183.749 49.7513 184.267C50.3337 184.786 50.7847 185.396 51.1043 186.099C51.431 186.803 51.5979 187.609 51.605 188.518C51.5979 189.853 51.257 191.011 50.5823 191.991C49.9147 192.964 48.9488 193.72 47.6846 194.26C46.4275 194.793 44.9111 195.059 43.1356 195.059C41.3742 195.059 39.8401 194.789 38.5333 194.249C37.2336 193.71 36.218 192.911 35.4864 191.852C34.762 190.787 34.382 189.469 34.3465 187.9H38.8103C38.86 188.631 39.0695 189.242 39.4388 189.732C39.8153 190.215 40.316 190.581 40.941 190.83C41.5731 191.071 42.2868 191.192 43.0823 191.192C43.8635 191.192 44.5418 191.078 45.1171 190.851C45.6995 190.624 46.1505 190.308 46.4701 189.903C46.7897 189.498 46.9495 189.033 46.9495 188.507C46.9495 188.017 46.8039 187.605 46.5127 187.271C46.2286 186.937 45.8096 186.653 45.2556 186.419C44.7087 186.185 44.0376 185.972 43.2421 185.78L40.8664 185.183C39.0269 184.736 37.5745 184.036 36.5091 183.085C35.4438 182.133 34.9147 180.851 34.9218 179.239C34.9147 177.918 35.2662 176.763 35.9765 175.776C36.6938 174.789 37.6775 174.018 38.9275 173.464C40.1775 172.911 41.5979 172.634 43.1888 172.634C44.8082 172.634 46.2215 172.911 47.4289 173.464C48.6434 174.018 49.588 174.789 50.2627 175.776C50.9374 176.763 51.2854 177.907 51.3067 179.207H46.8856ZM54.7078 172.932H60.3968L66.4053 187.591H66.661L72.6695 172.932H78.3584V194.75H73.884V180.549H73.7029L68.0566 194.643H65.0097L59.3634 180.496H59.1823V194.75H54.7078V172.932ZM82.159 194.75V172.932H96.8607V176.735H86.7719V181.934H96.1043V185.737H86.7719V190.947H96.9033V194.75H82.159ZM27.8884 223.242H25.0887C25.0376 222.88 24.9332 222.558 24.7755 222.277C24.6178 221.991 24.4154 221.749 24.1682 221.548C23.9211 221.348 23.6356 221.195 23.3117 221.088C22.9921 220.982 22.6448 220.928 22.2698 220.928C21.5922 220.928 21.002 221.097 20.4992 221.433C19.9964 221.766 19.6064 222.251 19.3295 222.891C19.0525 223.526 18.914 224.297 18.914 225.205C18.914 226.138 19.0525 226.922 19.3295 227.557C19.6107 228.192 20.0028 228.671 20.5056 228.995C21.0084 229.319 21.5901 229.481 22.2506 229.481C22.6214 229.481 22.9644 229.432 23.2797 229.334C23.5993 229.236 23.8827 229.093 24.1299 228.906C24.377 228.714 24.5816 228.482 24.7435 228.209C24.9097 227.936 25.0248 227.625 25.0887 227.276L27.8884 227.288C27.816 227.889 27.6349 228.469 27.3451 229.027C27.0596 229.581 26.6739 230.077 26.1881 230.516C25.7066 230.951 25.1313 231.296 24.4623 231.552C23.7975 231.803 23.0454 231.929 22.2059 231.929C21.0383 231.929 19.9942 231.665 19.0738 231.136C18.1576 230.608 17.4331 229.843 16.9005 228.842C16.3721 227.84 16.1079 226.628 16.1079 225.205C16.1079 223.777 16.3763 222.562 16.9133 221.561C17.4502 220.56 18.1789 219.797 19.0993 219.273C20.0198 218.744 21.0553 218.48 22.2059 218.48C22.9644 218.48 23.6675 218.587 24.3153 218.8C24.9672 219.013 25.5447 219.324 26.0475 219.733C26.5503 220.138 26.9594 220.634 27.2748 221.222C27.5944 221.81 27.7989 222.484 27.8884 223.242ZM34.2964 231.942C33.2865 231.942 32.4172 231.737 31.6885 231.328C30.964 230.915 30.4058 230.331 30.0138 229.577C29.6217 228.818 29.4257 227.921 29.4257 226.886C29.4257 225.876 29.6217 224.989 30.0138 224.227C30.4058 223.464 30.9577 222.869 31.6693 222.443C32.3852 222.017 33.2247 221.804 34.1878 221.804C34.8355 221.804 35.4385 221.908 35.9967 222.117C36.5592 222.322 37.0493 222.631 37.4669 223.044C37.8888 223.457 38.2169 223.977 38.4513 224.604C38.6856 225.226 38.8028 225.955 38.8028 226.79V227.538H30.5123V225.85H36.2396C36.2396 225.458 36.1544 225.111 35.9839 224.808C35.8135 224.506 35.577 224.269 35.2744 224.099C34.9761 223.924 34.6288 223.837 34.2325 223.837C33.8192 223.837 33.4527 223.933 33.1331 224.124C32.8177 224.312 32.5706 224.565 32.3916 224.885C32.2126 225.2 32.121 225.552 32.1167 225.94V227.544C32.1167 228.03 32.2062 228.45 32.3852 228.803C32.5684 229.157 32.8263 229.43 33.1586 229.621C33.491 229.813 33.8852 229.909 34.3412 229.909C34.6437 229.909 34.9207 229.866 35.1721 229.781C35.4236 229.696 35.6388 229.568 35.8177 229.398C35.9967 229.227 36.1331 229.018 36.2268 228.771L38.7453 228.938C38.6175 229.543 38.3554 230.071 37.9591 230.523C37.567 230.97 37.0599 231.32 36.4378 231.571C35.8199 231.818 35.1061 231.942 34.2964 231.942ZM40.5798 231.75V221.932H43.2197V223.645H43.322C43.501 223.036 43.8014 222.575 44.2233 222.264C44.6452 221.949 45.1309 221.791 45.6807 221.791C45.817 221.791 45.964 221.8 46.1217 221.817C46.2794 221.834 46.4179 221.857 46.5372 221.887V224.303C46.4094 224.265 46.2325 224.231 46.0067 224.201C45.7808 224.171 45.5741 224.156 45.3866 224.156C44.9861 224.156 44.6281 224.244 44.3128 224.418C44.0017 224.589 43.7545 224.827 43.5713 225.134C43.3923 225.441 43.3028 225.795 43.3028 226.195V231.75H40.5798ZM53.6595 221.932V223.977H47.7469V221.932H53.6595ZM49.0892 219.58H51.8122V228.733C51.8122 228.984 51.8506 229.18 51.9273 229.321C52.004 229.457 52.1105 229.553 52.2469 229.609C52.3875 229.664 52.5494 229.692 52.7327 229.692C52.8605 229.692 52.9884 229.681 53.1162 229.66C53.2441 229.634 53.3421 229.615 53.4102 229.602L53.8385 231.629C53.7021 231.671 53.5104 231.72 53.2632 231.776C53.0161 231.835 52.7156 231.871 52.3619 231.884C51.7057 231.91 51.1304 231.822 50.6361 231.622C50.146 231.422 49.7646 231.111 49.4919 230.689C49.2192 230.267 49.085 229.734 49.0892 229.091V219.58ZM55.4333 231.75V221.932H58.1563V231.75H55.4333ZM56.8012 220.666C56.3964 220.666 56.0491 220.532 55.7593 220.263C55.4738 219.991 55.3311 219.665 55.3311 219.286C55.3311 218.911 55.4738 218.589 55.7593 218.32C56.0491 218.048 56.3964 217.911 56.8012 217.911C57.2061 217.911 57.5512 218.048 57.8367 218.32C58.1265 218.589 58.2714 218.911 58.2714 219.286C58.2714 219.665 58.1265 219.991 57.8367 220.263C57.5512 220.532 57.2061 220.666 56.8012 220.666ZM65.6175 221.932V223.977H59.5578V221.932H65.6175ZM60.9449 231.75V221.222C60.9449 220.511 61.0834 219.92 61.3604 219.452C61.6416 218.983 62.0251 218.631 62.5109 218.397C62.9967 218.163 63.5486 218.045 64.1665 218.045C64.5841 218.045 64.9655 218.077 65.3106 218.141C65.6601 218.205 65.92 218.263 66.0905 218.314L65.6047 220.359C65.4981 220.325 65.366 220.293 65.2084 220.263C65.055 220.234 64.8973 220.219 64.7354 220.219C64.3348 220.219 64.0557 220.312 63.898 220.5C63.7403 220.683 63.6615 220.941 63.6615 221.273V231.75H60.9449ZM67.281 231.75V221.932H70.004V231.75H67.281ZM68.6489 220.666C68.2441 220.666 67.8968 220.532 67.607 220.263C67.3215 219.991 67.1787 219.665 67.1787 219.286C67.1787 218.911 67.3215 218.589 67.607 218.32C67.8968 218.048 68.2441 217.911 68.6489 217.911C69.0537 217.911 69.3989 218.048 69.6844 218.32C69.9742 218.589 70.1191 218.911 70.1191 219.286C70.1191 219.665 69.9742 219.991 69.6844 220.263C69.3989 220.532 69.0537 220.666 68.6489 220.666ZM76.6597 231.942C75.6498 231.942 74.7805 231.737 74.0518 231.328C73.3273 230.915 72.7691 230.331 72.377 229.577C71.985 228.818 71.789 227.921 71.789 226.886C71.789 225.876 71.985 224.989 72.377 224.227C72.7691 223.464 73.3209 222.869 74.0326 222.443C74.7485 222.017 75.588 221.804 76.551 221.804C77.1988 221.804 77.8018 221.908 78.36 222.117C78.9225 222.322 79.4126 222.631 79.8302 223.044C80.252 223.457 80.5802 223.977 80.8145 224.604C81.0489 225.226 81.1661 225.955 81.1661 226.79V227.538H72.8756V225.85H78.6029C78.6029 225.458 78.5177 225.111 78.3472 224.808C78.1768 224.506 77.9403 224.269 77.6377 224.099C77.3394 223.924 76.9921 223.837 76.5958 223.837C76.1824 223.837 75.816 223.933 75.4964 224.124C75.181 224.312 74.9339 224.565 74.7549 224.885C74.5759 225.2 74.4843 225.552 74.48 225.94V227.544C74.48 228.03 74.5695 228.45 74.7485 228.803C74.9317 229.157 75.1895 229.43 75.5219 229.621C75.8543 229.813 76.2485 229.909 76.7045 229.909C77.007 229.909 77.284 229.866 77.5354 229.781C77.7868 229.696 78.002 229.568 78.181 229.398C78.36 229.227 78.4964 229.018 78.5901 228.771L81.1086 228.938C80.9807 229.543 80.7187 230.071 80.3224 230.523C79.9303 230.97 79.4232 231.32 78.801 231.571C78.1832 231.818 77.4694 231.942 76.6597 231.942ZM86.561 231.91C85.8153 231.91 85.1398 231.718 84.5347 231.335C83.9339 230.947 83.4566 230.378 83.1029 229.628C82.7535 228.874 82.5787 227.949 82.5787 226.854C82.5787 225.729 82.7599 224.793 83.1221 224.048C83.4843 223.298 83.9658 222.737 84.5667 222.366C85.1718 221.991 85.8344 221.804 86.5546 221.804C87.1043 221.804 87.5624 221.898 87.9289 222.085C88.2996 222.268 88.5979 222.499 88.8238 222.776C89.0539 223.048 89.2286 223.317 89.3479 223.581H89.431V218.659H92.1476V231.75H89.463V230.178H89.3479C89.2201 230.45 89.039 230.721 88.8046 230.989C88.5745 231.254 88.2741 231.473 87.9033 231.648C87.5368 231.822 87.0894 231.91 86.561 231.91ZM87.4239 229.743C87.8628 229.743 88.2336 229.624 88.5361 229.385C88.843 229.142 89.0773 228.803 89.2393 228.369C89.4055 227.934 89.4885 227.425 89.4885 226.841C89.4885 226.257 89.4076 225.75 89.2457 225.32C89.0837 224.889 88.8493 224.557 88.5425 224.322C88.2357 224.088 87.8628 223.971 87.4239 223.971C86.9765 223.971 86.5993 224.092 86.2925 224.335C85.9857 224.578 85.7535 224.915 85.5958 225.345C85.4381 225.776 85.3593 226.274 85.3593 226.841C85.3593 227.412 85.4381 227.917 85.5958 228.356C85.7577 228.79 85.99 229.131 86.2925 229.379C86.5993 229.621 86.9765 229.743 87.4239 229.743Z" fill="white"/>
<mask id="mask0_599_665" style="mask-type:luminance" maskUnits="userSpaceOnUse" x="0" y="0" width="128" height="128">
<path d="M0.75 0.5H127.5V127.25H0.75V0.5Z" fill="white"/>
</mask>
<g mask="url(#mask0_599_665)">
<path d="M6.17554 16.5276V9.36101C6.17554 5.49217 9.31161 2.35634 13.181 2.35634H90.5291C94.3982 2.35634 97.5346 5.49217 97.5346 9.36101V11.4979" stroke="white" stroke-width="3.71338" stroke-miterlimit="10" stroke-linecap="round" stroke-linejoin="round"/>
<path d="M97.5346 80.9449V118.388C97.5346 122.257 94.3982 125.393 90.5291 125.393H13.181C9.31161 125.393 6.17554 122.257 6.17554 118.388V16.3433" stroke="white" stroke-width="3.71338" stroke-miterlimit="10" stroke-linecap="round" stroke-linejoin="round"/>
<path d="M47.4198 37.101L44.0523 38.3212C41.3391 39.305 39.346 41.6457 38.8016 44.4785L38.0735 48.2924C37.5318 51.1103 39.6938 53.7241 42.564 53.7241H51.9078H61.1447C63.9926 53.7241 66.1499 51.1499 65.6478 48.3471L64.9695 44.5552C64.4551 41.6779 62.4471 39.2951 59.701 38.2987L56.2045 37.0314" stroke="white" stroke-width="3.71338" stroke-miterlimit="10" stroke-linecap="round" stroke-linejoin="round"/>
<path d="M54.3837 32.3799H56.2053V37.0313V38.2661V38.2689C53.6878 40.4652 49.9356 40.4652 47.4207 38.2661V37.1009V32.3799H49.1825" stroke="white" stroke-width="3.71338" stroke-miterlimit="10" stroke-linecap="round" stroke-linejoin="round"/>
<path d="M58.7904 20.7695V25.7596C58.7904 29.6725 55.5877 32.968 51.675 32.8925C47.8832 32.8194 44.8333 29.7235 44.8333 25.9155V20.7695C44.8333 16.916 47.9577 13.7916 51.8119 13.7916C55.6662 13.7916 58.7904 16.916 58.7904 20.7695Z" stroke="white" stroke-width="3.71338" stroke-miterlimit="10" stroke-linecap="round" stroke-linejoin="round"/>
<path d="M50.3118 21.7668C51.5478 22.6338 54.1059 22.5947 56.7223 21.547C57.2954 21.3177 57.8331 21.0548 58.3262 20.7697" stroke="white" stroke-width="3.71338" stroke-miterlimit="10" stroke-linecap="round" stroke-linejoin="round"/>
<path d="M22.6008 85.513H80.4231" stroke="white" stroke-width="3.71338" stroke-miterlimit="10" stroke-linecap="round" stroke-linejoin="round"/>
<path d="M22.6008 95.5242H80.4231" stroke="white" stroke-width="3.71338" stroke-miterlimit="10" stroke-linecap="round" stroke-linejoin="round"/>
<path d="M22.6017 105.535H80.424" stroke="white" stroke-width="3.71338" stroke-miterlimit="10" stroke-linecap="round" stroke-linejoin="round"/>
<path d="M22.6017 115.546H80.424" stroke="white" stroke-width="3.71338" stroke-miterlimit="10" stroke-linecap="round" stroke-linejoin="round"/>
<path d="M22.6008 65.4896H80.4231" stroke="white" stroke-width="3.71338" stroke-miterlimit="10" stroke-linecap="round" stroke-linejoin="round"/>
<path d="M22.6017 75.5015H80.424" stroke="white" stroke-width="3.71338" stroke-miterlimit="10" stroke-linecap="round" stroke-linejoin="round"/>
<path d="M17.6088 85.5127C17.6088 86.5418 16.7743 87.3763 15.745 87.3763C14.7154 87.3763 13.8811 86.5418 13.8811 85.5127C13.8811 84.4836 14.7154 83.6493 15.745 83.6493C16.7743 83.6493 17.6088 84.4836 17.6088 85.5127Z" fill="white"/>
<path d="M17.6088 65.4895C17.6088 66.5186 16.7743 67.3528 15.745 67.3528C14.7154 67.3528 13.8811 66.5186 13.8811 65.4895C13.8811 64.4601 14.7154 63.6258 15.745 63.6258C16.7743 63.6258 17.6088 64.4601 17.6088 65.4895Z" fill="white"/>
<path d="M17.6088 75.5004C17.6088 76.5297 16.7743 77.364 15.745 77.364C14.7154 77.364 13.8811 76.5297 13.8811 75.5004C13.8811 74.4713 14.7154 73.637 15.745 73.637C16.7743 73.637 17.6088 74.4713 17.6088 75.5004Z" fill="white"/>
<path d="M17.6088 95.5241C17.6088 96.5532 16.7743 97.3875 15.745 97.3875C14.7154 97.3875 13.8811 96.5532 13.8811 95.5241C13.8811 94.4947 14.7154 93.6605 15.745 93.6605C16.7743 93.6605 17.6088 94.4947 17.6088 95.5241Z" fill="white"/>
<path d="M17.6088 105.535C17.6088 106.564 16.7743 107.399 15.745 107.399C14.7154 107.399 13.8811 106.564 13.8811 105.535C13.8811 104.506 14.7154 103.672 15.745 103.672C16.7743 103.672 17.6088 104.506 17.6088 105.535Z" fill="white"/>
<path d="M17.6088 115.546C17.6088 116.575 16.7743 117.409 15.745 117.409C14.7154 117.409 13.8811 116.575 13.8811 115.546C13.8811 114.517 14.7154 113.682 15.745 113.682C16.7743 113.682 17.6088 114.517 17.6088 115.546Z" fill="white"/>
<path d="M88.9779 55.8366V85.3332C88.9779 86.1632 89.932 86.6279 90.5858 86.1162L96.9203 81.1564C97.0993 81.0148 97.3177 80.9452 97.5343 80.9452C97.7504 80.9452 97.969 81.0148 98.148 81.1564L104.483 86.1162C105.136 86.6279 106.093 86.1632 106.093 85.3332V57.9722" stroke="white" stroke-width="3.71338" stroke-miterlimit="10" stroke-linecap="round" stroke-linejoin="round"/>
<path d="M122.075 36.0335C122.075 39.1582 118.585 41.5667 117.458 44.2839C116.29 47.1007 117.01 51.2609 114.887 53.3837C112.764 55.5063 108.604 54.7856 105.787 55.9536C103.069 57.0805 100.66 60.5701 97.5353 60.5701C94.4102 60.5701 92.0017 57.0805 89.284 55.9536C86.4668 54.7854 82.306 55.5063 80.183 53.3834C78.0602 51.2609 78.781 47.1007 77.6128 44.2839C76.4862 41.5667 72.9958 39.1582 72.9958 36.0335C72.9958 32.9089 76.4862 30.5004 77.6128 27.7832C78.781 24.9664 78.0602 20.8062 80.1832 18.6834C82.3063 16.5608 86.467 17.2815 89.284 16.1135C92.0017 14.9866 94.4102 11.497 97.5353 11.497C100.661 11.497 103.069 14.9866 105.787 16.1135C108.604 17.2817 112.765 16.5608 114.887 18.6836C117.011 20.8062 116.29 24.9664 117.458 27.7832C118.585 30.5004 122.075 32.9089 122.075 36.0335Z" stroke="white" stroke-width="3.71338" stroke-miterlimit="10" stroke-linecap="round" stroke-linejoin="round"/>
<path d="M97.941 23.9222L101.874 29.7965C101.939 29.8928 102.035 29.9631 102.147 29.9948L108.95 31.9195C109.284 32.0144 109.416 32.4184 109.201 32.6917L104.829 38.2469C104.757 38.3382 104.72 38.4519 104.724 38.568L104.996 45.6316C105.009 45.9794 104.665 46.2289 104.339 46.1089L97.7039 43.6682C97.5949 43.6281 97.4754 43.6281 97.3664 43.6682L90.7314 46.1089C90.4051 46.2289 90.061 45.9794 90.0746 45.6316L90.3457 38.568C90.3501 38.4519 90.3132 38.3382 90.2412 38.2469L85.8693 32.6917C85.6542 32.4184 85.7856 32.0144 86.1203 31.9195L92.923 29.9948C93.0349 29.9631 93.1314 29.8928 93.1961 29.7965L97.1293 23.9222C97.3226 23.6333 97.7477 23.6333 97.941 23.9222Z" stroke="white" stroke-width="3.71338" stroke-miterlimit="10" stroke-linecap="round" stroke-linejoin="round"/>
</g>
</svg>
