<svg width="146" height="264" viewBox="0 0 146 264" fill="none" xmlns="http://www.w3.org/2000/svg">
<path d="M24.0035 211.691V209.409H34.7549V211.691H30.7471V222.5H28.0113V211.691H24.0035ZM35.4548 222.5V212.682H38.0947V214.395H38.197C38.376 213.786 38.6764 213.325 39.0983 213.014C39.5202 212.699 40.0059 212.541 40.5557 212.541C40.692 212.541 40.839 212.55 40.9967 212.567C41.1544 212.584 41.2929 212.607 41.4122 212.637V215.053C41.2844 215.015 41.1075 214.981 40.8817 214.951C40.6558 214.921 40.4491 214.906 40.2616 214.906C39.8611 214.906 39.5031 214.994 39.1878 215.168C38.8767 215.339 38.6295 215.577 38.4463 215.884C38.2673 216.191 38.1778 216.545 38.1778 216.945V222.5H35.4548ZM49.1162 218.32V212.682H51.8392V222.5H49.2249V220.717H49.1226C48.901 221.292 48.5324 221.754 48.0168 222.104C47.5054 222.453 46.8811 222.628 46.1439 222.628C45.4877 222.628 44.9102 222.479 44.4117 222.18C43.9131 221.882 43.5232 221.458 43.2419 220.908C42.9649 220.359 42.8243 219.7 42.82 218.933V212.682H45.5431V218.447C45.5473 219.027 45.7029 219.485 46.0097 219.822C46.3165 220.158 46.7277 220.327 47.2433 220.327C47.5715 220.327 47.8783 220.252 48.1638 220.103C48.4493 219.95 48.6794 219.724 48.8541 219.425C49.0331 219.127 49.1205 218.759 49.1162 218.32ZM62.1863 215.482L59.6934 215.635C59.6508 215.422 59.5592 215.23 59.4186 215.06C59.278 214.885 59.0926 214.746 58.8625 214.644C58.6366 214.538 58.366 214.484 58.0507 214.484C57.6288 214.484 57.273 214.574 56.9832 214.753C56.6934 214.928 56.5486 215.162 56.5486 215.456C56.5486 215.69 56.6423 215.888 56.8298 216.05C57.0173 216.212 57.339 216.342 57.795 216.44L59.572 216.798C60.5265 216.994 61.2382 217.31 61.7069 217.744C62.1757 218.179 62.4101 218.75 62.4101 219.457C62.4101 220.101 62.2204 220.665 61.8412 221.151C61.4662 221.637 60.9506 222.016 60.2943 222.289C59.6423 222.558 58.8902 222.692 58.0379 222.692C56.7382 222.692 55.7027 222.421 54.9314 221.88C54.1643 221.335 53.7148 220.593 53.5827 219.656L56.2609 219.515C56.3419 219.911 56.5379 220.214 56.849 220.423C57.1601 220.627 57.5585 220.729 58.0443 220.729C58.5216 220.729 58.9051 220.638 59.1949 220.455C59.4889 220.267 59.6381 220.026 59.6423 219.732C59.6381 219.485 59.5336 219.283 59.3291 219.125C59.1246 218.963 58.8092 218.839 58.3831 218.754L56.6828 218.415C55.724 218.224 55.0102 217.891 54.5415 217.418C54.077 216.945 53.8447 216.342 53.8447 215.609C53.8447 214.979 54.0152 214.435 54.3561 213.979C54.7013 213.523 55.1849 213.172 55.8071 212.925C56.4335 212.678 57.1665 212.554 58.0059 212.554C59.246 212.554 60.2219 212.816 60.9335 213.34C61.6494 213.864 62.067 214.578 62.1863 215.482ZM69.347 212.682V214.727H63.4344V212.682H69.347ZM64.7767 210.33H67.4997V219.483C67.4997 219.734 67.5381 219.93 67.6148 220.071C67.6915 220.207 67.798 220.303 67.9344 220.359C68.075 220.414 68.2369 220.442 68.4202 220.442C68.548 220.442 68.6759 220.431 68.8037 220.41C68.9316 220.384 69.0296 220.365 69.0977 220.352L69.526 222.379C69.3896 222.421 69.1979 222.47 68.9507 222.526C68.7036 222.585 68.4031 222.621 68.0494 222.634C67.3932 222.66 66.8179 222.572 66.3236 222.372C65.8335 222.172 65.4521 221.861 65.1794 221.439C64.9067 221.017 64.7725 220.484 64.7767 219.841V210.33ZM75.4898 222.692C74.4798 222.692 73.6105 222.487 72.8818 222.078C72.1574 221.665 71.5992 221.081 71.2071 220.327C70.8151 219.568 70.6191 218.671 70.6191 217.636C70.6191 216.626 70.8151 215.739 71.2071 214.977C71.5992 214.214 72.151 213.619 72.8627 213.193C73.5786 212.767 74.4181 212.554 75.3811 212.554C76.0289 212.554 76.6318 212.658 77.1901 212.867C77.7526 213.072 78.2426 213.381 78.6602 213.794C79.0821 214.207 79.4102 214.727 79.6446 215.354C79.879 215.976 79.9962 216.705 79.9962 217.54V218.288H71.7057V216.6H77.433C77.433 216.208 77.3477 215.861 77.1773 215.558C77.0068 215.256 76.7703 215.019 76.4678 214.849C76.1695 214.674 75.8222 214.587 75.4259 214.587C75.0125 214.587 74.646 214.683 74.3264 214.874C74.0111 215.062 73.7639 215.315 73.585 215.635C73.406 215.95 73.3144 216.302 73.3101 216.69V218.294C73.3101 218.78 73.3996 219.2 73.5786 219.553C73.7618 219.907 74.0196 220.18 74.352 220.371C74.6844 220.563 75.0786 220.659 75.5345 220.659C75.8371 220.659 76.1141 220.616 76.3655 220.531C76.6169 220.446 76.8321 220.318 77.0111 220.148C77.1901 219.977 77.3264 219.768 77.4202 219.521L79.9387 219.688C79.8108 220.293 79.5487 220.821 79.1524 221.273C78.7604 221.72 78.2533 222.07 77.6311 222.321C77.0132 222.568 76.2994 222.692 75.4898 222.692ZM85.3911 222.66C84.6453 222.66 83.9699 222.468 83.3648 222.085C82.7639 221.697 82.2867 221.128 81.933 220.378C81.5835 219.624 81.4088 218.699 81.4088 217.604C81.4088 216.479 81.5899 215.543 81.9521 214.798C82.3144 214.048 82.7959 213.487 83.3968 213.116C84.0019 212.741 84.6645 212.554 85.3847 212.554C85.9344 212.554 86.3925 212.648 86.759 212.835C87.1297 213.018 87.428 213.249 87.6539 213.526C87.884 213.798 88.0587 214.067 88.178 214.331H88.2611V209.409H90.9777V222.5H88.2931V220.928H88.178C88.0502 221.2 87.8691 221.471 87.6347 221.739C87.4046 222.004 87.1041 222.223 86.7334 222.398C86.3669 222.572 85.9195 222.66 85.3911 222.66ZM86.254 220.493C86.6929 220.493 87.0637 220.374 87.3662 220.135C87.673 219.892 87.9074 219.553 88.0693 219.119C88.2355 218.684 88.3186 218.175 88.3186 217.591C88.3186 217.007 88.2377 216.5 88.0757 216.07C87.9138 215.639 87.6794 215.307 87.3726 215.072C87.0658 214.838 86.6929 214.721 86.254 214.721C85.8066 214.721 85.4294 214.842 85.1226 215.085C84.8158 215.328 84.5835 215.665 84.4259 216.095C84.2682 216.526 84.1894 217.024 84.1894 217.591C84.1894 218.162 84.2682 218.667 84.4259 219.106C84.5878 219.54 84.82 219.881 85.1226 220.129C85.4294 220.371 85.8066 220.493 86.254 220.493ZM97.4337 222.5V209.409H100.157V214.331H100.24C100.359 214.067 100.532 213.798 100.758 213.526C100.988 213.249 101.286 213.018 101.652 212.835C102.023 212.648 102.483 212.554 103.033 212.554C103.749 212.554 104.41 212.741 105.015 213.116C105.62 213.487 106.103 214.048 106.466 214.798C106.828 215.543 107.009 216.479 107.009 217.604C107.009 218.699 106.832 219.624 106.478 220.378C106.129 221.128 105.652 221.697 105.047 222.085C104.446 222.468 103.772 222.66 103.027 222.66C102.498 222.66 102.049 222.572 101.678 222.398C101.312 222.223 101.011 222.004 100.777 221.739C100.542 221.471 100.363 221.2 100.24 220.928H100.118V222.5H97.4337ZM100.099 217.591C100.099 218.175 100.18 218.684 100.342 219.119C100.504 219.553 100.738 219.892 101.045 220.135C101.352 220.374 101.725 220.493 102.164 220.493C102.607 220.493 102.982 220.371 103.289 220.129C103.596 219.881 103.828 219.54 103.986 219.106C104.147 218.667 104.228 218.162 104.228 217.591C104.228 217.024 104.15 216.526 103.992 216.095C103.834 215.665 103.602 215.328 103.295 215.085C102.988 214.842 102.611 214.721 102.164 214.721C101.721 214.721 101.346 214.838 101.039 215.072C100.736 215.307 100.504 215.639 100.342 216.07C100.18 216.5 100.099 217.007 100.099 217.591ZM110.191 226.182C109.845 226.182 109.522 226.154 109.219 226.099C108.921 226.048 108.674 225.982 108.478 225.901L109.091 223.868C109.411 223.966 109.698 224.019 109.954 224.028C110.214 224.036 110.438 223.977 110.625 223.849C110.817 223.721 110.973 223.504 111.092 223.197L111.252 222.781L107.73 212.682H110.593L112.626 219.892H112.728L114.78 212.682H117.663L113.847 223.561C113.664 224.089 113.414 224.55 113.099 224.942C112.788 225.338 112.394 225.643 111.916 225.856C111.439 226.073 110.864 226.182 110.191 226.182ZM12.5995 234.682V256.5H7.98659V239.06H7.85875L2.8623 242.192V238.102L8.26358 234.682H12.5995ZM26.3398 256.979C24.5074 256.972 22.9307 256.521 21.6096 255.626C20.2957 254.732 19.2836 253.435 18.5734 251.738C17.8703 250.04 17.5223 247.999 17.5294 245.612C17.5294 243.233 17.8809 241.205 18.5841 239.529C19.2943 237.853 20.3064 236.578 21.6203 235.705C22.9413 234.824 24.5145 234.384 26.3398 234.384C28.165 234.384 29.7346 234.824 31.0486 235.705C32.3696 236.585 33.3852 237.864 34.0954 239.54C34.8057 241.209 35.1572 243.233 35.1501 245.612C35.1501 248.006 34.795 250.051 34.0848 251.749C33.3817 253.446 32.3731 254.742 31.0592 255.637C29.7453 256.532 28.1721 256.979 26.3398 256.979ZM26.3398 253.155C27.5898 253.155 28.5876 252.526 29.3334 251.269C30.0791 250.012 30.4484 248.126 30.4413 245.612C30.4413 243.957 30.2709 242.58 29.93 241.479C29.5961 240.378 29.1203 239.55 28.5024 238.996C27.8916 238.442 27.1707 238.165 26.3398 238.165C25.0969 238.165 24.1025 238.787 23.3568 240.03C22.6111 241.273 22.2346 243.134 22.2275 245.612C22.2275 247.288 22.3944 248.688 22.7282 249.81C23.0692 250.925 23.5486 251.763 24.1665 252.324C24.7844 252.878 25.5088 253.155 26.3398 253.155ZM46.9941 256.979C45.1617 256.972 43.585 256.521 42.2639 255.626C40.95 254.732 39.9379 253.435 39.2277 251.738C38.5246 250.04 38.1766 247.999 38.1837 245.612C38.1837 243.233 38.5352 241.205 39.2384 239.529C39.9486 237.853 40.9607 236.578 42.2746 235.705C43.5956 234.824 45.1688 234.384 46.9941 234.384C48.8193 234.384 50.3889 234.824 51.7029 235.705C53.0239 236.585 54.0395 237.864 54.7497 239.54C55.46 241.209 55.8115 243.233 55.8044 245.612C55.8044 248.006 55.4493 250.051 54.7391 251.749C54.036 253.446 53.0274 254.742 51.7135 255.637C50.3996 256.532 48.8264 256.979 46.9941 256.979ZM46.9941 253.155C48.2441 253.155 49.2419 252.526 49.9877 251.269C50.7334 250.012 51.1027 248.126 51.0956 245.612C51.0956 243.957 50.9252 242.58 50.5843 241.479C50.2504 240.378 49.7746 239.55 49.1567 238.996C48.5459 238.442 47.825 238.165 46.9941 238.165C45.7512 238.165 44.7568 238.787 44.0111 240.03C43.2654 241.273 42.8889 243.134 42.8818 245.612C42.8818 247.288 43.0487 248.688 43.3825 249.81C43.7235 250.925 44.2029 251.763 44.8208 252.324C45.4387 252.878 46.1631 253.155 46.9941 253.155ZM65.6135 253.176V238.091H69.4275V253.176H65.6135ZM59.9779 247.54V243.727H75.0631V247.54H59.9779ZM94.57 247.992H91.7703C91.7192 247.63 91.6148 247.308 91.4571 247.027C91.2995 246.741 91.097 246.499 90.8499 246.298C90.6027 246.098 90.3172 245.945 89.9933 245.838C89.6737 245.732 89.3264 245.678 88.9514 245.678C88.2739 245.678 87.6837 245.847 87.1808 246.183C86.678 246.516 86.2881 247.001 86.0111 247.641C85.7341 248.276 85.5956 249.047 85.5956 249.955C85.5956 250.888 85.7341 251.672 86.0111 252.307C86.2923 252.942 86.6844 253.421 87.1872 253.745C87.6901 254.069 88.2718 254.231 88.9323 254.231C89.303 254.231 89.646 254.182 89.9614 254.084C90.281 253.986 90.5644 253.843 90.8115 253.656C91.0587 253.464 91.2632 253.232 91.4252 252.959C91.5914 252.686 91.7064 252.375 91.7703 252.026L94.57 252.038C94.4976 252.639 94.3165 253.219 94.0267 253.777C93.7412 254.331 93.3556 254.827 92.8698 255.266C92.3882 255.701 91.8129 256.046 91.1439 256.302C90.4791 256.553 89.727 256.679 88.8875 256.679C87.7199 256.679 86.6759 256.415 85.7554 255.886C84.8392 255.358 84.1148 254.593 83.5821 253.592C83.0537 252.59 82.7895 251.378 82.7895 249.955C82.7895 248.527 83.058 247.312 83.5949 246.311C84.1318 245.31 84.8605 244.547 85.781 244.023C86.7014 243.494 87.7369 243.23 88.8875 243.23C89.646 243.23 90.3492 243.337 90.9969 243.55C91.6489 243.763 92.2263 244.074 92.7291 244.483C93.232 244.888 93.6411 245.384 93.9564 245.972C94.276 246.56 94.4806 247.234 94.57 247.992ZM99.2267 243.409V256.5H96.5036V243.409H99.2267ZM101.408 256.5V246.682H104.131V256.5H101.408ZM102.776 245.416C102.371 245.416 102.024 245.282 101.734 245.013C101.448 244.741 101.306 244.415 101.306 244.036C101.306 243.661 101.448 243.339 101.734 243.07C102.024 242.798 102.371 242.661 102.776 242.661C103.181 242.661 103.526 242.798 103.811 243.07C104.101 243.339 104.246 243.661 104.246 244.036C104.246 244.415 104.101 244.741 103.811 245.013C103.526 245.282 103.181 245.416 102.776 245.416ZM110.787 256.692C109.777 256.692 108.907 256.487 108.179 256.078C107.454 255.665 106.896 255.081 106.504 254.327C106.112 253.568 105.916 252.671 105.916 251.636C105.916 250.626 106.112 249.739 106.504 248.977C106.896 248.214 107.448 247.619 108.16 247.193C108.875 246.767 109.715 246.554 110.678 246.554C111.326 246.554 111.929 246.658 112.487 246.867C113.049 247.072 113.54 247.381 113.957 247.794C114.379 248.207 114.707 248.727 114.941 249.354C115.176 249.976 115.293 250.705 115.293 251.54V252.288H107.003V250.6H112.73C112.73 250.208 112.645 249.861 112.474 249.558C112.304 249.256 112.067 249.019 111.765 248.849C111.466 248.674 111.119 248.587 110.723 248.587C110.309 248.587 109.943 248.683 109.623 248.874C109.308 249.062 109.061 249.315 108.882 249.635C108.703 249.95 108.611 250.302 108.607 250.69V252.294C108.607 252.78 108.696 253.2 108.875 253.553C109.059 253.907 109.316 254.18 109.649 254.371C109.981 254.563 110.375 254.659 110.831 254.659C111.134 254.659 111.411 254.616 111.662 254.531C111.914 254.446 112.129 254.318 112.308 254.148C112.487 253.977 112.623 253.768 112.717 253.521L115.236 253.688C115.108 254.293 114.846 254.821 114.449 255.273C114.057 255.72 113.55 256.07 112.928 256.321C112.31 256.568 111.596 256.692 110.787 256.692ZM119.793 250.824V256.5H117.07V246.682H119.665V248.414H119.78C119.998 247.843 120.362 247.391 120.873 247.059C121.385 246.722 122.005 246.554 122.733 246.554C123.415 246.554 124.01 246.703 124.517 247.001C125.024 247.3 125.418 247.726 125.699 248.28C125.981 248.83 126.121 249.486 126.121 250.249V256.5H123.398V250.734C123.402 250.134 123.249 249.665 122.938 249.328C122.627 248.987 122.199 248.817 121.653 248.817C121.287 248.817 120.963 248.896 120.682 249.053C120.405 249.211 120.187 249.441 120.03 249.744C119.876 250.042 119.797 250.402 119.793 250.824ZM133.49 246.682V248.727H127.577V246.682H133.49ZM128.919 244.33H131.642V253.483C131.642 253.734 131.681 253.93 131.757 254.071C131.834 254.207 131.941 254.303 132.077 254.359C132.218 254.414 132.38 254.442 132.563 254.442C132.691 254.442 132.818 254.431 132.946 254.41C133.074 254.384 133.172 254.365 133.24 254.352L133.669 256.379C133.532 256.421 133.34 256.47 133.093 256.526C132.846 256.585 132.546 256.621 132.192 256.634C131.536 256.66 130.96 256.572 130.466 256.372C129.976 256.172 129.595 255.861 129.322 255.439C129.049 255.017 128.915 254.484 128.919 253.841V244.33ZM143.309 249.482L140.816 249.635C140.774 249.422 140.682 249.23 140.542 249.06C140.401 248.885 140.216 248.746 139.986 248.644C139.76 248.538 139.489 248.484 139.174 248.484C138.752 248.484 138.396 248.574 138.106 248.753C137.816 248.928 137.672 249.162 137.672 249.456C137.672 249.69 137.765 249.888 137.953 250.05C138.14 250.212 138.462 250.342 138.918 250.44L140.695 250.798C141.65 250.994 142.361 251.31 142.83 251.744C143.299 252.179 143.533 252.75 143.533 253.457C143.533 254.101 143.343 254.665 142.964 255.151C142.589 255.637 142.074 256.016 141.417 256.289C140.765 256.558 140.013 256.692 139.161 256.692C137.861 256.692 136.826 256.421 136.054 255.88C135.287 255.335 134.838 254.593 134.706 253.656L137.384 253.515C137.465 253.911 137.661 254.214 137.972 254.423C138.283 254.627 138.682 254.729 139.167 254.729C139.645 254.729 140.028 254.638 140.318 254.455C140.612 254.267 140.761 254.026 140.765 253.732C140.761 253.485 140.657 253.283 140.452 253.125C140.248 252.963 139.932 252.839 139.506 252.754L137.806 252.415C136.847 252.224 136.133 251.891 135.665 251.418C135.2 250.945 134.968 250.342 134.968 249.609C134.968 248.979 135.138 248.435 135.479 247.979C135.824 247.523 136.308 247.172 136.93 246.925C137.557 246.678 138.29 246.554 139.129 246.554C140.369 246.554 141.345 246.816 142.057 247.34C142.772 247.864 143.19 248.578 143.309 249.482Z" fill="white"/>
<path fill-rule="evenodd" clip-rule="evenodd" d="M107.972 52.7108C108.293 52.3887 108.729 52.2074 109.184 52.2068C109.64 52.2062 110.076 52.3864 110.399 52.7077L114.065 56.3757C114.264 56.5754 114.501 56.7338 114.762 56.8418C115.023 56.9499 115.303 57.0055 115.585 57.0055C115.867 57.0055 116.147 56.9499 116.408 56.8418C116.669 56.7338 116.906 56.5754 117.106 56.3757L126.599 46.8821C126.921 46.5631 127.356 46.3844 127.809 46.3853C128.262 46.3861 128.696 46.5665 129.016 46.8868C129.336 47.2071 129.517 47.6412 129.517 48.0942C129.518 48.5471 129.339 48.9819 129.02 49.3034C126.933 51.3903 124.83 53.5156 122.796 55.5741C120.762 57.6326 118.657 59.7557 116.577 61.8351C116.255 62.1567 115.818 62.3373 115.363 62.3373C114.908 62.3373 114.472 62.1567 114.15 61.8351C113.241 60.9253 112.3 59.8654 111.308 58.7441C110.236 57.5397 109.129 56.2922 107.971 55.1339C107.812 54.9748 107.686 54.7859 107.599 54.5779C107.513 54.3699 107.469 54.147 107.469 53.9219C107.469 53.6968 107.513 53.4739 107.599 53.2659C107.686 53.058 107.812 52.869 107.971 52.7099L107.972 52.7108ZM108.088 61.6023C109.127 62.7723 110.11 63.8759 111.108 64.8773C112.238 66.0047 113.768 66.638 115.364 66.638C116.959 66.638 118.49 66.0047 119.619 64.8773C121.706 62.7881 123.816 60.6591 125.853 58.5974C127.884 56.5452 129.985 54.4234 132.062 52.345C133.19 51.2172 133.823 49.6877 133.823 48.0928C133.823 46.4979 133.19 44.9684 132.062 43.8407C130.934 42.713 129.405 42.0794 127.81 42.0794C126.215 42.0795 124.686 42.7131 123.558 43.8408L115.586 51.8134L113.438 49.6689C112.879 49.1102 112.216 48.6671 111.486 48.3648C110.756 48.0624 109.974 47.9068 109.184 47.9068C108.394 47.9068 107.611 48.0624 106.881 48.3647C106.152 48.667 105.488 49.1101 104.93 49.6687C103.801 50.7969 103.168 52.3271 103.168 53.9226C103.168 54.7126 103.323 55.4949 103.626 56.2248C103.928 56.9547 104.371 57.6179 104.93 58.1765C105.999 59.2428 107.062 60.4409 108.088 61.6023ZM37.7575 51.07C37.7575 46.1511 44.3814 41.9973 52.2193 41.9973H82.5969C86.7598 41.9973 90.7292 43.1774 93.4942 45.191C91.9786 49.3204 91.5109 53.7611 92.1329 58.1156C92.7549 62.4701 94.4472 66.6023 97.0582 70.1422V74.4743C97.0582 76.5666 93.9451 78.8955 89.478 78.8955H87.0046V69.4649C87.0046 68.8946 86.7781 68.3477 86.3748 67.9444C85.9716 67.5412 85.4246 67.3146 84.8544 67.3146C84.2841 67.3146 83.7372 67.5412 83.3339 67.9444C82.9307 68.3477 82.7041 68.8946 82.7041 69.4649V78.8942H52.115V69.4649C52.115 68.8946 51.8884 68.3477 51.4852 67.9444C51.0819 67.5412 50.535 67.3146 49.9647 67.3146C49.3945 67.3146 48.8476 67.5412 48.4443 67.9444C48.0411 68.3477 47.8145 68.8946 47.8145 69.4649V78.8942H45.338C40.874 78.8942 37.7584 76.5654 37.7584 74.473V51.0703L37.7575 51.07ZM118.495 32.0301C114.079 32.0303 109.762 33.34 106.09 35.7935C102.418 38.2471 99.5566 41.7343 97.8666 45.8143C96.1767 49.8943 95.7346 54.3838 96.5961 58.715C97.4577 63.0463 99.5842 67.0248 102.707 70.1475C105.829 73.2703 109.808 75.3969 114.139 76.2586C118.47 77.1202 122.96 76.6782 127.04 74.9884C131.12 73.2986 134.607 70.4369 137.061 66.7652C139.515 63.0935 140.824 58.7766 140.825 54.3605C140.818 48.4401 138.464 42.7641 134.278 38.5777C130.091 34.3913 124.415 32.0365 118.495 32.0301ZM45.337 83.1953H89.4799C96.0308 83.1953 101.183 79.4931 101.354 74.7184C105.543 78.245 110.717 80.3947 116.171 80.8744C121.625 81.3541 127.095 80.1405 131.834 77.3991C136.574 74.6577 140.353 70.5216 142.657 65.5546C144.961 60.5875 145.677 55.0309 144.708 49.6419C143.74 44.253 141.133 39.2936 137.244 35.4397C133.355 31.5857 128.372 29.0245 122.974 28.1051C117.577 27.1857 112.027 27.9527 107.081 30.3017C102.135 32.6507 98.0339 36.4674 95.3358 41.2318C91.8979 38.9674 87.3904 37.6956 82.5976 37.6956H52.2193C41.8748 37.6956 33.4561 43.696 33.4561 51.0697V74.4724C33.4561 79.3638 38.6761 83.195 45.337 83.195V83.1953ZM67.4097 5.05045C75.2691 5.05045 81.6622 10.2094 81.6622 16.5507C81.6622 22.8919 75.2685 28.0541 67.4094 28.0541C59.5503 28.0541 53.1566 22.8929 53.1566 16.5513C53.1566 10.2097 59.55 5.05045 67.4097 5.05045ZM67.4097 32.3555C57.1781 32.3555 48.8552 25.2641 48.8552 16.5507C48.8552 7.83721 57.1781 0.75 67.4094 0.75C77.6407 0.75 85.9643 7.83784 85.9636 16.5513C85.963 25.2648 77.641 32.3561 67.4097 32.3561V32.3555ZM18.217 115.502C18.3619 115.747 18.4568 116.018 18.4962 116.3C18.5357 116.581 18.5189 116.868 18.4468 117.143C18.3747 117.418 18.2488 117.676 18.0763 117.902C17.9038 118.128 17.6882 118.318 17.442 118.46C17.1957 118.602 16.9237 118.694 16.6417 118.731C16.3597 118.767 16.0732 118.747 15.799 118.672C15.5247 118.597 15.268 118.468 15.0439 118.293C14.8197 118.118 14.6325 117.9 14.493 117.653L11.7205 112.85C11.574 112.606 11.4776 112.334 11.437 112.052C11.3965 111.77 11.4124 111.482 11.4841 111.206C11.5557 110.93 11.6815 110.671 11.8543 110.444C12.027 110.217 12.2431 110.027 12.4901 109.884C12.7371 109.741 13.01 109.649 13.293 109.613C13.5759 109.577 13.8632 109.597 14.1381 109.673C14.413 109.749 14.6701 109.879 14.8943 110.056C15.1185 110.232 15.3054 110.451 15.4441 110.7L18.217 115.502ZM136.284 105.391C136.157 107.806 134.192 110.008 130.744 111.592C130.671 111.625 130.6 111.663 130.532 111.705L87.3379 137.753C87.3251 137.759 87.3128 137.766 87.3012 137.775C83.2733 140.309 78.9103 140.703 73.9638 138.973C73.9179 138.958 73.8689 138.941 73.8224 138.93L45.83 131.24C45.5226 131.156 45.3073 131.081 45.1169 131.015C43.6023 130.484 42.8646 130.797 41.6481 131.581L39.9615 132.671L25.5948 107.786L44.5873 96.3085C51.0063 92.8397 70.9026 96.3945 81.3625 102.886C84.985 105.135 87.0157 107.502 86.9357 109.387C86.8626 111.11 84.9635 113.023 81.5867 114.788C77.0554 114.409 70.7505 113.086 61.9877 110.198C61.4458 110.02 60.8552 110.064 60.3458 110.321C59.8365 110.578 59.4501 111.026 59.2716 111.568C59.0931 112.11 59.1372 112.701 59.3942 113.21C59.6512 113.72 60.1 114.106 60.6419 114.284C77.6856 119.901 88.5888 120.675 93.9625 116.656L122.905 100.888C122.939 100.87 122.975 100.848 123.009 100.827C126.454 98.6915 130.226 98.4303 133.105 100.131C135.17 101.351 136.389 103.363 136.285 105.388L136.284 105.391ZM36.9774 143.255C37.798 142.78 38.3967 141.999 38.642 141.083C38.8873 140.167 38.7592 139.191 38.2859 138.37L19.2614 105.421C18.7849 104.602 18.0041 104.005 17.0891 103.759C16.1742 103.513 15.1992 103.639 14.3766 104.109L6.58775 108.607C5.76714 109.082 5.16845 109.863 4.92309 110.779C4.67772 111.695 4.8057 112.671 5.27896 113.492L24.3002 146.441C24.777 147.26 25.5578 147.857 26.4728 148.103C27.3877 148.349 28.3627 148.223 29.1854 147.753L36.9774 143.255V143.255ZM135.291 96.4281C131.027 93.9088 125.61 94.176 120.793 97.1411L91.7585 112.958C91.6563 113.015 91.5587 113.08 91.4663 113.151C90.82 113.637 90.0944 114.007 89.3218 114.245C90.4576 112.94 91.1296 111.296 91.2329 109.569C91.3866 105.937 88.8272 102.459 83.6287 99.2303C72.6047 92.3847 51.018 87.8714 42.4798 92.5583C42.4554 92.5735 42.4276 92.5899 42.4029 92.6041L23.443 104.056L22.9854 103.269C21.9383 101.463 20.2181 100.145 18.2015 99.6048C16.185 99.0643 14.0364 99.345 12.2264 100.385L4.43689 104.884C2.62899 105.929 1.30983 107.649 0.768974 109.666C0.22812 111.684 0.509776 113.833 1.55212 115.643L20.5765 148.592C21.0916 149.489 21.7797 150.275 22.6008 150.904C23.422 151.534 24.3599 151.993 25.3602 152.257C26.0327 152.437 26.7257 152.529 27.4219 152.531C28.7967 152.531 30.1471 152.167 31.3362 151.477L39.1279 146.979C40.9029 145.95 42.2073 144.271 42.7642 142.296C43.3212 140.322 43.0869 138.208 42.111 136.404L43.9821 135.193C43.9884 135.19 43.9944 135.184 44.0036 135.178C44.1882 135.239 44.4146 135.313 44.6888 135.387L72.6145 143.059C74.8978 143.876 77.3018 144.305 79.7267 144.327C83.2196 144.324 86.6377 143.316 89.5738 141.424L132.653 115.447C139.262 112.371 140.456 107.972 140.579 105.613C140.766 101.986 138.742 98.4654 135.291 96.4281Z" fill="white"/>
<path fill-rule="evenodd" clip-rule="evenodd" d="M97.0587 70.1412C94.4478 66.6013 92.7555 62.4691 92.1335 58.1146C91.5115 53.7601 91.9792 49.3194 93.4947 45.1901C90.7298 43.1777 86.7595 41.9963 82.5975 41.9963H52.2199C44.382 41.9963 37.7581 46.1501 37.7581 51.069V74.4717C37.7581 76.564 40.8737 78.8929 45.3376 78.8929H47.8142V69.4636C47.8142 68.8933 48.0407 68.3464 48.4439 67.9431C48.8472 67.5399 49.3941 67.3133 49.9644 67.3133C50.5347 67.3133 51.0816 67.5399 51.4848 67.9431C51.8881 68.3464 52.1146 68.8933 52.1146 69.4636V78.8926H82.7035V69.4632C82.7035 68.893 82.93 68.3461 83.3332 67.9428C83.7365 67.5396 84.2834 67.313 84.8537 67.313C85.424 67.313 85.9709 67.5396 86.3741 67.9428C86.7774 68.3461 87.0039 68.893 87.0039 69.4632V78.8923H89.4773C93.9444 78.8923 97.0575 76.5634 97.0575 74.4711L97.0587 70.1412Z" fill="white" fill-opacity="0.1"/>
<path fill-rule="evenodd" clip-rule="evenodd" d="M67.4093 28.055C75.2684 28.055 81.6628 22.8932 81.6622 16.5516C81.6615 10.2101 75.269 5.05078 67.4096 5.05078C59.5503 5.05078 53.1568 10.2101 53.1565 16.5516C53.1562 22.8932 59.5499 28.0547 67.4093 28.055Z" fill="white" fill-opacity="0.1"/>
<path fill-rule="evenodd" clip-rule="evenodd" d="M118.495 32.0303C114.079 32.0305 109.762 33.3401 106.09 35.7937C102.419 38.2473 99.5567 41.7345 97.8668 45.8145C96.1769 49.8945 95.7347 54.384 96.5963 58.7152C97.4578 63.0465 99.5844 67.025 102.707 70.1477C105.83 73.2704 109.808 75.3971 114.139 76.2588C118.471 77.1204 122.96 76.6784 127.04 74.9886C131.12 73.2988 134.607 70.4371 137.061 66.7654C139.515 63.0936 140.825 58.7768 140.825 54.3607C140.819 48.4403 138.464 42.7642 134.278 38.5779C130.091 34.3915 124.415 32.0367 118.495 32.0303ZM104.93 49.6678C106.058 48.5406 107.588 47.9074 109.184 47.9074C110.779 47.9074 112.309 48.5406 113.438 49.6678L115.586 51.8123L123.558 43.8398C124.686 42.712 126.215 42.0784 127.81 42.0784C129.405 42.0783 130.934 42.7119 132.062 43.8396C133.19 44.9673 133.824 46.4968 133.824 48.0917C133.824 49.6866 133.19 51.2161 132.062 52.3439C129.986 54.4211 127.884 56.5441 125.853 58.5963C123.816 60.658 121.706 62.787 119.619 64.8762C118.49 66.0037 116.96 66.6369 115.364 66.6369C113.768 66.6369 112.238 66.0037 111.108 64.8762C110.11 63.8748 109.127 62.7719 108.088 61.6012C107.062 60.4398 105.999 59.2417 104.93 58.1754C103.804 57.046 103.172 55.5163 103.172 53.9216C103.172 52.3269 103.804 50.7972 104.93 49.6678Z" fill="white" fill-opacity="0.1"/>
<path fill-rule="evenodd" clip-rule="evenodd" d="M126.6 46.8828L117.105 56.3767C116.906 56.5763 116.669 56.7347 116.408 56.8428C116.147 56.9509 115.867 57.0065 115.585 57.0065C115.303 57.0065 115.023 56.9509 114.762 56.8428C114.501 56.7347 114.264 56.5763 114.064 56.3767L110.399 52.7086C110.076 52.3918 109.641 52.2153 109.188 52.2175C108.736 52.2197 108.303 52.4003 107.983 52.7202C107.663 53.0401 107.482 53.4733 107.48 53.9256C107.478 54.378 107.655 54.8129 107.971 55.1359C109.13 56.2941 110.236 57.5416 111.308 58.746C112.3 59.8673 113.241 60.9279 114.15 61.837C114.472 62.1586 114.908 62.3392 115.363 62.3392C115.819 62.3392 116.255 62.1586 116.577 61.837C118.657 59.7566 120.762 57.6314 122.796 55.576C124.829 53.5207 126.934 51.3916 129.021 49.3053C129.34 48.9838 129.518 48.549 129.518 48.0961C129.517 47.6431 129.336 47.209 129.016 46.8887C128.696 46.5684 128.262 46.388 127.809 46.3872C127.356 46.3863 126.921 46.565 126.6 46.8841V46.8828Z" fill="white" fill-opacity="0.1"/>
<path fill-rule="evenodd" clip-rule="evenodd" d="M93.9613 116.657C88.5877 120.676 77.6838 119.902 60.6408 114.285C60.3724 114.197 60.1242 114.057 59.9101 113.872C59.696 113.688 59.5203 113.463 59.3931 113.211C59.2659 112.959 59.1895 112.684 59.1685 112.402C59.1475 112.121 59.1821 111.838 59.2705 111.569C59.3588 111.301 59.4992 111.053 59.6835 110.839C59.8678 110.625 60.0925 110.449 60.3447 110.322C60.5969 110.194 60.8717 110.118 61.1534 110.097C61.4351 110.076 61.7182 110.111 61.9866 110.199C70.7494 113.087 77.0543 114.408 81.5855 114.789C84.9623 113.023 86.8615 111.111 86.9345 109.388C87.0145 107.505 84.9838 105.136 81.3613 102.887C70.9027 96.3946 51.0052 92.8398 44.5862 96.3096L25.594 107.784L39.9607 132.67L41.6473 131.579C42.8638 130.795 43.6015 130.482 45.1161 131.014C45.3059 131.077 45.5218 131.155 45.8292 131.238L73.8216 138.928L73.963 138.971C78.9095 140.701 83.2725 140.308 87.3004 137.773L87.3371 137.751L130.531 111.703C130.599 111.661 130.67 111.623 130.743 111.59C134.19 110.009 136.158 107.804 136.283 105.39C136.387 103.366 135.168 101.352 133.103 100.133C130.226 98.4304 126.452 98.6916 123.007 100.828L122.903 100.89L93.9613 116.657Z" fill="white" fill-opacity="0.1"/>
<path fill-rule="evenodd" clip-rule="evenodd" d="M38.286 138.37L19.2616 105.421C18.785 104.602 18.0042 104.005 17.0893 103.759C16.1743 103.513 15.1994 103.639 14.3768 104.109L6.58789 108.607C5.76728 109.082 5.1686 109.863 4.92323 110.779C4.67786 111.695 4.80585 112.671 5.2791 113.492L24.3004 146.441C24.7771 147.26 25.5579 147.857 26.4729 148.103C27.3879 148.349 28.3628 148.223 29.1855 147.753L36.9775 143.255C37.7982 142.78 38.3968 141.999 38.6421 141.083C38.8875 140.167 38.7594 139.191 38.286 138.37ZM18.2171 115.503C18.362 115.747 18.4569 116.018 18.4964 116.3C18.5358 116.581 18.519 116.868 18.4469 117.143C18.3749 117.418 18.2489 117.676 18.0764 117.902C17.904 118.128 17.6884 118.318 17.4421 118.46C17.1959 118.602 16.9238 118.694 16.6418 118.731C16.3598 118.767 16.0734 118.747 15.7991 118.672C15.5248 118.597 15.2682 118.468 15.044 118.293C14.8198 118.118 14.6326 117.901 14.4931 117.653L11.7206 112.85C11.5741 112.606 11.4778 112.334 11.4372 112.052C11.3966 111.77 11.4126 111.482 11.4842 111.206C11.5558 110.93 11.6817 110.671 11.8544 110.444C12.0271 110.217 12.2433 110.027 12.4903 109.884C12.7373 109.741 13.0102 109.649 13.2931 109.613C13.576 109.577 13.8633 109.598 14.1382 109.674C14.4131 109.749 14.6702 109.879 14.8944 110.056C15.1187 110.232 15.3056 110.451 15.4443 110.7L18.2171 115.503Z" fill="white" fill-opacity="0.1"/>
</svg>
