<svg width="15" height="12" viewBox="0 0 15 12" fill="none" xmlns="http://www.w3.org/2000/svg">
<path d="M6.49515 0.390416V3.35381C6.49515 4.22843 6.33052 5.14935 6.00125 6.11657C5.68227 7.0735 5.22953 7.99441 4.64303 8.87932C4.05652 9.76422 3.36712 10.5256 2.57482 11.1636L0.290534 9.52756C0.897619 8.64266 1.42239 7.70116 1.86484 6.70307C2.31758 5.70498 2.54395 4.604 2.54395 3.40012V0.390416H6.49515ZM14.3512 0.390416V3.35381C14.3512 4.22843 14.1866 5.14935 13.8573 6.11657C13.5384 7.0735 13.0856 7.99441 12.4991 8.87932C11.9126 9.76422 11.2232 10.5256 10.4309 11.1636L8.14663 9.52756C8.75371 8.64266 9.27848 7.70116 9.72093 6.70307C10.1737 5.70498 10.4 4.604 10.4 3.40012V0.390416H14.3512Z" fill="#B30000" fill-opacity="0.4"/>
</svg>
