<svg width="140" height="255" viewBox="0 0 140 255" fill="none" xmlns="http://www.w3.org/2000/svg">
<path d="M14.6562 204.75V201.426L22.4225 194.235C23.083 193.596 23.637 193.021 24.0844 192.509C24.539 191.998 24.8834 191.497 25.1178 191.007C25.3522 190.51 25.4694 189.974 25.4694 189.398C25.4694 188.759 25.3238 188.209 25.0326 187.747C24.7414 187.278 24.3437 186.92 23.8394 186.671C23.3351 186.415 22.7634 186.288 22.1242 186.288C21.4566 186.288 20.8742 186.423 20.377 186.692C19.8799 186.962 19.4964 187.349 19.2265 187.854C18.9566 188.358 18.8216 188.958 18.8216 189.654H14.4431C14.4431 188.227 14.7662 186.987 15.4126 185.936C16.0589 184.885 16.9644 184.072 18.1292 183.496C19.2939 182.921 20.6363 182.634 22.1562 182.634C23.7187 182.634 25.0787 182.911 26.2364 183.464C27.4012 184.011 28.3067 184.771 28.953 185.744C29.5993 186.717 29.9225 187.832 29.9225 189.089C29.9225 189.913 29.7591 190.727 29.4324 191.529C29.1128 192.332 28.5411 193.223 27.7172 194.203C26.8934 195.176 25.7322 196.344 24.2336 197.708L21.0482 200.83V200.979H30.2101V204.75H14.6562ZM41.5214 205.048C40.0157 205.048 38.6734 204.771 37.4944 204.217C36.3225 203.663 35.3921 202.9 34.7032 201.927C34.0143 200.954 33.6556 199.839 33.6272 198.582H38.1017C38.1514 199.427 38.5065 200.112 39.167 200.638C39.8275 201.163 40.6123 201.426 41.5214 201.426C42.2458 201.426 42.885 201.266 43.439 200.947C44.0001 200.62 44.4369 200.169 44.7494 199.594C45.069 199.011 45.2288 198.344 45.2288 197.591C45.2288 196.824 45.0654 196.149 44.7387 195.567C44.4191 194.984 43.9752 194.53 43.407 194.203C42.8389 193.876 42.189 193.71 41.4575 193.702C40.8183 193.702 40.1968 193.834 39.5931 194.097C38.9965 194.359 38.5313 194.718 38.1975 195.173L34.096 194.438L35.1294 182.932H48.4674V186.703H38.9326L38.368 192.168H38.4958C38.8794 191.629 39.4582 191.181 40.2323 190.826C41.0065 190.471 41.873 190.293 42.8318 190.293C44.1457 190.293 45.3176 190.602 46.3474 191.22C47.3772 191.838 48.1904 192.687 48.787 193.766C49.3836 194.839 49.6784 196.075 49.6713 197.474C49.6784 198.944 49.3374 200.251 48.6485 201.394C47.9667 202.531 47.0115 203.425 45.7828 204.079C44.5612 204.725 43.1407 205.048 41.5214 205.048ZM59.4085 201.426V186.341H63.2224V201.426H59.4085ZM53.7728 195.79V191.977H68.858V195.79H53.7728ZM78.8248 191.659H81.925L84.9101 197.297H85.0379L88.023 191.659H91.1231L86.3483 200.122V204.75H83.5997V200.122L78.8248 191.659ZM95.0015 204.942C93.9916 204.942 93.1222 204.737 92.3936 204.328C91.6691 203.915 91.1109 203.331 90.7188 202.577C90.3268 201.818 90.1308 200.921 90.1308 199.886C90.1308 198.876 90.3268 197.989 90.7188 197.227C91.1109 196.464 91.6627 195.869 92.3744 195.443C93.0903 195.017 93.9298 194.804 94.8928 194.804C95.5406 194.804 96.1436 194.908 96.7018 195.117C97.2643 195.322 97.7544 195.631 98.172 196.044C98.5938 196.457 98.922 196.977 99.1563 197.604C99.3907 198.226 99.5079 198.955 99.5079 199.79V200.538H91.2174V198.85H96.9447C96.9447 198.458 96.8595 198.111 96.689 197.808C96.5186 197.506 96.282 197.269 95.9795 197.099C95.6812 196.924 95.3339 196.837 94.9376 196.837C94.5242 196.837 94.1578 196.933 93.8382 197.124C93.5228 197.312 93.2757 197.565 93.0967 197.885C92.9177 198.2 92.8261 198.552 92.8218 198.94V200.544C92.8218 201.03 92.9113 201.45 93.0903 201.803C93.2735 202.157 93.5313 202.43 93.8637 202.621C94.1961 202.813 94.5903 202.909 95.0463 202.909C95.3488 202.909 95.6258 202.866 95.8772 202.781C96.1286 202.696 96.3438 202.568 96.5228 202.398C96.7018 202.227 96.8382 202.018 96.9319 201.771L99.4504 201.938C99.3225 202.543 99.0605 203.071 98.6642 203.523C98.2721 203.97 97.765 204.32 97.1428 204.571C96.5249 204.818 95.8112 204.942 95.0015 204.942ZM104.085 204.935C103.458 204.935 102.9 204.827 102.41 204.609C101.92 204.388 101.532 204.062 101.247 203.631C100.965 203.197 100.825 202.656 100.825 202.008C100.825 201.462 100.925 201.004 101.125 200.634C101.325 200.263 101.598 199.964 101.943 199.739C102.288 199.513 102.68 199.342 103.119 199.227C103.563 199.112 104.027 199.031 104.513 198.984C105.084 198.925 105.544 198.869 105.894 198.818C106.243 198.763 106.497 198.682 106.654 198.575C106.812 198.469 106.891 198.311 106.891 198.102V198.064C106.891 197.659 106.763 197.346 106.507 197.124C106.256 196.903 105.898 196.792 105.433 196.792C104.943 196.792 104.553 196.901 104.264 197.118C103.974 197.331 103.782 197.599 103.688 197.923L101.17 197.719C101.298 197.122 101.549 196.607 101.924 196.172C102.299 195.733 102.783 195.396 103.375 195.162C103.972 194.923 104.662 194.804 105.446 194.804C105.992 194.804 106.514 194.868 107.012 194.996C107.515 195.124 107.96 195.322 108.348 195.59C108.74 195.859 109.049 196.204 109.275 196.626C109.501 197.043 109.614 197.544 109.614 198.128V204.75H107.031V203.388H106.955C106.797 203.695 106.586 203.966 106.322 204.2C106.058 204.43 105.74 204.612 105.369 204.744C104.999 204.871 104.57 204.935 104.085 204.935ZM104.864 203.056C105.265 203.056 105.619 202.977 105.926 202.82C106.232 202.658 106.473 202.44 106.648 202.168C106.823 201.895 106.91 201.586 106.91 201.241V200.199C106.825 200.254 106.707 200.305 106.558 200.352C106.413 200.395 106.249 200.435 106.066 200.474C105.883 200.508 105.7 200.54 105.516 200.57C105.333 200.595 105.167 200.619 105.018 200.64C104.698 200.687 104.419 200.761 104.18 200.864C103.942 200.966 103.756 201.104 103.624 201.279C103.492 201.45 103.426 201.663 103.426 201.918C103.426 202.289 103.56 202.572 103.829 202.768C104.102 202.96 104.447 203.056 104.864 203.056ZM111.726 204.75V194.932H114.366V196.645H114.468C114.647 196.036 114.948 195.575 115.37 195.264C115.792 194.949 116.277 194.791 116.827 194.791C116.964 194.791 117.111 194.8 117.268 194.817C117.426 194.834 117.564 194.857 117.684 194.887V197.303C117.556 197.265 117.379 197.231 117.153 197.201C116.927 197.171 116.721 197.156 116.533 197.156C116.133 197.156 115.775 197.244 115.459 197.418C115.148 197.589 114.901 197.827 114.718 198.134C114.539 198.441 114.449 198.795 114.449 199.195V204.75H111.726ZM127.261 197.732L124.768 197.885C124.725 197.672 124.633 197.48 124.493 197.31C124.352 197.135 124.167 196.996 123.937 196.894C123.711 196.788 123.44 196.734 123.125 196.734C122.703 196.734 122.347 196.824 122.057 197.003C121.768 197.178 121.623 197.412 121.623 197.706C121.623 197.94 121.717 198.138 121.904 198.3C122.092 198.462 122.413 198.592 122.869 198.69L124.646 199.048C125.601 199.244 126.312 199.56 126.781 199.994C127.25 200.429 127.484 201 127.484 201.707C127.484 202.351 127.295 202.915 126.915 203.401C126.54 203.887 126.025 204.266 125.369 204.539C124.717 204.808 123.964 204.942 123.112 204.942C121.812 204.942 120.777 204.671 120.006 204.13C119.239 203.585 118.789 202.843 118.657 201.906L121.335 201.765C121.416 202.161 121.612 202.464 121.923 202.673C122.234 202.877 122.633 202.979 123.119 202.979C123.596 202.979 123.979 202.888 124.269 202.705C124.563 202.517 124.712 202.276 124.717 201.982C124.712 201.735 124.608 201.533 124.403 201.375C124.199 201.213 123.883 201.089 123.457 201.004L121.757 200.665C120.798 200.474 120.084 200.141 119.616 199.668C119.151 199.195 118.919 198.592 118.919 197.859C118.919 197.229 119.089 196.685 119.43 196.229C119.775 195.773 120.259 195.422 120.881 195.175C121.508 194.928 122.241 194.804 123.08 194.804C124.32 194.804 125.296 195.066 126.008 195.59C126.724 196.114 127.141 196.828 127.261 197.732ZM15.4221 241.942C14.4292 241.942 13.5706 241.731 12.8461 241.309C12.126 240.883 11.5699 240.29 11.1778 239.532C10.7858 238.769 10.5898 237.885 10.5898 236.879C10.5898 235.865 10.7858 234.979 11.1778 234.22C11.5699 233.457 12.126 232.865 12.8461 232.443C13.5706 232.017 14.4292 231.804 15.4221 231.804C16.415 231.804 17.2716 232.017 17.9917 232.443C18.7162 232.865 19.2744 233.457 19.6665 234.22C20.0585 234.979 20.2545 235.865 20.2545 236.879C20.2545 237.885 20.0585 238.769 19.6665 239.532C19.2744 240.29 18.7162 240.883 17.9917 241.309C17.2716 241.731 16.415 241.942 15.4221 241.942ZM15.4349 239.832C15.8866 239.832 16.2638 239.705 16.5663 239.449C16.8689 239.189 17.0969 238.835 17.2503 238.388C17.4079 237.94 17.4868 237.431 17.4868 236.86C17.4868 236.289 17.4079 235.78 17.2503 235.332C17.0969 234.885 16.8689 234.531 16.5663 234.271C16.2638 234.011 15.8866 233.881 15.4349 233.881C14.979 233.881 14.5954 234.011 14.2844 234.271C13.9775 234.531 13.7453 234.885 13.5876 235.332C13.4342 235.78 13.3575 236.289 13.3575 236.86C13.3575 237.431 13.4342 237.94 13.5876 238.388C13.7453 238.835 13.9775 239.189 14.2844 239.449C14.5954 239.705 14.979 239.832 15.4349 239.832ZM27.305 231.932V233.977H21.2453V231.932H27.305ZM22.6324 241.75V231.222C22.6324 230.511 22.7709 229.92 23.0479 229.452C23.3291 228.983 23.7126 228.631 24.1984 228.397C24.6842 228.163 25.2361 228.045 25.854 228.045C26.2716 228.045 26.653 228.077 26.9981 228.141C27.3476 228.205 27.6075 228.263 27.778 228.314L27.2922 230.359C27.1856 230.325 27.0535 230.293 26.8959 230.263C26.7425 230.234 26.5848 230.219 26.4229 230.219C26.0223 230.219 25.7432 230.312 25.5855 230.5C25.4278 230.683 25.349 230.941 25.349 231.273V241.75H22.6324ZM33.1856 241.75V228.659H42.0067V230.941H35.9534V234.06H41.5528V236.342H35.9534V239.468H42.0322V241.75H33.1856ZM46.4316 231.932L48.2341 235.364L50.0814 231.932H52.8747L50.0303 236.841L52.9514 241.75H50.1709L48.2341 238.356L46.3293 241.75H43.5168L46.4316 236.841L43.6191 231.932H46.4316ZM54.4919 245.432V231.932H57.1766V233.581H57.298C57.4173 233.317 57.5899 233.048 57.8158 232.776C58.0459 232.499 58.3442 232.268 58.7107 232.085C59.0814 231.898 59.5416 231.804 60.0914 231.804C60.8073 231.804 61.4678 231.991 62.0729 232.366C62.678 232.737 63.1617 233.298 63.5239 234.048C63.8861 234.793 64.0672 235.729 64.0672 236.854C64.0672 237.949 63.8904 238.874 63.5367 239.628C63.1872 240.378 62.71 240.947 62.1048 241.335C61.504 241.718 60.8307 241.91 60.085 241.91C59.5566 241.91 59.107 241.822 58.7362 241.648C58.3698 241.473 58.0693 241.254 57.835 240.989C57.6006 240.721 57.4216 240.45 57.298 240.178H57.2149V245.432H54.4919ZM57.1574 236.841C57.1574 237.425 57.2384 237.934 57.4003 238.369C57.5622 238.803 57.7966 239.142 58.1034 239.385C58.4102 239.624 58.7831 239.743 59.222 239.743C59.6652 239.743 60.0402 239.621 60.347 239.379C60.6539 239.131 60.8861 238.79 61.0438 238.356C61.2057 237.917 61.2867 237.412 61.2867 236.841C61.2867 236.274 61.2078 235.776 61.0502 235.345C60.8925 234.915 60.6602 234.578 60.3534 234.335C60.0466 234.092 59.6695 233.971 59.222 233.971C58.7789 233.971 58.4039 234.088 58.097 234.322C57.7945 234.557 57.5622 234.889 57.4003 235.32C57.2384 235.75 57.1574 236.257 57.1574 236.841ZM70.357 241.942C69.347 241.942 68.4777 241.737 67.749 241.328C67.0246 240.915 66.4664 240.331 66.0743 239.577C65.6823 238.818 65.4862 237.921 65.4862 236.886C65.4862 235.876 65.6823 234.989 66.0743 234.227C66.4664 233.464 67.0182 232.869 67.7298 232.443C68.4458 232.017 69.2852 231.804 70.2483 231.804C70.896 231.804 71.499 231.908 72.0573 232.117C72.6198 232.322 73.1098 232.631 73.5274 233.044C73.9493 233.457 74.2774 233.977 74.5118 234.604C74.7462 235.226 74.8634 235.955 74.8634 236.79V237.538H66.5729V235.85H72.3002C72.3002 235.458 72.2149 235.111 72.0445 234.808C71.874 234.506 71.6375 234.269 71.335 234.099C71.0367 233.924 70.6894 233.837 70.2931 233.837C69.8797 233.837 69.5132 233.933 69.1936 234.124C68.8783 234.312 68.6311 234.565 68.4521 234.885C68.2732 235.2 68.1816 235.552 68.1773 235.94V237.544C68.1773 238.03 68.2668 238.45 68.4458 238.803C68.629 239.157 68.8868 239.43 69.2192 239.621C69.5516 239.813 69.9458 239.909 70.4017 239.909C70.7043 239.909 70.9813 239.866 71.2327 239.781C71.4841 239.696 71.6993 239.568 71.8783 239.398C72.0573 239.227 72.1936 239.018 72.2874 238.771L74.8058 238.938C74.678 239.543 74.4159 240.071 74.0196 240.523C73.6276 240.97 73.1205 241.32 72.4983 241.571C71.8804 241.818 71.1666 241.942 70.357 241.942ZM76.6404 241.75V231.932H79.2803V233.645H79.3825C79.5615 233.036 79.8619 232.575 80.2838 232.264C80.7057 231.949 81.1915 231.791 81.7412 231.791C81.8776 231.791 82.0246 231.8 82.1823 231.817C82.3399 231.834 82.4784 231.857 82.5977 231.887V234.303C82.4699 234.265 82.2931 234.231 82.0672 234.201C81.8414 234.171 81.6347 234.156 81.4472 234.156C81.0466 234.156 80.6887 234.244 80.3733 234.418C80.0622 234.589 79.8151 234.827 79.6318 235.134C79.4529 235.441 79.3634 235.795 79.3634 236.195V241.75H76.6404ZM84.0056 241.75V231.932H86.7286V241.75H84.0056ZM85.3735 230.666C84.9687 230.666 84.6214 230.532 84.3316 230.263C84.0461 229.991 83.9033 229.665 83.9033 229.286C83.9033 228.911 84.0461 228.589 84.3316 228.32C84.6214 228.048 84.9687 227.911 85.3735 227.911C85.7783 227.911 86.1235 228.048 86.409 228.32C86.6988 228.589 86.8437 228.911 86.8437 229.286C86.8437 229.665 86.6988 229.991 86.409 230.263C86.1235 230.532 85.7783 230.666 85.3735 230.666ZM93.3843 241.942C92.3744 241.942 91.5051 241.737 90.7764 241.328C90.0519 240.915 89.4937 240.331 89.1017 239.577C88.7096 238.818 88.5136 237.921 88.5136 236.886C88.5136 235.876 88.7096 234.989 89.1017 234.227C89.4937 233.464 90.0455 232.869 90.7572 232.443C91.4731 232.017 92.3126 231.804 93.2757 231.804C93.9234 231.804 94.5264 231.908 95.0846 232.117C95.6471 232.322 96.1372 232.631 96.5548 233.044C96.9767 233.457 97.3048 233.977 97.5392 234.604C97.7735 235.226 97.8907 235.955 97.8907 236.79V237.538H89.6002V235.85H95.3275C95.3275 235.458 95.2423 235.111 95.0718 234.808C94.9014 234.506 94.6649 234.269 94.3623 234.099C94.064 233.924 93.7167 233.837 93.3204 233.837C92.907 233.837 92.5406 233.933 92.221 234.124C91.9056 234.312 91.6585 234.565 91.4795 234.885C91.3005 235.2 91.2089 235.552 91.2046 235.94V237.544C91.2046 238.03 91.2941 238.45 91.4731 238.803C91.6563 239.157 91.9142 239.43 92.2465 239.621C92.5789 239.813 92.9731 239.909 93.4291 239.909C93.7316 239.909 94.0086 239.866 94.26 239.781C94.5115 239.696 94.7267 239.568 94.9056 239.398C95.0846 239.227 95.221 239.018 95.3147 238.771L97.8332 238.938C97.7053 239.543 97.4433 240.071 97.047 240.523C96.6549 240.97 96.1478 241.32 95.5257 241.571C94.9078 241.818 94.194 241.942 93.3843 241.942ZM102.391 236.074V241.75H99.6677V231.932H102.263V233.664H102.378C102.595 233.093 102.96 232.641 103.471 232.309C103.982 231.972 104.602 231.804 105.331 231.804C106.013 231.804 106.607 231.953 107.114 232.251C107.622 232.55 108.016 232.976 108.297 233.53C108.578 234.08 108.719 234.736 108.719 235.499V241.75H105.996V235.984C106 235.384 105.847 234.915 105.536 234.578C105.225 234.237 104.796 234.067 104.251 234.067C103.884 234.067 103.56 234.146 103.279 234.303C103.002 234.461 102.785 234.691 102.627 234.994C102.474 235.292 102.395 235.652 102.391 236.074ZM115.301 241.942C114.295 241.942 113.43 241.729 112.706 241.303C111.986 240.872 111.432 240.276 111.044 239.513C110.66 238.75 110.469 237.872 110.469 236.879C110.469 235.874 110.663 234.991 111.05 234.233C111.442 233.47 111.998 232.876 112.719 232.45C113.439 232.019 114.295 231.804 115.288 231.804C116.145 231.804 116.895 231.96 117.538 232.271C118.182 232.582 118.691 233.018 119.066 233.581C119.441 234.143 119.648 234.804 119.686 235.562H117.116C117.044 235.072 116.852 234.678 116.541 234.38C116.234 234.077 115.832 233.926 115.333 233.926C114.911 233.926 114.543 234.041 114.227 234.271C113.916 234.497 113.673 234.827 113.498 235.262C113.324 235.697 113.236 236.223 113.236 236.841C113.236 237.467 113.322 238 113.492 238.439C113.667 238.878 113.912 239.212 114.227 239.442C114.543 239.673 114.911 239.788 115.333 239.788C115.644 239.788 115.923 239.724 116.17 239.596C116.422 239.468 116.628 239.283 116.79 239.04C116.957 238.793 117.065 238.496 117.116 238.151H119.686C119.643 238.901 119.439 239.562 119.072 240.133C118.71 240.7 118.209 241.143 117.57 241.462C116.931 241.782 116.175 241.942 115.301 241.942ZM125.904 241.942C124.894 241.942 124.025 241.737 123.296 241.328C122.571 240.915 122.013 240.331 121.621 239.577C121.229 238.818 121.033 237.921 121.033 236.886C121.033 235.876 121.229 234.989 121.621 234.227C122.013 233.464 122.565 232.869 123.277 232.443C123.993 232.017 124.832 231.804 125.795 231.804C126.443 231.804 127.046 231.908 127.604 232.117C128.167 232.322 128.657 232.631 129.074 233.044C129.496 233.457 129.824 233.977 130.059 234.604C130.293 235.226 130.41 235.955 130.41 236.79V237.538H122.12V235.85H127.847C127.847 235.458 127.762 235.111 127.591 234.808C127.421 234.506 127.184 234.269 126.882 234.099C126.584 233.924 126.236 233.837 125.84 233.837C125.427 233.837 125.06 233.933 124.741 234.124C124.425 234.312 124.178 234.565 123.999 234.885C123.82 235.2 123.728 235.552 123.724 235.94V237.544C123.724 238.03 123.814 238.45 123.993 238.803C124.176 239.157 124.434 239.43 124.766 239.621C125.098 239.813 125.493 239.909 125.949 239.909C126.251 239.909 126.528 239.866 126.78 239.781C127.031 239.696 127.246 239.568 127.425 239.398C127.604 239.227 127.741 239.018 127.834 238.771L130.353 238.938C130.225 239.543 129.963 240.071 129.566 240.523C129.174 240.97 128.667 241.32 128.045 241.571C127.427 241.818 126.714 241.942 125.904 241.942Z" fill="white"/>
<path d="M21.4224 23.0309L25.885 32.2387L36.0081 33.6139C38.0148 33.883 38.7336 36.3643 37.3559 37.6797L29.9582 44.765L31.7851 54.8099C32.1445 56.783 30.048 58.2778 28.3109 57.3211L19.296 52.478L10.281 57.3211C8.5439 58.2479 6.35755 56.8129 6.83675 54.6604L8.63375 44.7351L1.23609 37.6498C-0.201515 36.2746 0.577187 33.8232 2.61379 33.5541L12.707 32.1789L17.1695 22.9711C18.0081 21.2072 20.5838 21.2371 21.4224 23.0309ZM22.1412 35.4674L19.296 29.5481L16.4208 35.4674C16.0913 36.155 15.4025 36.6932 14.5938 36.8127L8.09465 37.6797L12.8567 42.2238C13.3958 42.762 13.6953 43.5393 13.5456 44.3464L12.3775 50.8039L18.1279 47.7246C18.8168 47.3659 19.6853 47.3061 20.4041 47.7246L26.1845 50.8338L25.0464 44.4959C24.8667 43.7186 25.0763 42.8517 25.7053 42.2238L30.4673 37.6797L24.0281 36.8127C23.2494 36.7231 22.5006 36.2148 22.1412 35.4674ZM72.3974 1.35654L76.86 10.5644L87.013 11.9396C89.0197 12.2086 89.7385 14.69 88.3608 16.0353L80.9631 23.1205L82.7901 33.1655C83.1495 35.1386 81.053 36.6334 79.3159 35.6767L70.241 30.8336L61.226 35.6767C59.4889 36.6035 57.3026 35.1685 57.7818 33.016L59.5788 23.0907L52.1512 16.0054C50.7136 14.6302 51.4923 12.1788 53.5289 11.9097L63.6221 10.5345L68.0846 1.35654C68.9831 -0.467096 71.5289 -0.4372 72.3974 1.35654ZM73.1162 13.7931L70.241 7.87378L67.3958 13.7931C67.0663 14.4807 66.3775 15.0188 65.5688 15.1384L59.0397 16.0054L63.8018 20.5495C64.3708 21.0876 64.6404 21.8649 64.4906 22.6721L63.3225 29.1296L69.1029 26.0503C69.7918 25.6916 70.6304 25.6318 71.3791 26.0503L77.1595 29.1595L76.0214 22.8216C75.8417 22.0443 76.0513 21.1773 76.6803 20.5495L81.4423 16.0054L75.0031 15.1085C74.1944 15.0487 73.4756 14.5405 73.1162 13.7931ZM123.342 23.0309L127.805 32.2387L137.928 33.6139C139.935 33.883 140.684 36.3643 139.276 37.6797L131.878 44.765L133.705 54.8099C134.065 56.783 131.968 58.2778 130.231 57.3211L121.216 52.478L112.201 57.3211C110.464 58.2479 108.278 56.8129 108.727 54.6604L110.524 44.7351L103.126 37.6498C101.689 36.2746 102.467 33.8232 104.504 33.5541L114.597 32.1789L119.06 22.9711C119.928 21.2072 122.504 21.2371 123.342 23.0309ZM124.061 35.4674L121.216 29.5481L118.341 35.4674C118.011 36.155 117.352 36.6932 116.514 36.8127L110.015 37.6797L114.747 42.2238C115.286 42.762 115.585 43.5393 115.436 44.3464L114.268 50.8039L120.048 47.7246C120.737 47.3659 121.605 47.3061 122.324 47.7246L128.134 50.8338L126.996 44.4959C126.817 43.7186 127.026 42.8517 127.655 42.2238L132.387 37.6797L125.948 36.8127C125.169 36.7231 124.421 36.2148 124.061 35.4674ZM59.1295 84.0777C58.4706 82.9417 58.86 81.4768 59.9981 80.8191C61.1362 80.1614 62.6037 80.55 63.2626 81.6861L66.4074 87.1271L77.5788 75.976C78.5072 75.0492 80.0347 75.0492 80.9631 75.976C81.8916 76.9028 81.8916 78.4274 80.9631 79.3542L67.5755 92.7175C66.4673 93.8237 64.6104 93.5845 63.8317 92.2392L59.1295 84.0777ZM70.241 58.8159C83.2693 58.8159 93.8417 69.3691 93.8417 82.3737C93.8417 95.3783 83.2693 105.931 70.241 105.931C57.2127 105.931 46.6404 95.3783 46.6404 82.3737C46.6404 69.3691 57.2127 58.8159 70.241 58.8159ZM83.5388 69.1C76.2011 61.7756 64.281 61.7756 56.9432 69.1C49.6054 76.4244 49.6054 88.3229 56.9432 95.6473C64.281 102.972 76.2011 102.972 83.5388 95.6473C90.8766 88.293 90.8766 76.4244 83.5388 69.1ZM70.241 44.0176C91.4457 44.0176 108.637 61.1777 108.637 82.3438C108.637 90.3558 106.181 97.7998 101.958 103.958L113.429 123.779C114.537 125.633 113.01 127.725 111.033 127.426L99.2926 125.573L93.0031 133.286C91.8949 134.721 89.8284 134.482 89.0197 133.047L80.9931 119.175C73.9848 121.208 66.4673 121.208 59.4889 119.175L51.4623 133.047C50.6537 134.482 48.5871 134.721 47.479 133.286L41.1895 125.573L29.449 127.426C27.4424 127.755 26.0347 125.573 26.9931 123.869L38.5239 103.958C28.1013 88.7414 30.048 68.2629 43.1063 55.2284C50.0247 48.3226 59.6387 44.0176 70.241 44.0176ZM98.7834 107.994C95.1295 112.06 90.637 115.319 85.5455 117.531L91.4157 127.666L96.4473 121.507C97.0164 120.79 97.8849 120.52 98.7235 120.67L106.81 121.955L98.7834 107.994ZM54.9066 117.531C49.845 115.319 45.3525 112.06 41.6986 108.024L33.642 121.955L41.7286 120.67C42.5372 120.52 43.4357 120.819 44.0048 121.507L49.0364 127.666L54.9066 117.531ZM94.0214 58.6365C80.9032 45.5423 59.6087 45.5423 46.4906 58.6365C33.3725 71.7308 33.3725 92.9866 46.4906 106.081C59.6387 119.175 80.9032 119.175 94.0214 106.081C107.139 92.9866 107.139 71.7308 94.0214 58.6365Z" fill="white"/>
</svg>
