<svg width="101" height="108" viewBox="0 0 101 108" fill="none" xmlns="http://www.w3.org/2000/svg">
<path fill-rule="evenodd" clip-rule="evenodd" d="M50.3992 2.91063C23.9372 2.91063 2.40875 25.9318 2.40875 54.2285C2.40905 82.5253 23.9372 105.547 50.3989 105.547C76.8608 105.547 98.3863 82.5253 98.3863 54.2285C98.3863 25.9318 76.8608 2.91063 50.3992 2.91063ZM50.3992 107.697C22.8268 107.697 0.397522 83.7101 0.397522 54.2285C0.397824 24.7456 22.8268 0.760254 50.3989 0.760254C77.9685 0.759931 100.398 24.7459 100.398 54.2285C100.398 83.7098 77.9685 107.697 50.3992 107.697Z" fill="white"/>
<path fill-rule="evenodd" clip-rule="evenodd" d="M50.398 2.91039C30.9097 2.91039 15.0558 25.9315 15.0558 54.2283C15.0561 82.525 30.9094 105.546 50.3977 105.546C69.8836 105.546 85.737 82.525 85.737 54.2283C85.737 25.9315 69.8833 2.91039 50.398 2.91039ZM50.398 107.697C40.363 107.697 30.9487 102.091 23.8887 91.9173C16.8969 81.8362 13.0449 68.4521 13.0449 54.2283C13.0449 40.0041 16.8969 26.6197 23.8887 16.5402C30.949 6.36396 40.363 0.76001 50.3977 0.76001C60.4327 0.759687 69.8468 6.36428 76.904 16.5402C83.8988 26.6197 87.7482 40.0044 87.7482 54.2283C87.7482 68.4518 83.8985 81.8362 76.904 91.9173C69.8468 102.091 60.4324 107.697 50.398 107.697Z" fill="white"/>
<path fill-rule="evenodd" clip-rule="evenodd" d="M50.401 107.698C49.8458 107.698 49.3952 107.216 49.3952 106.622V1.83569C49.3952 1.24133 49.8455 0.760498 50.4007 0.760498C50.9559 0.760176 51.4061 1.24166 51.4061 1.83569L51.4064 106.622C51.4064 107.216 50.9559 107.698 50.401 107.698Z" fill="white"/>
<path fill-rule="evenodd" clip-rule="evenodd" d="M81.6853 14.9849H19.1142C18.5593 14.9849 18.1084 14.5031 18.1084 13.9083C18.1087 13.3136 18.559 12.8318 19.1142 12.8318H81.6853C82.2405 12.8318 82.6908 13.3139 82.6908 13.9083C82.6911 14.5028 82.2402 14.9849 81.6853 14.9849Z" fill="white"/>
<path fill-rule="evenodd" clip-rule="evenodd" d="M91.3316 26.504H9.46338C8.90817 26.504 8.45792 26.0219 8.45792 25.4275C8.45792 24.8324 8.90817 24.3506 9.46338 24.3506H91.3316C91.8868 24.3506 92.337 24.8327 92.337 25.4275C92.337 26.0219 91.8865 26.504 91.3316 26.504Z" fill="white"/>
<path fill-rule="evenodd" clip-rule="evenodd" d="M96.6668 38.0254H4.13265C3.57745 38.0254 3.12689 37.5436 3.12689 36.9492C3.12689 36.3547 3.57745 35.8723 4.13265 35.8723H96.6668C97.222 35.8723 97.6723 36.3547 97.6723 36.9492C97.6723 37.5436 97.2217 38.0257 96.6668 38.0254Z" fill="white"/>
<path fill-rule="evenodd" clip-rule="evenodd" d="M99.1012 49.5461H1.69662C1.14141 49.5461 0.690857 49.064 0.690857 48.4696C0.691159 47.8748 1.14111 47.393 1.69632 47.393L99.1012 47.3927C99.6567 47.3927 100.107 47.8751 100.107 48.4696C100.107 49.064 99.6564 49.5464 99.1012 49.5461Z" fill="white"/>
<path fill-rule="evenodd" clip-rule="evenodd" d="M99.1012 61.068H1.69662C1.14141 61.068 0.690857 60.5862 0.690857 59.9915C0.691159 59.397 1.14111 58.9152 1.69632 58.9152L99.1012 58.9149C99.6567 58.9149 100.107 59.3973 100.107 59.9915C100.107 60.5862 99.6564 61.0683 99.1012 61.068Z" fill="white"/>
<path fill-rule="evenodd" clip-rule="evenodd" d="M96.6668 72.5863H4.13265C3.57745 72.5863 3.12689 72.1045 3.12689 71.5098C3.12689 70.915 3.57745 70.4332 4.13265 70.4332H96.6668C97.222 70.4332 97.6723 70.9153 97.6723 71.5098C97.6723 72.1045 97.2217 72.5863 96.6668 72.5863Z" fill="white"/>
<path fill-rule="evenodd" clip-rule="evenodd" d="M91.332 84.1089H9.46378C8.90857 84.1089 8.45831 83.6264 8.45831 83.032C8.45831 82.4375 8.90857 81.9554 9.46378 81.9554H91.332C91.8872 81.9554 92.3374 82.4379 92.3374 83.032C92.3374 83.6264 91.8869 84.1089 91.332 84.1089Z" fill="white"/>
<path fill-rule="evenodd" clip-rule="evenodd" d="M81.6853 95.6327H19.1142C18.5593 95.6327 18.1084 95.1506 18.1084 94.5562C18.1087 93.9591 18.559 93.4796 19.1142 93.4796H81.6853C82.2405 93.4796 82.6908 93.9591 82.6908 94.5562C82.6911 95.1503 82.2402 95.633 81.6853 95.6327Z" fill="white"/>
<path fill-rule="evenodd" clip-rule="evenodd" d="M50.399 2.91039C46.1042 2.91039 41.8067 8.24699 38.6094 17.5515C35.2468 27.3314 33.3954 40.3566 33.3954 54.2283C33.3957 68.0993 35.2468 81.1251 38.6094 90.9037C41.8067 100.209 46.1039 105.546 50.3987 105.546C54.6907 105.546 58.9879 100.209 62.188 90.9037C65.5481 81.1251 67.3992 68.0996 67.3992 54.2283C67.3992 40.3569 65.5478 27.3318 62.188 17.5515C58.9882 8.24699 54.6907 2.91039 50.399 2.91039ZM50.399 107.697C45.1352 107.697 40.2774 101.996 36.7212 91.6458C33.2805 81.6346 31.3845 68.3463 31.3845 54.2283C31.3845 40.1102 33.2802 26.8213 36.7212 16.8098C40.2774 6.45974 45.1352 0.76001 50.3987 0.76001C55.6597 0.759687 60.5172 6.46006 64.0734 16.8098C67.5144 26.8209 69.4104 40.1102 69.4104 54.2283C69.4104 68.346 67.5144 81.6346 64.0734 91.6458C60.5172 101.996 55.6597 107.697 50.399 107.697Z" fill="white"/>
<rect x="29.9766" y="18.0393" width="39.7529" height="18.9298" fill="white"/>
<path d="M39.3539 21.5667H41.7515V29.5661C41.7515 30.3056 41.5853 30.9479 41.2529 31.4932C40.9243 32.0384 40.4668 32.4586 39.8804 32.7536C39.2941 33.0486 38.6125 33.1962 37.8358 33.1962C37.1449 33.1962 36.5174 33.0748 35.9535 32.832C35.3933 32.5856 34.9489 32.2121 34.6203 31.7117C34.2916 31.2075 34.1292 30.5745 34.1329 29.8126H36.5473C36.5548 30.1151 36.6164 30.3747 36.7322 30.5913C36.8517 30.8042 37.0141 30.9685 37.2195 31.0843C37.4287 31.1963 37.6752 31.2523 37.959 31.2523C38.2578 31.2523 38.5098 31.1888 38.7152 31.0618C38.9244 30.9311 39.0831 30.7407 39.1914 30.4905C39.2997 30.2402 39.3539 29.9321 39.3539 29.5661V21.5667ZM47.8239 33.0393H43.7569V21.5667H47.8575C49.0115 21.5667 50.0049 21.7963 50.8377 22.2557C51.6705 22.7113 52.311 23.3667 52.7592 24.2219C53.211 25.0772 53.437 26.1004 53.437 27.2918C53.437 28.4868 53.211 29.5139 52.7592 30.3728C52.311 31.2318 51.6668 31.8909 50.8265 32.3503C49.99 32.8096 48.9891 33.0393 47.8239 33.0393ZM46.1826 30.961H47.7231C48.4401 30.961 49.0432 30.834 49.5325 30.5801C50.0254 30.3224 50.3952 29.9247 50.6416 29.3869C50.8919 28.8454 51.017 28.147 51.017 27.2918C51.017 26.444 50.8919 25.7513 50.6416 25.2135C50.3952 24.6757 50.0273 24.2798 49.5381 24.0259C49.0488 23.7719 48.4457 23.645 47.7287 23.645H46.1826V30.961ZM55.2338 33.0393V21.5667H57.6594V26.6252H57.8107L61.9392 21.5667H64.8466L60.5892 26.7036L64.897 33.0393H61.9953L58.8526 28.3225L57.6594 29.779V33.0393H55.2338Z" fill="#851408"/>
<rect x="31.3824" y="74.3755" width="35.1557" height="8.11276" fill="white"/>
<path d="M36.2351 77.0087C36.2159 76.815 36.1335 76.6646 35.9879 76.5573C35.8422 76.4501 35.6445 76.3965 35.3949 76.3965C35.2252 76.3965 35.082 76.4205 34.9651 76.4685C34.8483 76.5149 34.7586 76.5798 34.6962 76.663C34.6354 76.7462 34.605 76.8406 34.605 76.9463C34.6018 77.0343 34.6202 77.1111 34.6602 77.1768C34.7018 77.2424 34.7586 77.2992 34.8307 77.3472C34.9027 77.3936 34.9859 77.4344 35.0804 77.4697C35.1748 77.5033 35.2756 77.5321 35.3829 77.5561L35.8246 77.6617C36.0391 77.7097 36.2359 77.7738 36.4152 77.8538C36.5945 77.9338 36.7497 78.0322 36.881 78.1491C37.0122 78.2659 37.1138 78.4036 37.1859 78.562C37.2595 78.7205 37.2971 78.9021 37.2987 79.107C37.2971 79.4079 37.2203 79.6688 37.0682 79.8897C36.9178 80.1089 36.7001 80.2794 36.4152 80.401C36.1319 80.5211 35.7902 80.5811 35.3901 80.5811C34.9931 80.5811 34.6474 80.5203 34.3529 80.3986C34.06 80.277 33.8311 80.0969 33.6663 79.8585C33.503 79.6184 33.4174 79.3215 33.4094 78.9678H34.4153C34.4265 79.1326 34.4738 79.2703 34.557 79.3807C34.6418 79.4895 34.7546 79.572 34.8955 79.628C35.0379 79.6824 35.1988 79.7096 35.3781 79.7096C35.5541 79.7096 35.707 79.684 35.8366 79.6328C35.9679 79.5816 36.0695 79.5103 36.1415 79.4191C36.2135 79.3279 36.2495 79.223 36.2495 79.1046C36.2495 78.9942 36.2167 78.9013 36.1511 78.8261C36.0871 78.7509 35.9927 78.6869 35.8678 78.634C35.7446 78.5812 35.5933 78.5332 35.4141 78.49L34.8787 78.3556C34.4641 78.2547 34.1368 78.0971 33.8968 77.8826C33.6567 77.6681 33.5374 77.3792 33.539 77.0159C33.5374 76.7182 33.6167 76.4581 33.7767 76.2356C33.9384 76.0132 34.16 75.8395 34.4417 75.7147C34.7234 75.5898 35.0435 75.5274 35.4021 75.5274C35.767 75.5274 36.0855 75.5898 36.3576 75.7147C36.6313 75.8395 36.8441 76.0132 36.9962 76.2356C37.1482 76.4581 37.2267 76.7158 37.2315 77.0087H36.2351ZM37.9979 80.5115V75.5946H39.0375V77.6233H41.1478V75.5946H42.1849V80.5115H41.1478V78.4804H39.0375V80.5115H37.9979ZM44.0816 75.5946V80.5115H43.042V75.5946H44.0816ZM44.9369 80.5115V75.5946H46.8767C47.2496 75.5946 47.5673 75.6658 47.8298 75.8083C48.0923 75.9491 48.2924 76.1452 48.43 76.3965C48.5693 76.6462 48.6389 76.9343 48.6389 77.2608C48.6389 77.5873 48.5685 77.8754 48.4276 78.1251C48.2868 78.3748 48.0827 78.5692 47.8154 78.7085C47.5497 78.8477 47.228 78.9173 46.8503 78.9173H45.6139V78.0843H46.6823C46.8823 78.0843 47.0472 78.0498 47.1768 77.981C47.3081 77.9106 47.4057 77.8138 47.4697 77.6905C47.5353 77.5657 47.5681 77.4224 47.5681 77.2608C47.5681 77.0975 47.5353 76.9551 47.4697 76.8334C47.4057 76.7102 47.3081 76.615 47.1768 76.5477C47.0456 76.4789 46.8791 76.4445 46.6774 76.4445H45.9764V80.5115H44.9369ZM49.3141 80.5115V75.5946H51.254C51.6269 75.5946 51.9446 75.6658 52.2071 75.8083C52.4696 75.9491 52.6697 76.1452 52.8073 76.3965C52.9466 76.6462 53.0162 76.9343 53.0162 77.2608C53.0162 77.5873 52.9458 77.8754 52.8049 78.1251C52.6641 78.3748 52.46 78.5692 52.1927 78.7085C51.927 78.8477 51.6053 78.9173 51.2276 78.9173H49.9912V78.0843H51.0595C51.2596 78.0843 51.4244 78.0498 51.5541 77.981C51.6853 77.9106 51.783 77.8138 51.847 77.6905C51.9126 77.5657 51.9454 77.4224 51.9454 77.2608C51.9454 77.0975 51.9126 76.9551 51.847 76.8334C51.783 76.7102 51.6853 76.615 51.5541 76.5477C51.4228 76.4789 51.2564 76.4445 51.0547 76.4445H50.3537V80.5115H49.3141ZM54.731 75.5946V80.5115H53.6914V75.5946H54.731ZM59.6988 75.5946V80.5115H58.8009L56.6618 77.4168H56.6258V80.5115H55.5862V75.5946H56.4985L58.6209 78.6869H58.6641V75.5946H59.6988ZM63.818 77.184C63.7844 77.0671 63.7372 76.9639 63.6764 76.8743C63.6155 76.783 63.5411 76.7062 63.4531 76.6438C63.3667 76.5798 63.2674 76.5309 63.1554 76.4973C63.0449 76.4637 62.9225 76.4469 62.7881 76.4469C62.5368 76.4469 62.3159 76.5093 62.1254 76.6342C61.9366 76.759 61.7893 76.9407 61.6837 77.1792C61.5781 77.416 61.5252 77.7057 61.5252 78.0482C61.5252 78.3908 61.5773 78.6821 61.6813 78.9221C61.7853 79.1622 61.9326 79.3455 62.123 79.4719C62.3135 79.5968 62.5384 79.6592 62.7977 79.6592C63.0329 79.6592 63.2338 79.6176 63.4003 79.5343C63.5683 79.4495 63.6964 79.3303 63.7844 79.1766C63.874 79.023 63.9188 78.8413 63.9188 78.6316L64.1301 78.6629H62.8625V77.8802H64.92V78.4996C64.92 78.9317 64.8287 79.3031 64.6463 79.6136C64.4638 79.9225 64.2125 80.161 63.8924 80.329C63.5723 80.4955 63.2058 80.5787 62.7929 80.5787C62.3319 80.5787 61.927 80.4771 61.5781 80.2738C61.2291 80.0689 60.957 79.7784 60.7618 79.4023C60.5681 79.0246 60.4713 78.5764 60.4713 78.0579C60.4713 77.6593 60.5289 77.304 60.6441 76.9919C60.761 76.6782 60.9242 76.4125 61.1339 76.1948C61.3436 75.9772 61.5877 75.8115 61.8662 75.6979C62.1446 75.5842 62.4463 75.5274 62.7713 75.5274C63.0497 75.5274 63.309 75.5682 63.5491 75.6498C63.7892 75.7299 64.0021 75.8435 64.1877 75.9908C64.375 76.138 64.5278 76.3133 64.6463 76.5165C64.7647 76.7182 64.8407 76.9407 64.8744 77.184H63.818Z" fill="#851408"/>
</svg>
