<svg width="264" height="57" viewBox="0 0 264 57" fill="none" xmlns="http://www.w3.org/2000/svg">
<path d="M69.0207 42.5302C69.0207 41.3941 69.168 40.3497 69.4626 39.3969C69.7601 38.4411 70.1839 37.562 70.7339 36.7595H71.6717C71.4553 37.057 71.2524 37.4237 71.063 37.8595C70.8767 38.2923 70.7129 38.7687 70.5716 39.2887C70.4304 39.8057 70.3192 40.3407 70.238 40.8937C70.1599 41.4467 70.1208 41.9922 70.1208 42.5302C70.1208 43.2456 70.1899 43.9714 70.3282 44.7078C70.4664 45.4442 70.6528 46.128 70.8872 46.7591C71.1217 47.3903 71.3831 47.9043 71.6717 48.301H70.7339C70.1839 47.4985 69.7601 46.6209 69.4626 45.6681C69.168 44.7123 69.0207 43.6664 69.0207 42.5302ZM73.7647 47.1469H72.5925L75.9828 37.9136H77.137L80.5273 47.1469H79.3551L76.596 39.3744H76.5239L73.7647 47.1469ZM74.1975 43.5401H78.9223V44.532H74.1975V43.5401ZM92.966 40.799H91.8479C91.7818 40.4774 91.6661 40.1949 91.5008 39.9514C91.3385 39.708 91.1401 39.5036 90.9057 39.3383C90.6742 39.17 90.4173 39.0437 90.1347 38.9596C89.8522 38.8754 89.5577 38.8333 89.2511 38.8333C88.6921 38.8333 88.1856 38.9746 87.7318 39.2571C87.2809 39.5397 86.9217 39.9559 86.6543 40.506C86.3898 41.056 86.2575 41.7307 86.2575 42.5302C86.2575 43.3297 86.3898 44.0045 86.6543 44.5545C86.9217 45.1045 87.2809 45.5208 87.7318 45.8033C88.1856 46.0859 88.6921 46.2271 89.2511 46.2271C89.5577 46.2271 89.8522 46.1851 90.1347 46.1009C90.4173 46.0167 90.6742 45.892 90.9057 45.7267C91.1401 45.5584 91.3385 45.3525 91.5008 45.109C91.6661 44.8626 91.7818 44.5801 91.8479 44.2615H92.966C92.8819 44.7333 92.7286 45.1556 92.5062 45.5283C92.2838 45.901 92.0072 46.2181 91.6766 46.4796C91.346 46.7381 90.9748 46.935 90.563 47.0702C90.1543 47.2055 89.717 47.2731 89.2511 47.2731C88.4636 47.2731 87.7633 47.0807 87.1502 46.696C86.537 46.3113 86.0546 45.7643 85.703 45.0549C85.3513 44.3456 85.1755 43.5041 85.1755 42.5302C85.1755 41.5564 85.3513 40.7149 85.703 40.0055C86.0546 39.2962 86.537 38.7492 87.1502 38.3645C87.7633 37.9798 88.4636 37.7874 89.2511 37.7874C89.717 37.7874 90.1543 37.855 90.563 37.9903C90.9748 38.1255 91.346 38.3239 91.6766 38.5854C92.0072 38.8439 92.2838 39.1595 92.5062 39.5321C92.7286 39.9018 92.8819 40.3241 92.966 40.799ZM97.4417 47.2911C96.8166 47.2911 96.2681 47.1423 95.7962 46.8448C95.3273 46.5472 94.9606 46.131 94.6961 45.596C94.4346 45.061 94.3039 44.4358 94.3039 43.7205C94.3039 42.9991 94.4346 42.3694 94.6961 41.8314C94.9606 41.2934 95.3273 40.8757 95.7962 40.5781C96.2681 40.2805 96.8166 40.1318 97.4417 40.1318C98.0669 40.1318 98.6139 40.2805 99.0828 40.5781C99.5547 40.8757 99.9214 41.2934 100.183 41.8314C100.447 42.3694 100.58 42.9991 100.58 43.7205C100.58 44.4358 100.447 45.061 100.183 45.596C99.9214 46.131 99.5547 46.5472 99.0828 46.8448C98.6139 47.1423 98.0669 47.2911 97.4417 47.2911ZM97.4417 46.3353C97.9166 46.3353 98.3074 46.2136 98.6139 45.9702C98.9205 45.7267 99.1474 45.4066 99.2947 45.0099C99.442 44.6131 99.5156 44.1833 99.5156 43.7205C99.5156 43.2576 99.442 42.8263 99.2947 42.4265C99.1474 42.0268 98.9205 41.7037 98.6139 41.4572C98.3074 41.2108 97.9166 41.0875 97.4417 41.0875C96.9669 41.0875 96.5761 41.2108 96.2696 41.4572C95.963 41.7037 95.7361 42.0268 95.5888 42.4265C95.4415 42.8263 95.3679 43.2576 95.3679 43.7205C95.3679 44.1833 95.4415 44.6131 95.5888 45.0099C95.7361 45.4066 95.963 45.7267 96.2696 45.9702C96.5761 46.2136 96.9669 46.3353 97.4417 46.3353ZM102.204 47.1469V40.2219H103.232V41.304H103.322C103.466 40.9343 103.699 40.6472 104.021 40.4428C104.342 40.2355 104.728 40.1318 105.179 40.1318C105.636 40.1318 106.016 40.2355 106.32 40.4428C106.627 40.6472 106.865 40.9343 107.037 41.304H107.109C107.286 40.9463 107.552 40.6623 107.907 40.4519C108.262 40.2385 108.687 40.1318 109.183 40.1318C109.802 40.1318 110.308 40.3256 110.702 40.7134C111.096 41.0981 111.293 41.6977 111.293 42.5122V47.1469H110.229V42.5122C110.229 42.0013 110.089 41.6361 109.809 41.4167C109.53 41.1973 109.201 41.0875 108.822 41.0875C108.335 41.0875 107.958 41.2348 107.69 41.5294C107.423 41.8209 107.289 42.1906 107.289 42.6384V47.1469H106.207V42.404C106.207 42.0103 106.079 41.6932 105.824 41.4527C105.569 41.2093 105.239 41.0875 104.837 41.0875C104.56 41.0875 104.302 41.1612 104.061 41.3085C103.824 41.4557 103.631 41.6601 103.484 41.9216C103.34 42.1801 103.268 42.4791 103.268 42.8188V47.1469H102.204ZM113.238 49.7437V40.2219H114.266V41.322H114.392C114.47 41.2018 114.579 41.0485 114.717 40.8621C114.858 40.6728 115.059 40.5045 115.321 40.3572C115.585 40.2069 115.943 40.1318 116.394 40.1318C116.977 40.1318 117.491 40.2775 117.936 40.5691C118.381 40.8606 118.728 41.2739 118.977 41.8089C119.227 42.3439 119.351 42.9751 119.351 43.7024C119.351 44.4358 119.227 45.0715 118.977 45.6095C118.728 46.1445 118.382 46.5593 117.94 46.8538C117.499 47.1453 116.989 47.2911 116.412 47.2911C115.967 47.2911 115.611 47.2175 115.344 47.0702C115.076 46.9199 114.87 46.7501 114.726 46.5608C114.582 46.3684 114.47 46.2091 114.392 46.0829H114.302V49.7437H113.238ZM114.284 43.6844C114.284 44.2074 114.361 44.6687 114.514 45.0685C114.667 45.4652 114.891 45.7763 115.186 46.0017C115.48 46.2241 115.841 46.3353 116.268 46.3353C116.713 46.3353 117.084 46.2181 117.381 45.9837C117.682 45.7462 117.907 45.4276 118.058 45.0279C118.211 44.6251 118.287 44.1773 118.287 43.6844C118.287 43.1975 118.212 42.7587 118.062 42.3679C117.915 41.9742 117.691 41.6631 117.39 41.4347C117.093 41.2033 116.719 41.0875 116.268 41.0875C115.835 41.0875 115.471 41.1973 115.177 41.4167C114.882 41.6331 114.66 41.9366 114.509 42.3274C114.359 42.7151 114.284 43.1674 114.284 43.6844ZM122.038 37.9136V47.1469H120.975V37.9136H122.038ZM126.891 47.2911C126.223 47.2911 125.648 47.1438 125.164 46.8493C124.683 46.5517 124.312 46.137 124.05 45.605C123.792 45.07 123.663 44.4478 123.663 43.7385C123.663 43.0292 123.792 42.404 124.05 41.863C124.312 41.319 124.676 40.8952 125.141 40.5916C125.61 40.2851 126.157 40.1318 126.782 40.1318C127.143 40.1318 127.499 40.1919 127.851 40.3121C128.203 40.4323 128.523 40.6277 128.811 40.8982C129.1 41.1657 129.33 41.5204 129.501 41.9622C129.672 42.404 129.758 42.948 129.758 43.5942V44.0451H124.42V43.1253H128.676C128.676 42.7346 128.598 42.386 128.442 42.0794C128.288 41.7728 128.069 41.5309 127.783 41.3535C127.501 41.1762 127.167 41.0875 126.782 41.0875C126.359 41.0875 125.992 41.1927 125.682 41.4031C125.376 41.6105 125.14 41.881 124.975 42.2147C124.809 42.5483 124.727 42.9059 124.727 43.2877V43.9008C124.727 44.4238 124.817 44.8671 124.997 45.2308C125.18 45.5914 125.434 45.8665 125.759 46.0558C126.084 46.2422 126.461 46.3353 126.891 46.3353C127.17 46.3353 127.423 46.2963 127.648 46.2181C127.877 46.137 128.073 46.0167 128.239 45.8574C128.404 45.6951 128.532 45.4938 128.622 45.2533L129.65 45.5419C129.542 45.8905 129.36 46.1971 129.104 46.4616C128.849 46.7231 128.533 46.9274 128.158 47.0747C127.782 47.219 127.36 47.2911 126.891 47.2911ZM134.388 40.2219V41.1236H130.799V40.2219H134.388ZM131.845 38.5628H132.909V45.1632C132.909 45.4637 132.953 45.6891 133.04 45.8394C133.13 45.9867 133.245 46.0859 133.383 46.137C133.524 46.1851 133.673 46.2091 133.829 46.2091C133.946 46.2091 134.043 46.2031 134.118 46.1911C134.193 46.176 134.253 46.164 134.298 46.155L134.514 47.1108C134.442 47.1378 134.342 47.1649 134.212 47.1919C134.083 47.222 133.919 47.237 133.721 47.237C133.42 47.237 133.126 47.1724 132.837 47.0432C132.552 46.9139 132.314 46.717 132.125 46.4526C131.939 46.1881 131.845 45.8544 131.845 45.4517V38.5628ZM138.818 47.2911C138.15 47.2911 137.575 47.1438 137.091 46.8493C136.61 46.5517 136.239 46.137 135.977 45.605C135.719 45.07 135.59 44.4478 135.59 43.7385C135.59 43.0292 135.719 42.404 135.977 41.863C136.239 41.319 136.603 40.8952 137.068 40.5916C137.537 40.2851 138.084 40.1318 138.709 40.1318C139.07 40.1318 139.426 40.1919 139.778 40.3121C140.13 40.4323 140.45 40.6277 140.738 40.8982C141.027 41.1657 141.257 41.5204 141.428 41.9622C141.599 42.404 141.685 42.948 141.685 43.5942V44.0451H136.347V43.1253H140.603C140.603 42.7346 140.525 42.386 140.369 42.0794C140.215 41.7728 139.996 41.5309 139.71 41.3535C139.428 41.1762 139.094 41.0875 138.709 41.0875C138.286 41.0875 137.919 41.1927 137.609 41.4031C137.303 41.6105 137.067 41.881 136.902 42.2147C136.736 42.5483 136.654 42.9059 136.654 43.2877V43.9008C136.654 44.4238 136.744 44.8671 136.924 45.2308C137.107 45.5914 137.361 45.8665 137.686 46.0558C138.011 46.2422 138.388 46.3353 138.818 46.3353C139.097 46.3353 139.35 46.2963 139.575 46.2181C139.804 46.137 140 46.0167 140.166 45.8574C140.331 45.6951 140.459 45.4938 140.549 45.2533L141.577 45.5419C141.469 45.8905 141.287 46.1971 141.031 46.4616C140.776 46.7231 140.46 46.9274 140.085 47.0747C139.709 47.219 139.287 47.2911 138.818 47.2911ZM147.018 47.1469V37.9136H148.137V46.155H152.429V47.1469H147.018ZM156.829 47.2911C156.204 47.2911 155.655 47.1423 155.183 46.8448C154.714 46.5472 154.348 46.131 154.083 45.596C153.822 45.061 153.691 44.4358 153.691 43.7205C153.691 42.9991 153.822 42.3694 154.083 41.8314C154.348 41.2934 154.714 40.8757 155.183 40.5781C155.655 40.2805 156.204 40.1318 156.829 40.1318C157.454 40.1318 158.001 40.2805 158.47 40.5781C158.942 40.8757 159.308 41.2934 159.57 41.8314C159.834 42.3694 159.967 42.9991 159.967 43.7205C159.967 44.4358 159.834 45.061 159.57 45.596C159.308 46.131 158.942 46.5472 158.47 46.8448C158.001 47.1423 157.454 47.2911 156.829 47.2911ZM156.829 46.3353C157.304 46.3353 157.694 46.2136 158.001 45.9702C158.308 45.7267 158.534 45.4066 158.682 45.0099C158.829 44.6131 158.903 44.1833 158.903 43.7205C158.903 43.2576 158.829 42.8263 158.682 42.4265C158.534 42.0268 158.308 41.7037 158.001 41.4572C157.694 41.2108 157.304 41.0875 156.829 41.0875C156.354 41.0875 155.963 41.2108 155.657 41.4572C155.35 41.7037 155.123 42.0268 154.976 42.4265C154.829 42.8263 154.755 43.2576 154.755 43.7205C154.755 44.1833 154.829 44.6131 154.976 45.0099C155.123 45.4066 155.35 45.7267 155.657 45.9702C155.963 46.2136 156.354 46.3353 156.829 46.3353ZM164.386 49.888C163.872 49.888 163.43 49.8218 163.061 49.6896C162.691 49.5604 162.383 49.389 162.136 49.1756C161.893 48.9652 161.699 48.7398 161.555 48.4994L162.402 47.9043C162.498 48.0305 162.62 48.1748 162.767 48.3371C162.915 48.5024 163.116 48.6451 163.372 48.7654C163.63 48.8886 163.968 48.9502 164.386 48.9502C164.945 48.9502 165.406 48.815 165.77 48.5445C166.134 48.274 166.316 47.8502 166.316 47.2731V45.8665H166.225C166.147 45.9927 166.036 46.149 165.892 46.3353C165.751 46.5187 165.546 46.6825 165.279 46.8268C165.014 46.968 164.656 47.0386 164.206 47.0386C163.647 47.0386 163.145 46.9064 162.7 46.6419C162.258 46.3774 161.908 45.9927 161.649 45.4878C161.394 44.9828 161.266 44.3697 161.266 43.6483C161.266 42.939 161.391 42.3214 161.64 41.7954C161.89 41.2664 162.237 40.8576 162.682 40.5691C163.127 40.2775 163.641 40.1318 164.224 40.1318C164.675 40.1318 165.032 40.2069 165.297 40.3572C165.564 40.5045 165.769 40.6728 165.91 40.8621C166.054 41.0485 166.165 41.2018 166.243 41.322H166.352V40.2219H167.38V47.3452C167.38 47.9403 167.244 48.4242 166.974 48.7969C166.706 49.1726 166.346 49.4476 165.892 49.622C165.441 49.7993 164.939 49.888 164.386 49.888ZM164.35 46.0829C164.777 46.0829 165.137 45.9852 165.432 45.7898C165.726 45.5945 165.95 45.3134 166.104 44.9467C166.257 44.5801 166.334 44.1412 166.334 43.6303C166.334 43.1314 166.258 42.691 166.108 42.3093C165.958 41.9276 165.735 41.6286 165.441 41.4122C165.146 41.1958 164.783 41.0875 164.35 41.0875C163.899 41.0875 163.523 41.2018 163.223 41.4302C162.925 41.6586 162.701 41.9652 162.551 42.3499C162.404 42.7346 162.33 43.1614 162.33 43.6303C162.33 44.1112 162.405 44.5365 162.556 44.9062C162.709 45.2729 162.934 45.5614 163.232 45.7718C163.532 45.9792 163.905 46.0829 164.35 46.0829ZM169.327 47.1469V40.2219H170.391V47.1469H169.327ZM169.868 39.0678C169.661 39.0678 169.482 38.9972 169.332 38.8559C169.184 38.7146 169.111 38.5448 169.111 38.3464C169.111 38.1481 169.184 37.9783 169.332 37.837C169.482 37.6957 169.661 37.6251 169.868 37.6251C170.076 37.6251 170.253 37.6957 170.4 37.837C170.55 37.9783 170.626 38.1481 170.626 38.3464C170.626 38.5448 170.55 38.7146 170.4 38.8559C170.253 38.9972 170.076 39.0678 169.868 39.0678ZM177.245 41.7728L176.289 42.0433C176.229 41.884 176.141 41.7292 176.023 41.579C175.909 41.4257 175.753 41.2994 175.554 41.2003C175.356 41.1011 175.102 41.0515 174.793 41.0515C174.369 41.0515 174.016 41.1492 173.733 41.3445C173.454 41.5369 173.314 41.7818 173.314 42.0794C173.314 42.3439 173.41 42.5528 173.602 42.7061C173.795 42.8594 174.095 42.9871 174.504 43.0893L175.532 43.3418C176.151 43.492 176.612 43.722 176.916 44.0315C177.22 44.3381 177.371 44.7333 177.371 45.2173C177.371 45.614 177.257 45.9687 177.029 46.2812C176.803 46.5938 176.488 46.8403 176.082 47.0206C175.676 47.201 175.204 47.2911 174.666 47.2911C173.96 47.2911 173.375 47.1378 172.913 46.8313C172.45 46.5247 172.157 46.0769 172.033 45.4878L173.043 45.2353C173.139 45.608 173.321 45.8875 173.589 46.0738C173.859 46.2602 174.212 46.3534 174.648 46.3534C175.144 46.3534 175.538 46.2482 175.829 46.0378C176.124 45.8244 176.271 45.5689 176.271 45.2714C176.271 45.0309 176.187 44.8295 176.019 44.6672C175.85 44.5019 175.592 44.3787 175.243 44.2975L174.089 44.027C173.455 43.8768 172.989 43.6438 172.692 43.3282C172.397 43.0096 172.25 42.6114 172.25 42.1335C172.25 41.7428 172.359 41.3971 172.579 41.0966C172.801 40.796 173.103 40.5601 173.485 40.3887C173.87 40.2174 174.306 40.1318 174.793 40.1318C175.478 40.1318 176.016 40.282 176.407 40.5826C176.8 40.8832 177.08 41.2799 177.245 41.7728ZM181.985 40.2219V41.1236H178.396V40.2219H181.985ZM179.442 38.5628H180.506V45.1632C180.506 45.4637 180.549 45.6891 180.637 45.8394C180.727 45.9867 180.841 46.0859 180.979 46.137C181.12 46.1851 181.269 46.2091 181.426 46.2091C181.543 46.2091 181.639 46.2031 181.714 46.1911C181.789 46.176 181.849 46.164 181.894 46.155L182.111 47.1108C182.039 47.1378 181.938 47.1649 181.809 47.1919C181.679 47.222 181.516 47.237 181.317 47.237C181.017 47.237 180.722 47.1724 180.434 47.0432C180.148 46.9139 179.911 46.717 179.721 46.4526C179.535 46.1881 179.442 45.8544 179.442 45.4517V38.5628ZM183.585 47.1469V40.2219H184.649V47.1469H183.585ZM184.126 39.0678C183.919 39.0678 183.74 38.9972 183.59 38.8559C183.442 38.7146 183.369 38.5448 183.369 38.3464C183.369 38.1481 183.442 37.9783 183.59 37.837C183.74 37.6957 183.919 37.6251 184.126 37.6251C184.333 37.6251 184.511 37.6957 184.658 37.837C184.808 37.9783 184.883 38.1481 184.883 38.3464C184.883 38.5448 184.808 38.7146 184.658 38.8559C184.511 38.9972 184.333 39.0678 184.126 39.0678ZM189.411 47.2911C188.762 47.2911 188.203 47.1378 187.734 46.8313C187.265 46.5247 186.904 46.1024 186.652 45.5644C186.399 45.0264 186.273 44.4117 186.273 43.7205C186.273 43.0171 186.402 42.3965 186.661 41.8585C186.922 41.3175 187.286 40.8952 187.752 40.5916C188.221 40.2851 188.768 40.1318 189.393 40.1318C189.88 40.1318 190.319 40.2219 190.709 40.4023C191.1 40.5826 191.42 40.8351 191.67 41.1597C191.919 41.4843 192.074 41.863 192.134 42.2958H191.07C190.989 41.9802 190.809 41.7007 190.529 41.4572C190.253 41.2108 189.88 41.0875 189.411 41.0875C188.996 41.0875 188.633 41.1958 188.32 41.4122C188.01 41.6256 187.768 41.9276 187.594 42.3183C187.423 42.7061 187.337 43.1614 187.337 43.6844C187.337 44.2194 187.421 44.6853 187.59 45.082C187.761 45.4787 188.001 45.7868 188.311 46.0062C188.624 46.2256 188.99 46.3353 189.411 46.3353C189.688 46.3353 189.939 46.2872 190.164 46.1911C190.389 46.0949 190.58 45.9566 190.736 45.7763C190.893 45.596 191.004 45.3796 191.07 45.1271H192.134C192.074 45.5358 191.925 45.904 191.688 46.2316C191.453 46.5562 191.142 46.8147 190.755 47.0071C190.37 47.1964 189.922 47.2911 189.411 47.2911ZM198.595 41.7728L197.639 42.0433C197.579 41.884 197.49 41.7292 197.373 41.579C197.259 41.4257 197.102 41.2994 196.904 41.2003C196.706 41.1011 196.452 41.0515 196.142 41.0515C195.718 41.0515 195.365 41.1492 195.083 41.3445C194.803 41.5369 194.663 41.7818 194.663 42.0794C194.663 42.3439 194.76 42.5528 194.952 42.7061C195.144 42.8594 195.445 42.9871 195.854 43.0893L196.881 43.3418C197.501 43.492 197.962 43.722 198.266 44.0315C198.569 44.3381 198.721 44.7333 198.721 45.2173C198.721 45.614 198.607 45.9687 198.378 46.2812C198.153 46.5938 197.837 46.8403 197.431 47.0206C197.026 47.201 196.554 47.2911 196.016 47.2911C195.31 47.2911 194.725 47.1378 194.262 46.8313C193.799 46.5247 193.506 46.0769 193.383 45.4878L194.393 45.2353C194.489 45.608 194.671 45.8875 194.938 46.0738C195.209 46.2602 195.562 46.3534 195.998 46.3534C196.494 46.3534 196.887 46.2482 197.179 46.0378C197.474 45.8244 197.621 45.5689 197.621 45.2714C197.621 45.0309 197.537 44.8295 197.368 44.6672C197.2 44.5019 196.942 44.3787 196.593 44.2975L195.439 44.027C194.805 43.8768 194.339 43.6438 194.041 43.3282C193.747 43.0096 193.599 42.6114 193.599 42.1335C193.599 41.7428 193.709 41.3971 193.928 41.0966C194.151 40.796 194.453 40.5601 194.835 40.3887C195.219 40.2174 195.655 40.1318 196.142 40.1318C196.827 40.1318 197.365 40.282 197.756 40.5826C198.15 40.8832 198.429 41.2799 198.595 41.7728ZM209.087 40.2219C209.033 39.7651 208.813 39.4104 208.429 39.158C208.044 38.9055 207.572 38.7792 207.013 38.7792C206.604 38.7792 206.247 38.8454 205.94 38.9776C205.636 39.1099 205.399 39.2917 205.228 39.5231C205.059 39.7546 204.975 40.0176 204.975 40.3121C204.975 40.5586 205.034 40.7705 205.151 40.9478C205.271 41.1221 205.425 41.2679 205.611 41.3851C205.797 41.4993 205.993 41.594 206.197 41.6691C206.401 41.7413 206.589 41.7999 206.761 41.845L207.698 42.0974C207.939 42.1606 208.206 42.2477 208.501 42.3589C208.798 42.4701 209.082 42.6219 209.353 42.8143C209.626 43.0036 209.852 43.2471 210.029 43.5446C210.206 43.8422 210.295 44.2074 210.295 44.6402C210.295 45.1391 210.164 45.5899 209.903 45.9927C209.644 46.3954 209.266 46.7155 208.767 46.953C208.271 47.1904 207.668 47.3092 206.959 47.3092C206.298 47.3092 205.725 47.2025 205.241 46.9891C204.76 46.7757 204.382 46.4781 204.105 46.0964C203.832 45.7147 203.677 45.2714 203.641 44.7664H204.795C204.825 45.1151 204.942 45.4036 205.146 45.632C205.354 45.8574 205.615 46.0258 205.931 46.137C206.25 46.2452 206.592 46.2993 206.959 46.2993C207.386 46.2993 207.769 46.2301 208.109 46.0919C208.448 45.9506 208.717 45.7553 208.916 45.5058C209.114 45.2533 209.213 44.9588 209.213 44.6221C209.213 44.3156 209.127 44.0661 208.956 43.8737C208.785 43.6814 208.559 43.5251 208.28 43.4049C208 43.2846 207.698 43.1795 207.374 43.0893L206.238 42.7647C205.516 42.5573 204.945 42.2612 204.524 41.8765C204.104 41.4918 203.893 40.9884 203.893 40.3662C203.893 39.8492 204.033 39.3984 204.312 39.0137C204.595 38.626 204.974 38.3254 205.449 38.112C205.926 37.8956 206.46 37.7874 207.049 37.7874C207.644 37.7874 208.173 37.8941 208.636 38.1075C209.099 38.3179 209.466 38.6064 209.736 38.9731C210.01 39.3398 210.154 39.7561 210.169 40.2219H209.087ZM214.802 47.2911C214.177 47.2911 213.629 47.1423 213.157 46.8448C212.688 46.5472 212.321 46.131 212.057 45.596C211.795 45.061 211.665 44.4358 211.665 43.7205C211.665 42.9991 211.795 42.3694 212.057 41.8314C212.321 41.2934 212.688 40.8757 213.157 40.5781C213.629 40.2805 214.177 40.1318 214.802 40.1318C215.428 40.1318 215.975 40.2805 216.443 40.5781C216.915 40.8757 217.282 41.2934 217.543 41.8314C217.808 42.3694 217.94 42.9991 217.94 43.7205C217.94 44.4358 217.808 45.061 217.543 45.596C217.282 46.131 216.915 46.5472 216.443 46.8448C215.975 47.1423 215.428 47.2911 214.802 47.2911ZM214.802 46.3353C215.277 46.3353 215.668 46.2136 215.975 45.9702C216.281 45.7267 216.508 45.4066 216.655 45.0099C216.803 44.6131 216.876 44.1833 216.876 43.7205C216.876 43.2576 216.803 42.8263 216.655 42.4265C216.508 42.0268 216.281 41.7037 215.975 41.4572C215.668 41.2108 215.277 41.0875 214.802 41.0875C214.327 41.0875 213.937 41.2108 213.63 41.4572C213.324 41.7037 213.097 42.0268 212.949 42.4265C212.802 42.8263 212.729 43.2576 212.729 43.7205C212.729 44.1833 212.802 44.6131 212.949 45.0099C213.097 45.4066 213.324 45.7267 213.63 45.9702C213.937 46.2136 214.327 46.3353 214.802 46.3353ZM220.628 37.9136V47.1469H219.564V37.9136H220.628ZM226.941 44.3156V40.2219H228.005V47.1469H226.941V45.9747H226.869C226.707 46.3263 226.454 46.6254 226.112 46.8718C225.769 47.1153 225.336 47.237 224.813 47.237C224.38 47.237 223.996 47.1423 223.659 46.953C223.323 46.7606 223.058 46.4721 222.866 46.0874C222.673 45.6997 222.577 45.2112 222.577 44.6221V40.2219H223.641V44.55C223.641 45.0549 223.782 45.4577 224.065 45.7583C224.35 46.0588 224.714 46.2091 225.156 46.2091C225.42 46.2091 225.689 46.1415 225.963 46.0062C226.239 45.871 226.471 45.6636 226.657 45.3841C226.847 45.1045 226.941 44.7484 226.941 44.3156ZM232.966 40.2219V41.1236H229.377V40.2219H232.966ZM230.423 38.5628H231.487V45.1632C231.487 45.4637 231.53 45.6891 231.618 45.8394C231.708 45.9867 231.822 46.0859 231.96 46.137C232.102 46.1851 232.25 46.2091 232.407 46.2091C232.524 46.2091 232.62 46.2031 232.695 46.1911C232.77 46.176 232.83 46.164 232.875 46.155L233.092 47.1108C233.02 47.1378 232.919 47.1649 232.79 47.1919C232.661 47.222 232.497 47.237 232.298 47.237C231.998 47.237 231.703 47.1724 231.415 47.0432C231.129 46.9139 230.892 46.717 230.702 46.4526C230.516 46.1881 230.423 45.8544 230.423 45.4517V38.5628ZM234.566 47.1469V40.2219H235.63V47.1469H234.566ZM235.107 39.0678C234.9 39.0678 234.721 38.9972 234.571 38.8559C234.423 38.7146 234.35 38.5448 234.35 38.3464C234.35 38.1481 234.423 37.9783 234.571 37.837C234.721 37.6957 234.9 37.6251 235.107 37.6251C235.315 37.6251 235.492 37.6957 235.639 37.837C235.789 37.9783 235.865 38.1481 235.865 38.3464C235.865 38.5448 235.789 38.7146 235.639 38.8559C235.492 38.9972 235.315 39.0678 235.107 39.0678ZM240.392 47.2911C239.767 47.2911 239.218 47.1423 238.747 46.8448C238.278 46.5472 237.911 46.131 237.646 45.596C237.385 45.061 237.254 44.4358 237.254 43.7205C237.254 42.9991 237.385 42.3694 237.646 41.8314C237.911 41.2934 238.278 40.8757 238.747 40.5781C239.218 40.2805 239.767 40.1318 240.392 40.1318C241.017 40.1318 241.564 40.2805 242.033 40.5781C242.505 40.8757 242.872 41.2934 243.133 41.8314C243.398 42.3694 243.53 42.9991 243.53 43.7205C243.53 44.4358 243.398 45.061 243.133 45.596C242.872 46.131 242.505 46.5472 242.033 46.8448C241.564 47.1423 241.017 47.2911 240.392 47.2911ZM240.392 46.3353C240.867 46.3353 241.258 46.2136 241.564 45.9702C241.871 45.7267 242.098 45.4066 242.245 45.0099C242.392 44.6131 242.466 44.1833 242.466 43.7205C242.466 43.2576 242.392 42.8263 242.245 42.4265C242.098 42.0268 241.871 41.7037 241.564 41.4572C241.258 41.2108 240.867 41.0875 240.392 41.0875C239.917 41.0875 239.526 41.2108 239.22 41.4572C238.913 41.7037 238.686 42.0268 238.539 42.4265C238.392 42.8263 238.318 43.2576 238.318 43.7205C238.318 44.1833 238.392 44.6131 238.539 45.0099C238.686 45.4066 238.913 45.7267 239.22 45.9702C239.526 46.2136 239.917 46.3353 240.392 46.3353ZM246.218 42.9811V47.1469H245.154V40.2219H246.182V41.304H246.272C246.435 40.9523 246.681 40.6698 247.012 40.4564C247.342 40.24 247.769 40.1318 248.292 40.1318C248.761 40.1318 249.171 40.2279 249.523 40.4203C249.874 40.6097 250.148 40.8982 250.343 41.2859C250.539 41.6706 250.636 42.1575 250.636 42.7466V47.1469H249.572V42.8188C249.572 42.2748 249.431 41.851 249.149 41.5474C248.866 41.2408 248.478 41.0875 247.985 41.0875C247.646 41.0875 247.342 41.1612 247.075 41.3085C246.81 41.4557 246.601 41.6706 246.448 41.9532C246.295 42.2357 246.218 42.5783 246.218 42.9811ZM257.486 41.7728L256.53 42.0433C256.47 41.884 256.381 41.7292 256.264 41.579C256.15 41.4257 255.993 41.2994 255.795 41.2003C255.597 41.1011 255.343 41.0515 255.033 41.0515C254.609 41.0515 254.256 41.1492 253.974 41.3445C253.694 41.5369 253.554 41.7818 253.554 42.0794C253.554 42.3439 253.651 42.5528 253.843 42.7061C254.035 42.8594 254.336 42.9871 254.745 43.0893L255.773 43.3418C256.392 43.492 256.853 43.722 257.157 44.0315C257.46 44.3381 257.612 44.7333 257.612 45.2173C257.612 45.614 257.498 45.9687 257.269 46.2812C257.044 46.5938 256.728 46.8403 256.323 47.0206C255.917 47.201 255.445 47.2911 254.907 47.2911C254.201 47.2911 253.616 47.1378 253.153 46.8313C252.69 46.5247 252.397 46.0769 252.274 45.4878L253.284 45.2353C253.38 45.608 253.562 45.8875 253.829 46.0738C254.1 46.2602 254.453 46.3534 254.889 46.3534C255.385 46.3534 255.779 46.2482 256.07 46.0378C256.365 45.8244 256.512 45.5689 256.512 45.2714C256.512 45.0309 256.428 44.8295 256.259 44.6672C256.091 44.5019 255.833 44.3787 255.484 44.2975L254.33 44.027C253.696 43.8768 253.23 43.6438 252.932 43.3282C252.638 43.0096 252.49 42.6114 252.49 42.1335C252.49 41.7428 252.6 41.3971 252.82 41.0966C253.042 40.796 253.344 40.5601 253.726 40.3887C254.11 40.2174 254.546 40.1318 255.033 40.1318C255.718 40.1318 256.256 40.282 256.647 40.5826C257.041 40.8832 257.32 41.2799 257.486 41.7728ZM261.486 43.2516C261.486 44.3877 261.337 45.4337 261.039 46.3894C260.745 47.3422 260.323 48.2199 259.773 49.0223H258.835C259.051 48.7248 259.253 48.3581 259.439 47.9223C259.628 47.4895 259.794 47.0146 259.935 46.4976C260.076 45.9777 260.186 45.4412 260.264 44.8881C260.345 44.3321 260.386 43.7866 260.386 43.2516C260.386 42.5363 260.317 41.8104 260.178 41.074C260.04 40.3377 259.854 39.6539 259.619 39.0227C259.385 38.3915 259.123 37.8776 258.835 37.4808H259.773C260.323 38.2833 260.745 39.1625 261.039 40.1182C261.337 41.071 261.486 42.1155 261.486 43.2516Z" fill="black"/>
<path fill-rule="evenodd" clip-rule="evenodd" d="M26.3984 1.13542C12.4278 1.13542 1.06183 13.2894 1.06183 28.2287C1.06199 43.168 12.4278 55.3222 26.3982 55.3222C40.3689 55.3222 51.7332 43.168 51.7332 28.2287C51.7332 13.2894 40.3689 1.13542 26.3984 1.13542ZM26.3984 56.4577C11.8415 56.4577 0 43.7936 0 28.2287C0.000159218 12.6632 11.8415 0.000122072 26.3982 0.000122072C40.9537 -4.8188e-05 52.7951 12.6634 52.7951 28.2287C52.7951 43.7934 40.9537 56.4577 26.3984 56.4577Z" fill="black"/>
<path fill-rule="evenodd" clip-rule="evenodd" d="M26.3978 1.13529C16.109 1.13529 7.73885 13.2893 7.73885 28.2286C7.73901 43.1679 16.1088 55.3221 26.3977 55.3221C36.6852 55.3221 45.055 43.1679 45.055 28.2286C45.055 13.2893 36.6851 1.13529 26.3978 1.13529ZM26.3978 56.4575C21.0998 56.4575 16.1295 53.4977 12.4022 48.1266C8.71088 42.8042 6.67719 35.7381 6.67719 28.2286C6.67719 20.7189 8.71088 13.6526 12.4022 8.33116C16.1297 2.95861 21.0998 7.34725e-09 26.3977 7.34725e-09C31.6956 -0.000170253 36.6658 2.95878 40.3917 8.33116C44.0846 13.6526 46.1169 20.7191 46.1169 28.2286C46.1169 35.7379 44.0844 42.8042 40.3917 48.1266C36.6658 53.4976 31.6955 56.4575 26.3978 56.4575Z" fill="black"/>
<path fill-rule="evenodd" clip-rule="evenodd" d="M26.3993 56.4578C26.1062 56.4578 25.8683 56.2034 25.8683 55.89V0.567891C25.8683 0.254102 26.1061 0.000244226 26.3992 0.000244226C26.6923 7.39661e-05 26.93 0.254272 26.93 0.567891L26.9302 55.89C26.9302 56.2034 26.6923 56.4578 26.3993 56.4578Z" fill="black"/>
<path fill-rule="evenodd" clip-rule="evenodd" d="M42.9159 7.51014H9.88146C9.5885 7.51014 9.35046 7.25579 9.35046 6.94178C9.35062 6.62776 9.58834 6.37341 9.88146 6.37341H42.9159C43.209 6.37341 43.4468 6.62793 43.4468 6.94178C43.4469 7.25562 43.2089 7.51014 42.9159 7.51014Z" fill="black"/>
<path fill-rule="evenodd" clip-rule="evenodd" d="M48.0087 13.5916H4.78633C4.49321 13.5916 4.25549 13.3371 4.25549 13.0232C4.25549 12.7091 4.49321 12.4547 4.78633 12.4547H48.0087C48.3018 12.4547 48.5395 12.7092 48.5395 13.0232C48.5395 13.3371 48.3017 13.5916 48.0087 13.5916Z" fill="black"/>
<path fill-rule="evenodd" clip-rule="evenodd" d="M50.8254 19.6743H1.97197C1.67885 19.6743 1.44098 19.42 1.44098 19.1061C1.44098 18.7923 1.67885 18.5376 1.97197 18.5376H50.8254C51.1185 18.5376 51.3563 18.7923 51.3563 19.1061C51.3563 19.42 51.1184 19.6745 50.8254 19.6743Z" fill="black"/>
<path fill-rule="evenodd" clip-rule="evenodd" d="M52.1107 25.7566H0.68587C0.392749 25.7566 0.154877 25.5021 0.154877 25.1883C0.155036 24.8743 0.39259 24.6199 0.685711 24.6199L52.1107 24.6198C52.404 24.6198 52.6415 24.8744 52.6415 25.1883C52.6417 25.5021 52.4038 25.7568 52.1107 25.7566Z" fill="black"/>
<path fill-rule="evenodd" clip-rule="evenodd" d="M52.1107 31.8396H0.68587C0.392749 31.8396 0.154877 31.5853 0.154877 31.2712C0.155036 30.9574 0.39259 30.7031 0.685711 30.7031L52.1107 30.7029C52.404 30.7029 52.6415 30.9576 52.6415 31.2712C52.6417 31.5853 52.4038 31.8398 52.1107 31.8396Z" fill="black"/>
<path fill-rule="evenodd" clip-rule="evenodd" d="M50.8254 37.9208H1.97197C1.67885 37.9208 1.44098 37.6664 1.44098 37.3524C1.44098 37.0384 1.67885 36.7841 1.97197 36.7841H50.8254C51.1185 36.7841 51.3563 37.0386 51.3563 37.3524C51.3563 37.6664 51.1184 37.9208 50.8254 37.9208Z" fill="black"/>
<path fill-rule="evenodd" clip-rule="evenodd" d="M48.0089 44.0041H4.78651C4.49339 44.0041 4.25568 43.7494 4.25568 43.4356C4.25568 43.1217 4.49339 42.8672 4.78651 42.8672H48.0089C48.302 42.8672 48.5397 43.1219 48.5397 43.4356C48.5397 43.7494 48.3018 44.0041 48.0089 44.0041Z" fill="black"/>
<path fill-rule="evenodd" clip-rule="evenodd" d="M42.9159 50.088H9.88146C9.5885 50.088 9.35046 49.8335 9.35046 49.5197C9.35062 49.2044 9.58834 48.9513 9.88146 48.9513H42.9159C43.209 48.9513 43.4468 49.2044 43.4468 49.5197C43.4469 49.8333 43.2089 50.0882 42.9159 50.088Z" fill="black"/>
<path fill-rule="evenodd" clip-rule="evenodd" d="M26.3983 1.13529C24.1308 1.13529 21.862 3.95276 20.174 8.8651C18.3987 14.0284 17.4212 20.905 17.4212 28.2286C17.4214 35.5518 18.3987 42.4288 20.174 47.5914C21.862 52.5041 24.1307 55.3221 26.3981 55.3221C28.6641 55.3221 30.9328 52.5043 32.6223 47.5914C34.3963 42.4288 35.3736 35.552 35.3736 28.2286C35.3736 20.9052 34.3961 14.0286 32.6223 8.8651C30.933 3.95276 28.6641 1.13529 26.3983 1.13529ZM26.3983 56.4575C23.6193 56.4575 21.0546 53.4475 19.1771 47.9832C17.3606 42.6978 16.3596 35.6822 16.3596 28.2286C16.3596 20.775 17.3604 13.7591 19.1771 8.4735C21.0546 3.00918 23.6193 7.22381e-09 26.3981 7.22381e-09C29.1757 -0.000170253 31.7402 3.00935 33.6177 8.4735C35.4344 13.7589 36.4354 20.775 36.4354 28.2286C36.4354 35.6821 35.4344 42.6978 33.6177 47.9832C31.7402 53.4474 29.1757 56.4575 26.3983 56.4575Z" fill="black"/>
<path d="M75.1161 7.23791L75.2658 6.73412H84.3339L84.1842 7.23791C83.3491 7.23791 82.7001 7.42853 82.2371 7.80977C81.7833 8.18193 81.402 8.90357 81.0934 9.97468L79.1191 16.8915C78.402 19.3877 77.7711 21.1351 77.2265 22.1336C76.6909 23.1321 75.9239 23.9626 74.9254 24.6253C73.936 25.2879 72.6743 25.6192 71.1402 25.6192C69.8967 25.6192 68.9708 25.3605 68.3626 24.8431C67.7544 24.3167 67.4504 23.654 67.4504 22.8552C67.4504 22.1926 67.6546 21.6434 68.0631 21.2077C68.4806 20.7629 68.9526 20.5405 69.4791 20.5405C69.9511 20.5405 70.346 20.6903 70.6637 20.9899C70.9905 21.2894 71.1539 21.657 71.1539 22.0927C71.1539 22.4921 70.9587 22.9233 70.5684 23.3862C70.3324 23.6767 70.2144 23.9082 70.2144 24.0806C70.2144 24.2259 70.2779 24.3484 70.405 24.4483C70.6228 24.6117 70.8725 24.6934 71.1539 24.6934C71.6803 24.6934 72.1705 24.3484 72.6244 23.6586C73.0782 22.9687 73.7363 21.1578 74.5987 18.2259L77.0223 9.97468C77.231 9.24851 77.3354 8.72657 77.3354 8.40886C77.3354 8.07301 77.2083 7.80977 76.9542 7.61915C76.7 7.42853 76.0873 7.30145 75.1161 7.23791ZM80.6032 25.1971L80.7666 24.6934C81.6562 24.6934 82.3279 24.5118 82.7817 24.1487C83.2447 23.7766 83.6259 23.0867 83.9255 22.0791L87.275 10.4376C87.4928 9.67513 87.6017 9.04881 87.6017 8.55864C87.6017 8.14109 87.4747 7.83246 87.2205 7.63276C86.9663 7.43307 86.3173 7.30145 85.2734 7.23791L85.4368 6.73412H91.7546C95.0859 6.73412 97.4868 7.41037 98.9573 8.76288C100.437 10.1063 101.177 11.9944 101.177 14.427C101.177 16.1426 100.836 17.5814 100.156 18.7433C98.8212 21.0126 97.2372 22.6555 95.4036 23.6722C93.57 24.6888 91.2145 25.1971 88.337 25.1971H80.6032ZM92.1358 7.82339L88.0783 21.8204C87.8877 22.4649 87.7924 22.9278 87.7924 23.2092C87.7924 23.4634 87.8968 23.6676 88.1055 23.8219C88.3778 24.0307 88.7818 24.1351 89.3173 24.1351C90.5972 24.1351 91.7409 23.7357 92.7485 22.9369C94.0375 21.9112 95.0178 20.5315 95.6895 18.7977C96.3703 17.064 96.7107 15.3438 96.7107 13.6373C96.7107 12.4028 96.5156 11.3272 96.1252 10.4104C95.7349 9.49359 95.1313 8.79465 94.3143 8.31355C93.7425 7.98677 93.0163 7.82339 92.1358 7.82339ZM118.864 25.1971H110.871L111.021 24.6934C111.547 24.648 111.938 24.4982 112.192 24.244C112.446 23.9808 112.573 23.6586 112.573 23.2773C112.573 22.8688 112.432 22.2198 112.151 21.3303L110.19 15.0398L108.243 21.7796C108.025 22.533 107.917 23.0776 107.917 23.4135C107.917 23.7947 108.066 24.1033 108.366 24.3393C108.665 24.5663 109.205 24.6843 109.986 24.6934L109.836 25.1971H100.864L101.013 24.6934C101.73 24.6752 102.266 24.5799 102.62 24.4074C102.974 24.235 103.255 23.9672 103.464 23.6041C103.673 23.241 103.923 22.5466 104.213 21.5209L107.317 10.778C107.671 9.54351 107.848 8.75834 107.848 8.42248C107.848 8.11386 107.703 7.84608 107.413 7.61915C107.131 7.39222 106.591 7.26514 105.792 7.23791L105.942 6.73412H114.629L114.479 7.23791C113.898 7.23791 113.454 7.32414 113.145 7.49661C112.737 7.73261 112.405 8.07755 112.151 8.53141C111.979 8.83095 111.743 9.52536 111.443 10.6146L110.19 15.0261L114.997 10.6146C115.932 9.75229 116.454 9.23489 116.563 9.06242C116.708 8.83549 116.78 8.59495 116.78 8.34079C116.78 8.06847 116.681 7.83246 116.481 7.63276C116.29 7.43307 115.954 7.30145 115.473 7.23791L115.623 6.73412H122.581L122.431 7.23791C121.895 7.28329 121.46 7.36045 121.124 7.46937C120.679 7.61461 120.171 7.86423 119.599 8.21824C119.027 8.56318 118.446 8.97165 117.856 9.44367L116.59 10.6146L113.662 13.2425L115.841 20.0504C116.549 22.2924 117.098 23.6177 117.488 24.0262C117.879 24.4347 118.387 24.6571 119.013 24.6934L118.864 25.1971ZM143.604 6.31203L142.065 12.5753H141.616C141.516 11.595 141.339 10.8098 141.085 10.2198C140.703 9.36651 140.195 8.70841 139.56 8.24547C138.933 7.78254 138.253 7.55107 137.517 7.55107C136.809 7.55107 136.187 7.82339 135.652 8.36802C135.125 8.90357 134.862 9.51174 134.862 10.1925C134.862 10.8642 135.044 11.5269 135.407 12.1804C135.779 12.8249 136.65 13.8007 138.021 15.1078C139.119 16.1517 139.855 17.0504 140.227 17.8038C140.608 18.5572 140.799 19.3741 140.799 20.2546C140.799 21.244 140.535 22.1563 140.009 22.9914C139.482 23.8265 138.715 24.4755 137.708 24.9384C136.709 25.3923 135.575 25.6192 134.304 25.6192C133.523 25.6192 132.538 25.5012 131.349 25.2652C130.169 25.0383 129.384 24.9248 128.994 24.9248C128.685 24.9248 128.408 24.9748 128.163 25.0746C127.918 25.1654 127.614 25.3469 127.251 25.6192H126.72L128.367 18.5799H128.885C129.003 19.8144 129.252 20.8673 129.634 21.7387C130.015 22.6011 130.56 23.2773 131.268 23.7675C131.976 24.2486 132.783 24.4891 133.691 24.4891C134.59 24.4891 135.339 24.1941 135.938 23.6041C136.546 23.005 136.85 22.3061 136.85 21.5073C136.85 20.8265 136.678 20.1729 136.333 19.5466C135.997 18.9203 135.221 18.008 134.004 16.8098C132.797 15.6116 131.962 14.5405 131.499 13.5965C131.163 12.8975 130.995 12.1532 130.995 11.3635C130.995 9.99284 131.535 8.80826 132.616 7.80977C133.696 6.81128 135.107 6.31203 136.85 6.31203C137.64 6.31203 138.679 6.48904 139.968 6.84305C140.722 7.05182 141.253 7.15621 141.561 7.15621C141.824 7.15621 142.06 7.10175 142.269 6.99282C142.478 6.87482 142.723 6.64789 143.004 6.31203H143.604ZM151.147 15.2304H157.9L159.398 10.07C159.598 9.36197 159.697 8.82188 159.697 8.44971C159.697 8.08662 159.575 7.80977 159.33 7.61915C159.085 7.42853 158.495 7.30145 157.56 7.23791L157.709 6.73412H166.887L166.737 7.23791C165.838 7.23791 165.157 7.42853 164.694 7.80977C164.231 8.19101 163.837 8.94442 163.51 10.07L160.079 21.8885C159.852 22.6601 159.738 23.2138 159.738 23.5496C159.738 23.8855 159.861 24.1396 160.106 24.3121C160.424 24.5481 161 24.6752 161.835 24.6934L161.699 25.1971H152.699L152.903 24.6934C153.775 24.6934 154.414 24.5254 154.823 24.1896C155.24 23.8446 155.622 23.0776 155.967 21.8885L157.56 16.3877H150.834L149.254 21.8885C149.027 22.6419 148.914 23.2002 148.914 23.5632C148.914 23.89 149.05 24.1578 149.322 24.3666C149.604 24.5663 150.153 24.6752 150.97 24.6934L150.834 25.1971H141.956L142.106 24.6934C142.977 24.6934 143.613 24.5254 144.012 24.1896C144.42 23.8446 144.797 23.0776 145.142 21.8885L148.573 10.07C148.773 9.3892 148.873 8.85365 148.873 8.46333C148.873 8.09116 148.75 7.80977 148.505 7.61915C148.269 7.42853 147.697 7.30145 146.79 7.23791L146.939 6.73412H155.967L155.762 7.23791C154.927 7.23791 154.296 7.41945 153.87 7.78254C153.443 8.13655 153.053 8.89903 152.699 10.07L151.147 15.2304ZM168.412 7.23791L168.561 6.73412H177.575L177.398 7.23791C176.581 7.23791 175.955 7.41945 175.519 7.78254C175.092 8.14563 174.716 8.90357 174.389 10.0564L171.012 21.8749C170.767 22.71 170.644 23.2682 170.644 23.5496C170.644 23.8764 170.772 24.1306 171.026 24.3121C171.353 24.5481 171.97 24.6752 172.877 24.6934L172.741 25.1971H163.578L163.728 24.6934C164.644 24.6934 165.316 24.5209 165.743 24.176C166.169 23.8219 166.555 23.0549 166.9 21.8749L170.304 10.0564C170.513 9.3302 170.617 8.78103 170.617 8.40886C170.617 8.07301 170.49 7.80977 170.236 7.61915C169.982 7.42853 169.374 7.30145 168.412 7.23791ZM183.334 16.7145L181.837 21.8613C181.628 22.5874 181.524 23.1003 181.524 23.3999C181.524 23.8174 181.66 24.1351 181.932 24.353C182.204 24.5617 182.822 24.6752 183.784 24.6934L183.607 25.1971H174.593L174.743 24.6934C175.505 24.6843 176.045 24.6117 176.363 24.4755C176.681 24.3303 176.944 24.0988 177.153 23.7811C177.307 23.5723 177.539 22.9324 177.847 21.8613L181.265 10.1381C181.501 9.35743 181.619 8.79918 181.619 8.46333C181.619 8.12747 181.469 7.84608 181.17 7.61915C180.87 7.38314 180.325 7.25606 179.536 7.23791L179.685 6.73412H186.997C189.003 6.73412 190.446 6.98828 191.327 7.49661C192.688 8.2954 193.369 9.49359 193.369 11.0912C193.369 12.6343 192.688 13.9959 191.327 15.1759C189.974 16.3469 188.15 16.9324 185.853 16.9324C185.163 16.9324 184.324 16.8597 183.334 16.7145ZM183.607 15.6661C184.197 15.7387 184.687 15.775 185.077 15.775C186.33 15.775 187.315 15.2031 188.032 14.0594C188.749 12.9157 189.108 11.722 189.108 10.4785C189.108 9.63429 188.876 8.98073 188.413 8.51779C187.95 8.04578 187.31 7.80977 186.493 7.80977C186.321 7.80977 186.108 7.81885 185.853 7.837L183.607 15.6661ZM200.381 16.7145L198.884 21.8613C198.675 22.5874 198.57 23.1003 198.57 23.3999C198.57 23.8174 198.707 24.1351 198.979 24.353C199.251 24.5617 199.869 24.6752 200.831 24.6934L200.654 25.1971H191.64L191.79 24.6934C192.552 24.6843 193.092 24.6117 193.41 24.4755C193.728 24.3303 193.991 24.0988 194.2 23.7811C194.354 23.5723 194.586 22.9324 194.894 21.8613L198.312 10.1381C198.548 9.35743 198.666 8.79918 198.666 8.46333C198.666 8.12747 198.516 7.84608 198.216 7.61915C197.917 7.38314 197.372 7.25606 196.583 7.23791L196.732 6.73412H204.044C206.05 6.73412 207.493 6.98828 208.374 7.49661C209.735 8.2954 210.416 9.49359 210.416 11.0912C210.416 12.6343 209.735 13.9959 208.374 15.1759C207.021 16.3469 205.197 16.9324 202.9 16.9324C202.21 16.9324 201.371 16.8597 200.381 16.7145ZM200.654 15.6661C201.244 15.7387 201.734 15.775 202.124 15.775C203.377 15.775 204.362 15.2031 205.079 14.0594C205.796 12.9157 206.154 11.722 206.154 10.4785C206.154 9.63429 205.923 8.98073 205.46 8.51779C204.997 8.04578 204.357 7.80977 203.54 7.80977C203.368 7.80977 203.154 7.81885 202.9 7.837L200.654 15.6661ZM213.371 7.23791L213.521 6.73412H222.534L222.357 7.23791C221.54 7.23791 220.914 7.41945 220.478 7.78254C220.052 8.14563 219.675 8.90357 219.348 10.0564L215.971 21.8749C215.726 22.71 215.604 23.2682 215.604 23.5496C215.604 23.8764 215.731 24.1306 215.985 24.3121C216.312 24.5481 216.929 24.6752 217.837 24.6934L217.701 25.1971H208.537L208.687 24.6934C209.604 24.6934 210.276 24.5209 210.702 24.176C211.129 23.8219 211.515 23.0549 211.86 21.8749L215.263 10.0564C215.472 9.3302 215.577 8.78103 215.577 8.40886C215.577 8.07301 215.45 7.80977 215.195 7.61915C214.941 7.42853 214.333 7.30145 213.371 7.23791ZM230.323 6.73412L236.096 19.0428L238.696 10.1108C238.832 9.62067 238.9 9.18496 238.9 8.80372C238.9 8.34986 238.755 7.98677 238.465 7.71446C238.183 7.44214 237.693 7.28329 236.994 7.23791L237.144 6.73412H242.999L242.863 7.23791C242.118 7.28329 241.501 7.49207 241.011 7.86423C240.53 8.2364 240.121 8.98527 239.786 10.1108L235.279 25.4014H234.761L227.354 9.66152L223.773 21.9294C223.655 22.356 223.596 22.7372 223.596 23.0731C223.596 23.5632 223.755 23.9581 224.073 24.2577C224.4 24.5481 224.917 24.6934 225.625 24.6934L225.503 25.1971H219.484L219.607 24.6934C220.124 24.6934 220.492 24.648 220.71 24.5572C221.091 24.412 221.463 24.1351 221.826 23.7266C222.189 23.3091 222.484 22.71 222.711 21.9294L226.619 8.51779C226.138 7.98224 225.734 7.6373 225.407 7.48299C225.08 7.32868 224.59 7.24698 223.937 7.23791L224.087 6.73412H230.323ZM261.367 6.31203L260.087 12.2349H259.569C259.497 10.5102 259.106 9.2712 258.398 8.51779C257.699 7.75531 256.715 7.37406 255.444 7.37406C254.137 7.37406 252.829 7.837 251.522 8.76288C250.215 9.67967 249.099 11.1003 248.173 13.0246C247.256 14.9399 246.798 16.955 246.798 19.07C246.798 20.8855 247.206 22.2743 248.023 23.2365C248.84 24.1896 249.798 24.6661 250.896 24.6661C251.359 24.6661 251.922 24.5345 252.584 24.2713L254 19.3968C254.236 18.5799 254.354 18.0443 254.354 17.7901C254.354 17.4543 254.209 17.1729 253.919 16.946C253.637 16.71 253.147 16.592 252.448 16.592L252.584 16.0746H260.55L260.427 16.592C259.955 16.6192 259.583 16.71 259.311 16.8643C259.047 17.0095 258.839 17.2274 258.684 17.5178C258.593 17.6903 258.453 18.1351 258.262 18.8522L256.587 24.53C254.681 25.2561 252.675 25.6192 250.569 25.6192C248.944 25.6192 247.56 25.3242 246.416 24.7342C245.282 24.1442 244.338 23.2092 243.584 21.9294C242.84 20.6495 242.468 19.1926 242.468 17.5587C242.468 14.073 244.015 11.2001 247.111 8.93988C249.534 7.18798 252.285 6.31203 255.362 6.31203C255.898 6.31203 256.392 6.33926 256.846 6.39373C257.182 6.43911 257.772 6.56619 258.616 6.77497C259.161 6.91113 259.533 6.97921 259.733 6.97921C260.132 6.97921 260.509 6.75681 260.863 6.31203H261.367Z" fill="#B20000"/>
<rect x="15.6163" y="9.12244" width="20.9876" height="9.99398" fill="white"/>
<path d="M20.567 11.0654H21.8328V15.2888C21.8328 15.6792 21.7451 16.0183 21.5696 16.3062C21.3961 16.594 21.1546 16.8158 20.845 16.9716C20.5355 17.1274 20.1756 17.2052 19.7655 17.2052C19.4008 17.2052 19.0695 17.1412 18.7718 17.013C18.4761 16.8829 18.2414 16.6857 18.0679 16.4215C17.8944 16.1553 17.8086 15.8211 17.8106 15.4189H19.0853C19.0892 15.5786 19.1218 15.7156 19.1829 15.83C19.246 15.9424 19.3318 16.0291 19.4402 16.0903C19.5506 16.1494 19.6807 16.179 19.8306 16.179C19.9883 16.179 20.1214 16.1455 20.2299 16.0784C20.3403 16.0094 20.4241 15.9089 20.4813 15.7768C20.5384 15.6447 20.567 15.482 20.567 15.2888V11.0654ZM25.0388 17.1224H22.8916V11.0654H25.0565C25.6658 11.0654 26.1902 11.1867 26.6299 11.4292C27.0696 11.6698 27.4078 12.0158 27.6444 12.4673C27.8829 12.9188 28.0022 13.4591 28.0022 14.088C28.0022 14.719 27.8829 15.2612 27.6444 15.7147C27.4078 16.1681 27.0676 16.5161 26.624 16.7587C26.1824 17.0012 25.6539 17.1224 25.0388 17.1224ZM24.1722 16.0252H24.9855C25.3641 16.0252 25.6825 15.9582 25.9408 15.8241C26.2011 15.688 26.3963 15.4781 26.5264 15.1941C26.6585 14.9082 26.7246 14.5395 26.7246 14.088C26.7246 13.6405 26.6585 13.2747 26.5264 12.9908C26.3963 12.7069 26.2021 12.4979 25.9438 12.3638C25.6855 12.2297 25.3671 12.1627 24.9885 12.1627H24.1722V16.0252ZM28.9508 17.1224V11.0654H30.2314V13.7361H30.3113L32.491 11.0654H34.0259L31.7782 13.7775L34.0526 17.1224H32.5206L30.8614 14.6322L30.2314 15.4012V17.1224H28.9508Z" fill="#851408"/>
<rect x="16.3585" y="38.8654" width="18.5605" height="4.28314" fill="white"/>
<path d="M18.9205 40.0878C18.9104 39.9856 18.8668 39.9062 18.7899 39.8495C18.7131 39.7929 18.6087 39.7646 18.4769 39.7646C18.3873 39.7646 18.3117 39.7773 18.25 39.8027C18.1883 39.8272 18.141 39.8614 18.108 39.9053C18.0759 39.9493 18.0599 39.9991 18.0599 40.0549C18.0582 40.1014 18.0679 40.1419 18.089 40.1766C18.111 40.2112 18.141 40.2412 18.179 40.2666C18.217 40.2911 18.261 40.3126 18.3108 40.3312C18.3607 40.3489 18.4139 40.3642 18.4705 40.3768L18.7038 40.4326C18.817 40.458 18.9209 40.4918 19.0156 40.534C19.1102 40.5763 19.1922 40.6282 19.2615 40.6899C19.3307 40.7516 19.3844 40.8243 19.4224 40.9079C19.4613 40.9916 19.4812 41.0875 19.482 41.1956C19.4812 41.3545 19.4406 41.4922 19.3603 41.6088C19.2809 41.7246 19.166 41.8146 19.0156 41.8788C18.866 41.9422 18.6856 41.9739 18.4743 41.9739C18.2648 41.9739 18.0823 41.9418 17.9268 41.8776C17.7721 41.8133 17.6513 41.7183 17.5643 41.5924C17.4781 41.4656 17.4329 41.3089 17.4286 41.1221H17.9597C17.9656 41.2092 17.9906 41.2818 18.0345 41.3401C18.0793 41.3976 18.1389 41.4411 18.2132 41.4707C18.2884 41.4994 18.3734 41.5138 18.468 41.5138C18.5609 41.5138 18.6416 41.5003 18.7101 41.4732C18.7794 41.4462 18.833 41.4086 18.8711 41.3604C18.9091 41.3123 18.9281 41.2569 18.9281 41.1944C18.9281 41.1361 18.9108 41.0871 18.8761 41.0473C18.8423 41.0076 18.7925 40.9738 18.7266 40.9459C18.6615 40.9181 18.5817 40.8927 18.487 40.8699L18.2044 40.7989C17.9855 40.7457 17.8127 40.6624 17.6859 40.5492C17.5592 40.436 17.4962 40.2835 17.4971 40.0916C17.4962 39.9345 17.5381 39.7972 17.6226 39.6797C17.7079 39.5622 17.825 39.4706 17.9737 39.4047C18.1224 39.3387 18.2914 39.3058 18.4807 39.3058C18.6733 39.3058 18.8415 39.3387 18.9851 39.4047C19.1296 39.4706 19.242 39.5622 19.3223 39.6797C19.4026 39.7972 19.444 39.9332 19.4465 40.0878H18.9205ZM19.8512 41.9371V39.3413H20.4V40.4123H21.5141V39.3413H22.0617V41.9371H21.5141V40.8648H20.4V41.9371H19.8512ZM23.063 39.3413V41.9371H22.5142V39.3413H23.063ZM23.5146 41.9371V39.3413H24.5387C24.7356 39.3413 24.9033 39.3789 25.0419 39.4541C25.1805 39.5284 25.2861 39.632 25.3588 39.7646C25.4323 39.8964 25.4691 40.0485 25.4691 40.2209C25.4691 40.3933 25.4319 40.5454 25.3575 40.6772C25.2832 40.8091 25.1754 40.9117 25.0343 40.9852C24.894 41.0588 24.7242 41.0955 24.5248 41.0955H23.872V40.6557H24.4361C24.5417 40.6557 24.6287 40.6375 24.6972 40.6012C24.7665 40.564 24.818 40.5129 24.8518 40.4478C24.8864 40.3819 24.9038 40.3063 24.9038 40.2209C24.9038 40.1347 24.8864 40.0595 24.8518 39.9953C24.818 39.9302 24.7665 39.88 24.6972 39.8445C24.6279 39.8081 24.54 39.79 24.4335 39.79H24.0634V41.9371H23.5146ZM25.8256 41.9371V39.3413H26.8497C27.0466 39.3413 27.2143 39.3789 27.3529 39.4541C27.4915 39.5284 27.5971 39.632 27.6698 39.7646C27.7433 39.8964 27.7801 40.0485 27.7801 40.2209C27.7801 40.3933 27.7429 40.5454 27.6685 40.6772C27.5942 40.8091 27.4864 40.9117 27.3453 40.9852C27.205 41.0588 27.0352 41.0955 26.8358 41.0955H26.183V40.6557H26.747C26.8527 40.6557 26.9397 40.6375 27.0081 40.6012C27.0774 40.564 27.129 40.5129 27.1628 40.4478C27.1974 40.3819 27.2147 40.3063 27.2147 40.2209C27.2147 40.1347 27.1974 40.0595 27.1628 39.9953C27.129 39.9302 27.0774 39.88 27.0081 39.8445C26.9389 39.8081 26.851 39.79 26.7445 39.79H26.3744V41.9371H25.8256ZM28.6854 39.3413V41.9371H28.1365V39.3413H28.6854ZM31.3082 39.3413V41.9371H30.8341L29.7048 40.3033H29.6858V41.9371H29.1369V39.3413H29.6186L30.7391 40.9738H30.7619V39.3413H31.3082ZM33.4829 40.1804C33.4651 40.1187 33.4402 40.0642 33.4081 40.0169C33.376 39.9687 33.3367 39.9281 33.2902 39.8952C33.2446 39.8614 33.1922 39.8356 33.1331 39.8179C33.0748 39.8001 33.0101 39.7912 32.9391 39.7912C32.8065 39.7912 32.6899 39.8242 32.5893 39.8901C32.4896 39.956 32.4118 40.0519 32.3561 40.1778C32.3003 40.3029 32.2724 40.4558 32.2724 40.6367C32.2724 40.8175 32.2999 40.9713 32.3548 41.098C32.4097 41.2248 32.4875 41.3215 32.588 41.3883C32.6886 41.4542 32.8073 41.4872 32.9442 41.4872C33.0684 41.4872 33.1745 41.4652 33.2623 41.4213C33.3511 41.3765 33.4187 41.3135 33.4651 41.2324C33.5125 41.1513 33.5361 41.0554 33.5361 40.9447L33.6477 40.9612H32.9784V40.5479H34.0647V40.875C34.0647 41.1031 34.0165 41.2992 33.9202 41.4631C33.8238 41.6262 33.6912 41.7521 33.5222 41.8408C33.3532 41.9287 33.1597 41.9726 32.9417 41.9726C32.6983 41.9726 32.4845 41.919 32.3003 41.8117C32.1161 41.7035 31.9724 41.5501 31.8694 41.3515C31.7671 41.1521 31.716 40.9155 31.716 40.6417C31.716 40.4313 31.7464 40.2437 31.8072 40.079C31.8689 39.9133 31.9551 39.7731 32.0658 39.6582C32.1765 39.5432 32.3054 39.4558 32.4524 39.3958C32.5994 39.3358 32.7587 39.3058 32.9303 39.3058C33.0773 39.3058 33.2142 39.3273 33.3409 39.3704C33.4677 39.4127 33.5801 39.4727 33.6781 39.5504C33.777 39.6282 33.8576 39.7207 33.9202 39.828C33.9827 39.9345 34.0228 40.0519 34.0406 40.1804H33.4829Z" fill="#851408"/>
</svg>
