<svg width="15" height="12" viewBox="0 0 15 12" fill="none" xmlns="http://www.w3.org/2000/svg">
<path d="M0.61789 11.2684V8.30501C0.61789 7.4304 0.782523 6.50948 1.11179 5.54226C1.44106 4.57504 1.89894 3.64898 2.48545 2.76408C3.07195 1.87917 3.76136 1.12289 4.55365 0.495224L6.83794 2.13126C6.21028 3.04704 5.67522 4.00397 5.23277 5.00206C4.79031 6.00015 4.56909 7.0857 4.56909 8.25871V11.2684H0.61789ZM8.48942 11.2684V8.30501C8.48942 7.4304 8.65405 6.50948 8.98332 5.54226C9.31258 4.57504 9.77047 3.64898 10.357 2.76408C10.9435 1.87917 11.6329 1.12289 12.4252 0.495224L14.7095 2.13126C14.0818 3.04704 13.5467 4.00397 13.1043 5.00206C12.6618 6.00015 12.4406 7.0857 12.4406 8.25871V11.2684H8.48942Z" fill="#B30000" fill-opacity="0.4"/>
</svg>
