<svg width="130" height="240" viewBox="0 0 130 240" fill="none" xmlns="http://www.w3.org/2000/svg">
<path d="M20.1513 195.909V192.585L27.9176 185.394C28.5781 184.755 29.1321 184.179 29.5795 183.668C30.0341 183.157 30.3786 182.656 30.6129 182.166C30.8473 181.669 30.9645 181.132 30.9645 180.557C30.9645 179.918 30.8189 179.367 30.5277 178.906C30.2365 178.437 29.8388 178.078 29.3345 177.83C28.8303 177.574 28.2585 177.446 27.6193 177.446C26.9517 177.446 26.3693 177.581 25.8722 177.851C25.375 178.121 24.9915 178.508 24.7216 179.012C24.4517 179.517 24.3168 180.117 24.3168 180.813H19.9382C19.9382 179.385 20.2614 178.146 20.9077 177.095C21.554 176.044 22.4595 175.23 23.6243 174.655C24.7891 174.08 26.1314 173.792 27.6513 173.792C29.2138 173.792 30.5739 174.069 31.7315 174.623C32.8963 175.17 33.8018 175.93 34.4482 176.903C35.0945 177.876 35.4176 178.991 35.4176 180.248C35.4176 181.072 35.2543 181.885 34.9276 182.688C34.608 183.49 34.0362 184.382 33.2124 185.362C32.3885 186.335 31.2273 187.503 29.7287 188.867L26.5433 191.988V192.137H35.7053V195.909H20.1513ZM38.2488 192.073V188.441L47.3574 174.091H50.4895V179.119H48.6358L42.8936 188.206V188.377H55.8375V192.073H38.2488ZM48.7211 195.909V190.966L48.8063 189.357V174.091H53.1316V195.909H48.7211ZM68.4565 173.068L61.4252 199.19H57.5154L64.5467 173.068H68.4565ZM71.4634 195.909L80.5082 178.011V177.862H69.9719V174.091H85.2809V177.915L76.2255 195.909H71.4634ZM10.9401 229.909H7.97417L12.4933 216.818H16.0601L20.5729 229.909H17.607L14.3279 219.809H14.2256L10.9401 229.909ZM10.7547 224.763H17.7604V226.924H10.7547V224.763ZM30.0203 220.091L26.5878 229.909H23.5196L20.0871 220.091H22.9635L25.0026 227.115H25.1048L27.1375 220.091H30.0203ZM33.9498 230.094C33.3234 230.094 32.7652 229.985 32.2751 229.768C31.7851 229.546 31.3973 229.22 31.1118 228.79C30.8305 228.355 30.6899 227.814 30.6899 227.167C30.6899 226.621 30.79 226.163 30.9903 225.792C31.1906 225.421 31.4633 225.123 31.8085 224.897C32.1537 224.671 32.5457 224.501 32.9846 224.386C33.4278 224.271 33.8923 224.19 34.3781 224.143C34.9491 224.083 35.4094 224.028 35.7588 223.977C36.1082 223.921 36.3618 223.841 36.5194 223.734C36.6771 223.627 36.7559 223.47 36.7559 223.261V223.223C36.7559 222.818 36.6281 222.505 36.3724 222.283C36.121 222.061 35.7631 221.951 35.2986 221.951C34.8085 221.951 34.4186 222.059 34.1288 222.277C33.839 222.49 33.6473 222.758 33.5535 223.082L31.0351 222.877C31.1629 222.281 31.4143 221.765 31.7893 221.331C32.1643 220.892 32.648 220.555 33.2403 220.321C33.8369 220.082 34.5273 219.963 35.3113 219.963C35.8568 219.963 36.3788 220.027 36.8774 220.154C37.3802 220.282 37.8256 220.48 38.2133 220.749C38.6054 221.017 38.9143 221.363 39.1402 221.784C39.366 222.202 39.479 222.703 39.479 223.287V229.909H36.8966V228.547H36.8199C36.6622 228.854 36.4513 229.125 36.1871 229.359C35.9229 229.589 35.6054 229.77 35.2346 229.902C34.8639 230.03 34.4356 230.094 33.9498 230.094ZM34.7297 228.215C35.1302 228.215 35.4839 228.136 35.7907 227.978C36.0976 227.816 36.3383 227.599 36.5131 227.326C36.6878 227.054 36.7751 226.745 36.7751 226.399V225.358C36.6899 225.413 36.5727 225.464 36.4236 225.511C36.2787 225.554 36.1146 225.594 35.9314 225.632C35.7481 225.667 35.5649 225.698 35.3817 225.728C35.1984 225.754 35.0322 225.777 34.8831 225.799C34.5635 225.845 34.2844 225.92 34.0457 226.022C33.8071 226.125 33.6217 226.263 33.4896 226.438C33.3575 226.608 33.2915 226.821 33.2915 227.077C33.2915 227.448 33.4257 227.731 33.6942 227.927C33.9669 228.119 34.3121 228.215 34.7297 228.215ZM41.5915 229.909V220.091H44.3145V229.909H41.5915ZM42.9594 218.825C42.5546 218.825 42.2073 218.691 41.9175 218.422C41.632 218.149 41.4893 217.823 41.4893 217.444C41.4893 217.069 41.632 216.747 41.9175 216.479C42.2073 216.206 42.5546 216.07 42.9594 216.07C43.3643 216.07 43.7094 216.206 43.9949 216.479C44.2847 216.747 44.4296 217.069 44.4296 217.444C44.4296 217.823 44.2847 218.149 43.9949 218.422C43.7094 218.691 43.3643 218.825 42.9594 218.825ZM49.2188 216.818V229.909H46.4958V216.818H49.2188ZM54.1998 230.094C53.5734 230.094 53.0152 229.985 52.5251 229.768C52.0351 229.546 51.6473 229.22 51.3618 228.79C51.0805 228.355 50.9399 227.814 50.9399 227.167C50.9399 226.621 51.04 226.163 51.2403 225.792C51.4406 225.421 51.7133 225.123 52.0585 224.897C52.4037 224.671 52.7957 224.501 53.2346 224.386C53.6778 224.271 54.1423 224.19 54.6281 224.143C55.1991 224.083 55.6594 224.028 56.0088 223.977C56.3582 223.921 56.6118 223.841 56.7694 223.734C56.9271 223.627 57.0059 223.47 57.0059 223.261V223.223C57.0059 222.818 56.8781 222.505 56.6224 222.283C56.371 222.061 56.0131 221.951 55.5486 221.951C55.0585 221.951 54.6686 222.059 54.3788 222.277C54.089 222.49 53.8973 222.758 53.8035 223.082L51.2851 222.877C51.4129 222.281 51.6643 221.765 52.0393 221.331C52.4143 220.892 52.898 220.555 53.4903 220.321C54.0869 220.082 54.7773 219.963 55.5613 219.963C56.1068 219.963 56.6288 220.027 57.1274 220.154C57.6302 220.282 58.0756 220.48 58.4633 220.749C58.8554 221.017 59.1643 221.363 59.3902 221.784C59.616 222.202 59.729 222.703 59.729 223.287V229.909H57.1466V228.547H57.0699C56.9122 228.854 56.7013 229.125 56.4371 229.359C56.1729 229.589 55.8554 229.77 55.4846 229.902C55.1139 230.03 54.6856 230.094 54.1998 230.094ZM54.9797 228.215C55.3802 228.215 55.7339 228.136 56.0407 227.978C56.3476 227.816 56.5883 227.599 56.7631 227.326C56.9378 227.054 57.0251 226.745 57.0251 226.399V225.358C56.9399 225.413 56.8227 225.464 56.6736 225.511C56.5287 225.554 56.3646 225.594 56.1814 225.632C55.9981 225.667 55.8149 225.698 55.6317 225.728C55.4484 225.754 55.2822 225.777 55.1331 225.799C54.8135 225.845 54.5344 225.92 54.2957 226.022C54.0571 226.125 53.8717 226.263 53.7396 226.438C53.6075 226.608 53.5415 226.821 53.5415 227.077C53.5415 227.448 53.6757 227.731 53.9442 227.927C54.2169 228.119 54.5621 228.215 54.9797 228.215ZM61.8927 229.909V216.818H64.6157V221.74H64.6988C64.8181 221.475 64.9907 221.207 65.2165 220.934C65.4466 220.657 65.7449 220.427 66.1114 220.244C66.4822 220.056 66.9424 219.963 67.4921 219.963C68.208 219.963 68.8685 220.15 69.4736 220.525C70.0787 220.896 70.5624 221.456 70.9246 222.206C71.2868 222.952 71.468 223.887 71.468 225.012C71.468 226.108 71.2911 227.032 70.9374 227.787C70.588 228.537 70.1107 229.105 69.5056 229.493C68.9047 229.877 68.2314 230.068 67.4857 230.068C66.9573 230.068 66.5077 229.981 66.137 229.806C65.7705 229.632 65.4701 229.412 65.2357 229.148C65.0013 228.88 64.8224 228.609 64.6988 228.336H64.5773V229.909H61.8927ZM64.5582 225C64.5582 225.583 64.6391 226.093 64.801 226.527C64.963 226.962 65.1974 227.301 65.5042 227.544C65.811 227.782 66.1839 227.902 66.6228 227.902C67.066 227.902 67.441 227.78 67.7478 227.537C68.0546 227.29 68.2868 226.949 68.4445 226.515C68.6064 226.076 68.6874 225.571 68.6874 225C68.6874 224.433 68.6086 223.934 68.4509 223.504C68.2932 223.073 68.061 222.737 67.7542 222.494C67.4474 222.251 67.0702 222.13 66.6228 222.13C66.1796 222.13 65.8046 222.247 65.4978 222.481C65.1952 222.716 64.963 223.048 64.801 223.478C64.6391 223.909 64.5582 224.416 64.5582 225ZM73.2849 229.909V220.091H76.0079V229.909H73.2849ZM74.6528 218.825C74.248 218.825 73.9007 218.691 73.6109 218.422C73.3254 218.149 73.1826 217.823 73.1826 217.444C73.1826 217.069 73.3254 216.747 73.6109 216.479C73.9007 216.206 74.248 216.07 74.6528 216.07C75.0576 216.07 75.4028 216.206 75.6883 216.479C75.9781 216.747 76.123 217.069 76.123 217.444C76.123 217.823 75.9781 218.149 75.6883 218.422C75.4028 218.691 75.0576 218.825 74.6528 218.825ZM80.9122 216.818V229.909H78.1892V216.818H80.9122ZM83.0935 229.909V220.091H85.8165V229.909H83.0935ZM84.4614 218.825C84.0566 218.825 83.7093 218.691 83.4195 218.422C83.134 218.149 82.9912 217.823 82.9912 217.444C82.9912 217.069 83.134 216.747 83.4195 216.479C83.7093 216.206 84.0566 216.07 84.4614 216.07C84.8662 216.07 85.2114 216.206 85.4969 216.479C85.7867 216.747 85.9316 217.069 85.9316 217.444C85.9316 217.823 85.7867 218.149 85.4969 218.422C85.2114 218.691 84.8662 218.825 84.4614 218.825ZM93.2201 220.091V222.136H87.3074V220.091H93.2201ZM88.6498 217.738H91.3728V226.892C91.3728 227.143 91.4111 227.339 91.4878 227.48C91.5645 227.616 91.6711 227.712 91.8074 227.767C91.9481 227.823 92.11 227.85 92.2932 227.85C92.4211 227.85 92.5489 227.84 92.6768 227.818C92.8046 227.793 92.9026 227.774 92.9708 227.761L93.3991 229.787C93.2627 229.83 93.0709 229.879 92.8238 229.934C92.5766 229.994 92.2762 230.03 91.9225 230.043C91.2662 230.068 90.691 229.981 90.1966 229.781C89.7066 229.581 89.3252 229.269 89.0525 228.848C88.7797 228.426 88.6455 227.893 88.6498 227.25V217.738ZM96.675 233.591C96.3298 233.591 96.0059 233.563 95.7034 233.507C95.4051 233.456 95.1579 233.39 94.9619 233.309L95.5756 231.277C95.8952 231.375 96.1828 231.428 96.4385 231.436C96.6984 231.445 96.9221 231.385 97.1096 231.257C97.3014 231.13 97.4569 230.912 97.5763 230.605L97.7361 230.19L94.214 220.091H97.0777L99.1104 227.301H99.2126L101.264 220.091H104.147L100.331 230.97C100.148 231.498 99.8987 231.958 99.5834 232.35C99.2723 232.747 98.8781 233.051 98.4008 233.265C97.9236 233.482 97.3483 233.591 96.675 233.591Z" fill="white"/>
<path d="M100.575 79.553C99.5242 79.553 98.6727 80.4045 98.6727 81.4554V88.8995C96.35 89.6929 94.6743 91.8956 94.6743 94.4837C94.6743 97.7373 97.3215 100.384 100.575 100.384C101.509 100.384 102.393 100.165 103.178 99.7775L109.507 106.106C109.879 106.478 110.366 106.663 110.852 106.663C111.339 106.663 111.826 106.478 112.198 106.106C112.941 105.363 112.941 104.159 112.198 103.416L105.869 97.087C106.257 96.3011 106.476 95.4179 106.476 94.4839C106.476 91.8959 104.801 89.6931 102.478 88.8997V81.4557C102.478 80.4045 101.626 79.553 100.575 79.553ZM102.671 94.4837C102.671 95.6393 101.731 96.5796 100.575 96.5796C99.4195 96.5796 98.4792 95.6393 98.4792 94.4837C98.4792 93.328 99.4195 92.3877 100.575 92.3877C101.731 92.3877 102.671 93.328 102.671 94.4837Z" fill="white"/>
<path d="M100.575 79.553C99.5242 79.553 98.6727 80.4045 98.6727 81.4554V88.8995C96.35 89.6929 94.6743 91.8956 94.6743 94.4837C94.6743 97.7373 97.3215 100.384 100.575 100.384C101.509 100.384 102.393 100.165 103.178 99.7775L109.507 106.106C109.879 106.478 110.366 106.663 110.852 106.663C111.339 106.663 111.826 106.478 112.198 106.106C112.941 105.363 112.941 104.159 112.198 103.416L105.869 97.087C106.257 96.3011 106.476 95.4179 106.476 94.4839C106.476 91.8959 104.801 89.6931 102.478 88.8997V81.4557C102.478 80.4045 101.626 79.553 100.575 79.553ZM102.671 94.4837C102.671 95.6393 101.731 96.5796 100.575 96.5796C99.4195 96.5796 98.4792 95.6393 98.4792 94.4837C98.4792 93.328 99.4195 92.3877 100.575 92.3877C101.731 92.3877 102.671 93.328 102.671 94.4837Z" fill="white" fill-opacity="0.2"/>
<path d="M48.7182 39.3883C47.7414 38.9992 46.6357 39.4768 46.2474 40.4529L39.7299 56.8398C39.3416 57.8162 39.8184 58.9224 40.7945 59.3104C41.0253 59.4023 41.263 59.4456 41.4971 59.4456C42.2535 59.4456 42.9689 58.9914 43.2656 58.2459L49.7831 41.8589C50.1712 40.8829 49.6945 39.7764 48.7182 39.3883Z" fill="white"/>
<path d="M48.7182 39.3883C47.7414 38.9992 46.6357 39.4768 46.2474 40.4529L39.7299 56.8398C39.3416 57.8162 39.8184 58.9224 40.7945 59.3104C41.0253 59.4023 41.263 59.4456 41.4971 59.4456C42.2535 59.4456 42.9689 58.9914 43.2656 58.2459L49.7831 41.8589C50.1712 40.8829 49.6945 39.7764 48.7182 39.3883Z" fill="white" fill-opacity="0.2"/>
<path d="M56.1379 59.2844C56.387 59.3939 56.6468 59.4457 56.9024 59.4457C57.634 59.4457 58.3318 59.0211 58.6451 58.3085L65.8486 41.9216C66.1074 41.3334 66.0513 40.6541 65.7 40.1161C65.3487 39.5781 64.7495 39.2537 64.107 39.2537H55.0924C54.0417 39.2537 53.1899 40.1052 53.1899 41.1561C53.1899 42.207 54.0417 43.0585 55.0924 43.0585H61.1925L55.1621 56.7772C54.739 57.7388 55.1761 58.8615 56.1379 59.2844Z" fill="white"/>
<path d="M56.1379 59.2844C56.387 59.3939 56.6468 59.4457 56.9024 59.4457C57.634 59.4457 58.3318 59.0211 58.6451 58.3085L65.8486 41.9216C66.1074 41.3334 66.0513 40.6541 65.7 40.1161C65.3487 39.5781 64.7495 39.2537 64.107 39.2537H55.0924C54.0417 39.2537 53.1899 40.1052 53.1899 41.1561C53.1899 42.207 54.0417 43.0585 55.0924 43.0585H61.1925L55.1621 56.7772C54.739 57.7388 55.1761 58.8615 56.1379 59.2844Z" fill="white" fill-opacity="0.2"/>
<path d="M32.2001 58.9945C33.2508 58.9945 34.1026 58.143 34.1026 57.0921V53.6H35.1299C36.1805 53.6 37.0323 52.7485 37.0323 51.6976C37.0323 50.6467 36.1805 49.7952 35.1299 49.7952H34.1026V41.1775C34.1026 39.9797 33.3299 38.9512 32.1799 38.6173C31.0303 38.2845 29.8282 38.7388 29.1875 39.7499C26.8351 43.4632 22.4943 50.6414 22.4506 50.7134C22.0955 51.3009 22.0843 52.0342 22.4217 52.6321C22.7591 53.2299 23.3922 53.5998 24.0788 53.5998H30.2977V57.0919C30.2977 58.143 31.1495 58.9945 32.2001 58.9945ZM27.4596 49.7952C28.2903 48.431 29.3146 46.7551 30.2977 45.1612V49.7952H27.4596Z" fill="white"/>
<path d="M32.2001 58.9945C33.2508 58.9945 34.1026 58.143 34.1026 57.0921V53.6H35.1299C36.1805 53.6 37.0323 52.7485 37.0323 51.6976C37.0323 50.6467 36.1805 49.7952 35.1299 49.7952H34.1026V41.1775C34.1026 39.9797 33.3299 38.9512 32.1799 38.6173C31.0303 38.2845 29.8282 38.7388 29.1875 39.7499C26.8351 43.4632 22.4943 50.6414 22.4506 50.7134C22.0955 51.3009 22.0843 52.0342 22.4217 52.6321C22.7591 53.2299 23.3922 53.5998 24.0788 53.5998H30.2977V57.0919C30.2977 58.143 31.1495 58.9945 32.2001 58.9945ZM27.4596 49.7952C28.2903 48.431 29.3146 46.7551 30.2977 45.1612V49.7952H27.4596Z" fill="white" fill-opacity="0.2"/>
<path d="M16.4349 47.9321C13.84 51.6398 12.2914 53.6673 11.4594 54.7567C10.4232 56.1138 9.95014 56.733 10.2738 57.7849C10.464 58.4038 10.9328 58.8786 11.5596 59.0874C11.8117 59.1716 12.0537 59.252 15.2533 59.252C16.5033 59.252 18.2051 59.2396 20.5352 59.2104C21.5858 59.1972 22.4267 58.335 22.4135 57.2844C22.4003 56.2419 21.5513 55.4058 20.5116 55.4058C20.5035 55.4058 20.4954 55.4058 20.4873 55.4061C18.8659 55.4264 17.1471 55.4398 15.7114 55.4431C16.618 54.2299 17.8695 52.5179 19.552 50.114C20.6024 48.6132 21.2878 47.1937 21.5889 45.8955C21.6033 45.8334 21.6148 45.7702 21.6226 45.7068L21.7035 45.0729C21.7139 44.9932 21.719 44.9123 21.719 44.8319C21.719 41.471 18.9846 38.7366 15.6237 38.7366C12.7175 38.7366 10.202 40.8039 9.64245 43.6527C9.44004 44.6835 10.1115 45.6834 11.1426 45.8861C12.1739 46.0883 13.1733 45.4174 13.376 44.386C13.586 43.3173 14.5312 42.5417 15.6237 42.5417C16.8521 42.5417 17.8579 43.5137 17.9119 44.7292L17.8617 45.1211C17.6582 45.9244 17.1786 46.8695 16.4349 47.9321Z" fill="white"/>
<path d="M16.4349 47.9321C13.84 51.6398 12.2914 53.6673 11.4594 54.7567C10.4232 56.1138 9.95014 56.733 10.2738 57.7849C10.464 58.4038 10.9328 58.8786 11.5596 59.0874C11.8117 59.1716 12.0537 59.252 15.2533 59.252C16.5033 59.252 18.2051 59.2396 20.5352 59.2104C21.5858 59.1972 22.4267 58.335 22.4135 57.2844C22.4003 56.2419 21.5513 55.4058 20.5116 55.4058C20.5035 55.4058 20.4954 55.4058 20.4873 55.4061C18.8659 55.4264 17.1471 55.4398 15.7114 55.4431C16.618 54.2299 17.8695 52.5179 19.552 50.114C20.6024 48.6132 21.2878 47.1937 21.5889 45.8955C21.6033 45.8334 21.6148 45.7702 21.6226 45.7068L21.7035 45.0729C21.7139 44.9932 21.719 44.9123 21.719 44.8319C21.719 41.471 18.9846 38.7366 15.6237 38.7366C12.7175 38.7366 10.202 40.8039 9.64245 43.6527C9.44004 44.6835 10.1115 45.6834 11.1426 45.8861C12.1739 46.0883 13.1733 45.4174 13.376 44.386C13.586 43.3173 14.5312 42.5417 15.6237 42.5417C16.8521 42.5417 17.8579 43.5137 17.9119 44.7292L17.8617 45.1211C17.6582 45.9244 17.1786 46.8695 16.4349 47.9321Z" fill="white" fill-opacity="0.2"/>
<path d="M27.708 68.5502C27.708 66.5785 26.1039 64.9741 24.132 64.9741H15.7811C13.8095 64.9741 12.2051 66.5783 12.2051 68.5502V76.901C12.2051 78.8727 13.8092 80.4771 15.7811 80.4771H24.132C26.1036 80.4771 27.708 78.873 27.708 76.901V68.5502ZM23.9032 76.672H16.0102V68.779H23.9034L23.9032 76.672Z" fill="white"/>
<path d="M27.708 68.5502C27.708 66.5785 26.1039 64.9741 24.132 64.9741H15.7811C13.8095 64.9741 12.2051 66.5783 12.2051 68.5502V76.901C12.2051 78.8727 13.8092 80.4771 15.7811 80.4771H24.132C26.1036 80.4771 27.708 78.873 27.708 76.901V68.5502ZM23.9032 76.672H16.0102V68.779H23.9034L23.9032 76.672Z" fill="white" fill-opacity="0.2"/>
<path d="M47.6138 68.5502C47.6138 66.5785 46.0097 64.9741 44.0377 64.9741H35.6869C33.7152 64.9741 32.1108 66.5783 32.1108 68.5502V76.901C32.1108 78.8727 33.715 80.4771 35.6869 80.4771H44.0377C46.0094 80.4771 47.6138 78.873 47.6138 76.901V68.5502ZM43.8089 76.672H35.9157V68.779H43.8089V76.672Z" fill="white"/>
<path d="M47.6138 68.5502C47.6138 66.5785 46.0097 64.9741 44.0377 64.9741H35.6869C33.7152 64.9741 32.1108 66.5783 32.1108 68.5502V76.901C32.1108 78.8727 33.715 80.4771 35.6869 80.4771H44.0377C46.0094 80.4771 47.6138 78.873 47.6138 76.901V68.5502ZM43.8089 76.672H35.9157V68.779H43.8089V76.672Z" fill="white" fill-opacity="0.2"/>
<path d="M67.5193 68.5502C67.5193 66.5785 65.9152 64.9741 63.9435 64.9741H55.5926C53.621 64.9741 52.0166 66.5783 52.0166 68.5502V76.901C52.0166 78.8727 53.6207 80.4771 55.5926 80.4771H63.9435C65.9152 80.4771 67.5193 78.873 67.5193 76.901V68.5502ZM63.7144 76.672H55.8214V68.779H63.7144V76.672Z" fill="white"/>
<path d="M67.5193 68.5502C67.5193 66.5785 65.9152 64.9741 63.9435 64.9741H55.5926C53.621 64.9741 52.0166 66.5783 52.0166 68.5502V76.901C52.0166 78.8727 53.6207 80.4771 55.5926 80.4771H63.9435C65.9152 80.4771 67.5193 78.873 67.5193 76.901V68.5502ZM63.7144 76.672H55.8214V68.779H63.7144V76.672Z" fill="white" fill-opacity="0.2"/>
<path d="M83.1948 54.9777V46.6266C83.1948 44.6549 81.5907 43.0505 79.6188 43.0505H71.2679C69.2963 43.0505 67.6919 44.6547 67.6919 46.6266V54.9777C67.6919 56.9494 69.296 58.5537 71.2679 58.5537H79.6188C81.5907 58.5537 83.1948 56.9496 83.1948 54.9777ZM79.39 54.7489H71.497V46.8556H79.39V54.7489Z" fill="white"/>
<path d="M83.1948 54.9777V46.6266C83.1948 44.6549 81.5907 43.0505 79.6188 43.0505H71.2679C69.2963 43.0505 67.6919 44.6547 67.6919 46.6266V54.9777C67.6919 56.9494 69.296 58.5537 71.2679 58.5537H79.6188C81.5907 58.5537 83.1948 56.9496 83.1948 54.9777ZM79.39 54.7489H71.497V46.8556H79.39V54.7489Z" fill="white" fill-opacity="0.2"/>
<path d="M91.0594 43.0505C89.0878 43.0505 87.4834 44.6547 87.4834 46.6266V54.9777C87.4834 56.9494 89.0875 58.5537 91.0594 58.5537H99.4103C101.382 58.5537 102.986 56.9496 102.986 54.9777V46.6266C102.986 44.6549 101.382 43.0505 99.4103 43.0505H91.0594ZM99.1812 54.7486H91.2882V46.8554H99.1812V54.7486Z" fill="white"/>
<path d="M91.0594 43.0505C89.0878 43.0505 87.4834 44.6547 87.4834 46.6266V54.9777C87.4834 56.9494 89.0875 58.5537 91.0594 58.5537H99.4103C101.382 58.5537 102.986 56.9496 102.986 54.9777V46.6266C102.986 44.6549 101.382 43.0505 99.4103 43.0505H91.0594ZM99.1812 54.7486H91.2882V46.8554H99.1812V54.7486Z" fill="white" fill-opacity="0.2"/>
<path d="M15.7811 99.2139H24.132C26.1036 99.2139 27.708 97.6098 27.708 95.6378V87.287C27.708 85.3153 26.1039 83.711 24.132 83.711H15.7811C13.8095 83.711 12.2051 85.3151 12.2051 87.287V95.6378C12.2053 97.6095 13.8095 99.2139 15.7811 99.2139ZM16.0102 87.5158H23.9034V95.4088H16.0102V87.5158Z" fill="white"/>
<path d="M15.7811 99.2139H24.132C26.1036 99.2139 27.708 97.6098 27.708 95.6378V87.287C27.708 85.3153 26.1039 83.711 24.132 83.711H15.7811C13.8095 83.711 12.2051 85.3151 12.2051 87.287V95.6378C12.2053 97.6095 13.8095 99.2139 15.7811 99.2139ZM16.0102 87.5158H23.9034V95.4088H16.0102V87.5158Z" fill="white" fill-opacity="0.2"/>
<path d="M35.6869 99.2139H44.0377C46.0094 99.2139 47.6138 97.6098 47.6138 95.6378V87.287C47.6138 85.3153 46.0097 83.711 44.0377 83.711H35.6869C33.7152 83.711 32.1108 85.3151 32.1108 87.287V95.6378C32.1111 97.6095 33.7152 99.2139 35.6869 99.2139ZM35.9159 87.5158H43.8092V95.4088H35.9159V87.5158Z" fill="white"/>
<path d="M35.6869 99.2139H44.0377C46.0094 99.2139 47.6138 97.6098 47.6138 95.6378V87.287C47.6138 85.3153 46.0097 83.711 44.0377 83.711H35.6869C33.7152 83.711 32.1108 85.3151 32.1108 87.287V95.6378C32.1111 97.6095 33.7152 99.2139 35.6869 99.2139ZM35.9159 87.5158H43.8092V95.4088H35.9159V87.5158Z" fill="white" fill-opacity="0.2"/>
<path d="M63.9435 83.711H55.5926C53.621 83.711 52.0166 85.3151 52.0166 87.287V95.6378C52.0166 97.6095 53.6207 99.2139 55.5926 99.2139H63.9435C65.9152 99.2139 67.5193 97.6098 67.5193 95.6378V87.287C67.5193 85.3153 65.9152 83.711 63.9435 83.711ZM63.7144 95.409H55.8214V87.516H63.7144V95.409Z" fill="white"/>
<path d="M63.9435 83.711H55.5926C53.621 83.711 52.0166 85.3151 52.0166 87.287V95.6378C52.0166 97.6095 53.6207 99.2139 55.5926 99.2139H63.9435C65.9152 99.2139 67.5193 97.6098 67.5193 95.6378V87.287C67.5193 85.3153 65.9152 83.711 63.9435 83.711ZM63.7144 95.409H55.8214V87.516H63.7144V95.409Z" fill="white" fill-opacity="0.2"/>
<path d="M67.7312 104.328H13.1477C7.99599 104.328 3.80484 100.137 3.80484 94.9853V67.2758C3.80484 66.2249 2.31773 65.882 1.26709 65.882C0.216448 65.882 0 65.7181 0 66.769V94.9853C0 102.235 5.89801 108.133 13.1477 108.133H67.7312C68.7821 108.133 69.6336 107.281 69.6336 106.23C69.6336 105.18 68.7821 104.328 67.7312 104.328Z" fill="white"/>
<path d="M67.7312 104.328H13.1477C7.99599 104.328 3.80484 100.137 3.80484 94.9853V67.2758C3.80484 66.2249 2.31773 65.882 1.26709 65.882C0.216448 65.882 0 65.7181 0 66.769V94.9853C0 102.235 5.89801 108.133 13.1477 108.133H67.7312C68.7821 108.133 69.6336 107.281 69.6336 106.23C69.6336 105.18 68.7821 104.328 67.7312 104.328Z" fill="white" fill-opacity="0.2"/>
<path d="M2.13411 73.0482C3.18475 73.0482 4.03653 72.1967 4.03653 71.1458V32.9813H89.6167C90.6676 32.9813 91.5191 32.1297 91.5191 31.0788C91.5191 30.0279 90.6676 29.1764 89.6167 29.1764H4.03653V22.8667C4.03653 17.715 8.22768 13.5241 13.3794 13.5241H26.6261V17.5808C26.6261 20.5158 29.014 22.9038 31.9491 22.9038C34.8841 22.9038 37.272 20.5158 37.272 17.5808V13.5241H75.4777V17.5808C75.4777 20.5158 77.8654 22.9038 80.8004 22.9038C83.7355 22.9038 86.1234 20.5158 86.1234 17.5808V13.5241H99.3701C104.522 13.5241 108.713 17.715 108.713 22.8667V29.1764H88.4212C87.3703 29.1764 87.683 29.6061 87.683 30.657C87.683 31.7078 86.7588 32.9813 87.8097 32.9813H108.713V61.0077C108.713 62.0586 109.564 62.9101 110.615 62.9101C111.666 62.9101 112.518 62.0586 112.518 61.0077V22.8667C112.518 15.6172 106.62 9.71923 99.3701 9.71923H86.1234V5.57297C86.1234 2.63792 83.7355 0.25 80.8004 0.25C77.8654 0.25 75.4777 2.63792 75.4777 5.57297V9.71948H37.272V5.57297C37.272 2.63792 34.8841 0.25 31.9491 0.25C29.014 0.25 26.6261 2.63792 26.6261 5.57297V9.71948H13.3794C6.1297 9.71923 0.231689 15.6172 0.231689 22.8667V71.1458C0.231689 72.1967 1.08347 73.0482 2.13411 73.0482ZM79.2825 5.57297C79.2825 4.73565 79.9636 4.05484 80.8004 4.05484C81.6377 4.05484 82.3185 4.7359 82.3185 5.57297V17.581C82.3185 18.4184 81.6375 19.0992 80.8004 19.0992C79.9633 19.0992 79.2825 18.4181 79.2825 17.581V5.57297ZM30.4309 5.57297C30.4309 4.73565 31.112 4.05484 31.9491 4.05484C32.7861 4.05484 33.4672 4.7359 33.4672 5.57297V17.581C33.4672 18.4184 32.7861 19.0992 31.9491 19.0992C31.112 19.0992 30.4309 18.4181 30.4309 17.581V5.57297Z" fill="white"/>
<path d="M2.13411 73.0482C3.18475 73.0482 4.03653 72.1967 4.03653 71.1458V32.9813H89.6167C90.6676 32.9813 91.5191 32.1297 91.5191 31.0788C91.5191 30.0279 90.6676 29.1764 89.6167 29.1764H4.03653V22.8667C4.03653 17.715 8.22768 13.5241 13.3794 13.5241H26.6261V17.5808C26.6261 20.5158 29.014 22.9038 31.9491 22.9038C34.8841 22.9038 37.272 20.5158 37.272 17.5808V13.5241H75.4777V17.5808C75.4777 20.5158 77.8654 22.9038 80.8004 22.9038C83.7355 22.9038 86.1234 20.5158 86.1234 17.5808V13.5241H99.3701C104.522 13.5241 108.713 17.715 108.713 22.8667V29.1764H88.4212C87.3703 29.1764 87.683 29.6061 87.683 30.657C87.683 31.7078 86.7588 32.9813 87.8097 32.9813H108.713V61.0077C108.713 62.0586 109.564 62.9101 110.615 62.9101C111.666 62.9101 112.518 62.0586 112.518 61.0077V22.8667C112.518 15.6172 106.62 9.71923 99.3701 9.71923H86.1234V5.57297C86.1234 2.63792 83.7355 0.25 80.8004 0.25C77.8654 0.25 75.4777 2.63792 75.4777 5.57297V9.71948H37.272V5.57297C37.272 2.63792 34.8841 0.25 31.9491 0.25C29.014 0.25 26.6261 2.63792 26.6261 5.57297V9.71948H13.3794C6.1297 9.71923 0.231689 15.6172 0.231689 22.8667V71.1458C0.231689 72.1967 1.08347 73.0482 2.13411 73.0482ZM79.2825 5.57297C79.2825 4.73565 79.9636 4.05484 80.8004 4.05484C81.6377 4.05484 82.3185 4.7359 82.3185 5.57297V17.581C82.3185 18.4184 81.6375 19.0992 80.8004 19.0992C79.9633 19.0992 79.2825 18.4181 79.2825 17.581V5.57297ZM30.4309 5.57297C30.4309 4.73565 31.112 4.05484 31.9491 4.05484C32.7861 4.05484 33.4672 4.7359 33.4672 5.57297V17.581C33.4672 18.4184 32.7861 19.0992 31.9491 19.0992C31.112 19.0992 30.4309 18.4181 30.4309 17.581V5.57297Z" fill="white" fill-opacity="0.2"/>
<path d="M128.717 86.7716C128.44 85.7585 127.394 85.1614 126.38 85.4384C125.367 85.7157 124.77 86.762 125.047 87.7754C125.476 89.3445 125.75 90.9547 125.872 92.5819H122.859C121.808 92.5819 120.957 93.4334 120.957 94.4843C120.957 95.5352 121.808 96.3867 122.859 96.3867H125.874C125.459 101.954 123.24 107.026 119.8 111.019L117.677 108.896C116.934 108.153 115.73 108.153 114.987 108.896C114.244 109.639 114.244 110.843 114.987 111.586L117.11 113.709C113.117 117.149 108.045 119.368 102.478 119.783V116.767C102.478 115.717 101.626 114.865 100.575 114.865C99.5242 114.865 98.6727 115.717 98.6727 116.767V119.783C93.1057 119.368 88.0338 117.149 84.0405 113.709L86.1639 111.586C86.9069 110.843 86.9069 109.638 86.1639 108.896C85.4207 108.153 84.2163 108.153 83.4734 108.896L81.35 111.019C77.911 107.026 75.6915 101.954 75.2767 96.3867H78.2917C79.3426 96.3867 80.1941 95.5352 80.1941 94.4843C80.1941 93.4334 79.3426 92.5819 78.2917 92.5819H75.2767C75.6915 87.0149 77.9107 81.9428 81.35 77.9495L83.4734 80.0728C83.8447 80.4442 84.3317 80.6299 84.8185 80.6299C85.3053 80.6299 85.7923 80.4442 86.1639 80.0726C86.9069 79.3296 86.9069 78.125 86.1636 77.3823L84.0405 75.2592C88.0338 71.8199 93.106 69.6007 98.6729 69.1859V72.2009C98.6729 73.2518 99.5245 74.1033 100.575 74.1033C101.626 74.1033 102.478 73.2518 102.478 72.2009V69.188C107.949 69.5928 113.054 71.7342 117.124 75.2455L114.987 77.3823C114.244 78.1255 114.244 79.3299 114.987 80.0728C115.358 80.4442 115.845 80.6299 116.332 80.6299C116.819 80.6299 117.306 80.4442 117.678 80.0728L119.81 77.9406C120.598 78.8591 121.329 79.8385 121.992 80.8795C122.556 81.7657 123.731 82.0265 124.618 81.4624C125.504 80.898 125.765 79.7223 125.201 78.836C119.809 70.3664 110.603 65.3103 100.575 65.3103C84.4885 65.3103 71.4009 78.398 71.4009 94.4848C71.4009 110.572 84.4885 123.659 100.575 123.659C116.662 123.659 129.75 110.571 129.75 94.4843C129.75 91.8721 129.402 89.2772 128.717 86.7716Z" fill="white"/>
<path d="M128.717 86.7716C128.44 85.7585 127.394 85.1614 126.38 85.4384C125.367 85.7157 124.77 86.762 125.047 87.7754C125.476 89.3445 125.75 90.9547 125.872 92.5819H122.859C121.808 92.5819 120.957 93.4334 120.957 94.4843C120.957 95.5352 121.808 96.3867 122.859 96.3867H125.874C125.459 101.954 123.24 107.026 119.8 111.019L117.677 108.896C116.934 108.153 115.73 108.153 114.987 108.896C114.244 109.639 114.244 110.843 114.987 111.586L117.11 113.709C113.117 117.149 108.045 119.368 102.478 119.783V116.767C102.478 115.717 101.626 114.865 100.575 114.865C99.5242 114.865 98.6727 115.717 98.6727 116.767V119.783C93.1057 119.368 88.0338 117.149 84.0405 113.709L86.1639 111.586C86.9069 110.843 86.9069 109.638 86.1639 108.896C85.4207 108.153 84.2163 108.153 83.4734 108.896L81.35 111.019C77.911 107.026 75.6915 101.954 75.2767 96.3867H78.2917C79.3426 96.3867 80.1941 95.5352 80.1941 94.4843C80.1941 93.4334 79.3426 92.5819 78.2917 92.5819H75.2767C75.6915 87.0149 77.9107 81.9428 81.35 77.9495L83.4734 80.0728C83.8447 80.4442 84.3317 80.6299 84.8185 80.6299C85.3053 80.6299 85.7923 80.4442 86.1639 80.0726C86.9069 79.3296 86.9069 78.125 86.1636 77.3823L84.0405 75.2592C88.0338 71.8199 93.106 69.6007 98.6729 69.1859V72.2009C98.6729 73.2518 99.5245 74.1033 100.575 74.1033C101.626 74.1033 102.478 73.2518 102.478 72.2009V69.188C107.949 69.5928 113.054 71.7342 117.124 75.2455L114.987 77.3823C114.244 78.1255 114.244 79.3299 114.987 80.0728C115.358 80.4442 115.845 80.6299 116.332 80.6299C116.819 80.6299 117.306 80.4442 117.678 80.0728L119.81 77.9406C120.598 78.8591 121.329 79.8385 121.992 80.8795C122.556 81.7657 123.731 82.0265 124.618 81.4624C125.504 80.898 125.765 79.7223 125.201 78.836C119.809 70.3664 110.603 65.3103 100.575 65.3103C84.4885 65.3103 71.4009 78.398 71.4009 94.4848C71.4009 110.572 84.4885 123.659 100.575 123.659C116.662 123.659 129.75 110.571 129.75 94.4843C129.75 91.8721 129.402 89.2772 128.717 86.7716Z" fill="white" fill-opacity="0.2"/>
</svg>
