<svg width="87" height="88" viewBox="0 0 87 88" fill="none" xmlns="http://www.w3.org/2000/svg">
<g clip-path="url(#clip0_599_594)">
<path d="M80.2579 47.352C79.3362 45.7721 77.6246 44.8504 75.913 44.8504H66.1701C65.7751 44.8504 65.5117 44.9821 65.2484 45.2454C64.9851 45.5087 64.8534 45.7721 64.8534 46.1671V67.6279H41.0226C41.5493 66.9696 41.9443 66.1797 42.3393 65.3897C43.7875 62.4931 44.5775 59.2016 44.5775 55.7784C44.5775 43.9288 34.8345 33.7908 22.3267 33.7908C9.81878 33.7908 0.0758057 43.9288 0.0758057 55.7784C0.0758057 67.8913 10.0821 77.7659 22.3267 77.7659C24.6966 77.7659 26.9348 77.3709 29.0414 76.7126V78.5559C29.0414 79.3458 29.5681 79.8725 30.358 79.8725H37.4678V80.1358C37.4678 84.0857 40.7593 87.3772 44.7092 87.3772C48.659 87.3772 51.9506 84.0857 51.9506 80.1358C51.9506 80.0042 51.9506 80.0041 51.9506 79.8725H66.3017V80.1358C66.3017 84.0857 69.5933 87.3772 73.5431 87.3772C77.493 87.3772 80.7845 84.0857 80.7845 80.1358C80.7845 80.0042 80.7845 80.0041 80.7845 79.8725H85.656C86.446 79.8725 86.9726 79.3458 86.9726 78.5559V68.9446V59.8599C86.9726 58.9382 86.7093 58.0166 86.1827 57.2266L80.2579 47.352ZM78.0196 48.6686L84.0761 58.5433H67.4867V47.4837H75.913C76.703 47.4837 77.493 48.0103 78.0196 48.6686ZM67.4867 61.1765H84.3394V67.6279H67.4867V61.1765ZM26.9348 74.606C28.2514 72.4994 29.1731 69.6029 29.963 66.3113H38.9161C36.1512 70.3928 31.8063 73.4211 26.9348 74.606ZM17.4552 66.1797H27.1981C26.0132 71.8411 23.9066 75.1327 22.3267 75.1327C20.7467 75.1327 18.6401 71.8411 17.4552 66.1797ZM4.42065 47.8787H14.2953C14.032 49.9852 13.7686 52.2235 13.7686 54.3301H2.70904C2.97237 52.0918 3.49901 49.9852 4.42065 47.8787ZM22.3267 36.4241C23.9066 36.4241 26.0132 39.7156 27.1981 45.3771H17.4552C18.6401 39.7156 20.7467 36.4241 22.3267 36.4241ZM27.7248 47.8787C27.9881 49.8536 28.2514 51.9602 28.2514 54.3301H16.5335C16.5335 51.9602 16.7969 49.7219 17.0602 47.8787H27.7248ZM40.2327 63.5464H30.358C30.6214 61.4398 30.8847 59.2016 30.8847 57.095H41.9443C41.681 59.3332 41.1543 61.5715 40.2327 63.5464ZM41.8126 54.4617H30.753C30.753 52.2235 30.4897 50.1169 30.2264 48.0103H40.101C41.1543 49.9852 41.681 52.0918 41.8126 54.4617ZM2.70904 57.095H13.7686C13.7686 59.3332 14.032 61.4398 14.2953 63.5464H4.42065C3.49901 61.5715 2.97237 59.3332 2.70904 57.095ZM16.4019 57.095H28.1198C28.1198 59.4649 27.8565 61.7032 27.5931 63.5464H16.9285C16.6652 61.5715 16.5335 59.4649 16.4019 57.095ZM38.7844 45.2454H29.8314C29.1731 41.9539 28.1198 38.9256 26.8032 36.9507C31.8063 38.1357 36.1512 41.1639 38.7844 45.2454ZM17.7185 36.9507C16.4019 39.0573 15.4802 41.9539 14.6903 45.2454H5.86893C8.50216 41.1639 12.7153 38.1357 17.7185 36.9507ZM5.86893 66.1797H14.8219C15.4802 69.4712 16.5335 72.4994 17.8502 74.4743C12.7153 73.4211 8.50216 70.3928 5.86893 66.1797ZM44.7092 84.744C42.2076 84.744 40.101 82.6374 40.101 80.1358C40.101 77.6342 42.2076 75.5276 44.7092 75.5276C47.2108 75.5276 49.3173 77.6342 49.3173 80.1358C49.449 82.6374 47.3424 84.744 44.7092 84.744ZM73.5431 84.744C71.0415 84.744 68.935 82.6374 68.935 80.1358C68.935 77.6342 71.0415 75.5276 73.5431 75.5276C76.0447 75.5276 78.1513 77.6342 78.1513 80.1358C78.2829 82.6374 76.1764 84.744 73.5431 84.744ZM84.3394 77.2393H80.2579C79.2046 74.606 76.5713 72.8944 73.5431 72.8944C70.5149 72.8944 68.0133 74.7377 66.8284 77.2393H51.4239C50.3706 74.606 47.7374 72.8944 44.7092 72.8944C41.681 72.8944 39.1794 74.7377 37.9944 77.2393H31.6747V75.6593C34.4395 74.3427 36.9411 72.4994 38.9161 70.2612H66.1701H84.3394V77.2393Z" fill="#B30000" fill-opacity="0.4"/>
<path d="M32.4648 24.4435C32.4648 24.8385 32.7282 25.2335 33.1232 25.4968L37.863 28.5251C36.283 30.2367 35.2297 31.4216 35.7564 32.7382C36.1514 33.6599 37.073 33.7915 38.5213 33.7915C39.0479 33.7915 39.7062 33.7915 40.3646 33.6599L39.5746 39.1897C39.5746 39.5846 39.7062 39.9796 39.9696 40.3746C40.2329 40.6379 40.7595 40.7696 41.1545 40.7696L44.1827 40.243C44.5777 40.1113 44.9727 39.848 45.1044 39.453L48.1326 32.7382C52.2141 31.6849 58.7972 29.71 66.3019 26.8134L67.0919 38.0047C67.0919 38.9263 68.0135 39.453 68.9352 39.1897L73.4117 37.4781C73.8067 37.3464 74.2017 36.9514 74.2017 36.5564L76.9666 21.547C84.9979 16.8071 88.2895 12.594 86.5779 8.77577C84.8663 5.08924 79.4681 4.82592 70.6468 7.9858L57.2173 0.744398C56.8223 0.481075 56.2956 0.481075 55.9007 0.744398L51.8191 3.11431C51.4242 3.37764 51.1608 3.64096 51.1608 4.16761C51.1608 4.56259 51.2925 4.95758 51.5558 5.2209L59.7188 12.989C52.7408 16.9388 46.9476 20.757 43.5244 23.1269L36.4147 21.152C36.0197 21.0203 35.4931 21.152 35.2297 21.4153L32.8598 23.3902C32.5965 23.6536 32.4648 24.0486 32.4648 24.4435ZM36.4147 23.7852L43.5244 25.7602C43.7878 25.8918 44.3144 25.7602 44.7094 25.4968C48.1326 22.8636 54.7157 18.6504 62.6154 14.3056C63.4054 13.9106 63.537 12.7256 62.8787 12.199L54.584 4.43093L56.559 3.37764L69.8568 10.619H69.9885C70.2518 10.7507 70.5151 10.7507 70.9101 10.619C78.2832 7.85414 83.023 7.59082 84.0763 9.82907C85.1296 12.0673 81.838 15.6222 75.1233 19.4404C74.86 19.572 74.5966 19.967 74.465 20.362L71.5684 35.1081L69.4618 36.0298L68.6719 24.7069C68.6719 23.9169 67.7502 23.2586 66.8286 23.5219C58.4022 26.9451 50.8975 29.1834 46.6843 30.105C46.421 30.2367 45.8944 30.5 45.7627 30.895L42.7345 37.6097L42.2078 37.7414L42.8661 32.4749C42.9978 31.6849 42.3395 31.0266 41.5495 31.0266C40.6279 31.0266 39.5746 31.1583 38.7846 31.1583C39.3113 30.5 40.1012 29.71 40.6279 29.0517C41.1545 28.5251 41.0229 27.4718 40.3646 27.0768L36.0197 24.1802L36.4147 23.7852Z" fill="#B30000" fill-opacity="0.4"/>
<path d="M20.089 31.8162C20.3524 32.0796 20.7474 32.3429 21.1423 32.3429C21.5373 32.3429 21.9323 32.2112 22.1956 31.8162L33.9135 16.4118C34.1769 16.0168 34.3085 15.4902 34.0452 15.0952C33.7819 14.7002 33.3869 14.3052 32.8603 14.3052H27.8571V1.79733C27.8571 1.00736 27.3305 0.480713 26.5405 0.480713H15.7442C14.9542 0.480713 14.4276 1.00736 14.4276 1.79733V14.3052H9.42444C8.89779 14.3052 8.5028 14.5685 8.23948 15.0952C7.97616 15.4902 8.10782 16.0168 8.37114 16.4118L20.089 31.8162ZM15.7442 16.9384C16.5342 16.9384 17.0608 16.4118 17.0608 15.6218V3.11395H25.2239V15.6218C25.2239 16.4118 25.7505 16.9384 26.5405 16.9384H30.227L21.274 28.788L12.1893 16.9384H15.7442Z" fill="#B30000" fill-opacity="0.4"/>
<path d="M61.6917 56.1732H48.3939C47.6039 56.1732 47.0773 56.6999 47.0773 57.4898V64.8629C47.0773 65.6529 47.6039 66.1795 48.3939 66.1795H61.6917C62.4817 66.1795 63.0084 65.6529 63.0084 64.8629V57.4898C63.0084 56.8315 62.35 56.1732 61.6917 56.1732ZM60.3751 63.5463H49.7105V58.8065H60.3751V63.5463Z" fill="#B30000" fill-opacity="0.4"/>
<path d="M63.0084 46.1673C63.0084 45.3774 62.4817 44.8507 61.6917 44.8507H48.3939C47.6039 44.8507 47.0773 45.3774 47.0773 46.1673V53.5404C47.0773 54.3304 47.6039 54.857 48.3939 54.857H61.6917C62.4817 54.857 63.0084 54.3304 63.0084 53.5404V46.1673ZM60.3751 52.2238H49.7105V47.4839H60.3751V52.2238Z" fill="#B30000" fill-opacity="0.4"/>
</g>
<defs>
<clipPath id="clip0_599_594">
<rect width="86.8968" height="86.8968" fill="white" transform="translate(0.0736084 0.480957)"/>
</clipPath>
</defs>
</svg>
