<svg width="88" height="89" viewBox="0 0 88 89" fill="none" xmlns="http://www.w3.org/2000/svg">
<path d="M36.5809 4.87421C36.5809 4.43917 36.7813 4.02832 37.1242 3.76055L40.5893 1.05438C41.204 0.573416 42.0925 0.682928 42.5727 1.29831C43.0532 1.91334 42.944 2.80144 42.3288 3.2817L42.0988 3.46134H69.8119C70.5923 3.46134 71.225 4.09403 71.225 4.87439C71.225 5.65474 70.5923 6.28744 69.8119 6.28744H42.099L42.3288 6.4669C42.9438 6.94716 43.0532 7.83508 42.5727 8.45029C42.2942 8.80708 41.8782 8.99361 41.458 8.99361C41.1538 8.99361 40.8476 8.89593 40.5893 8.69422L37.1242 5.98822C36.7813 5.7201 36.5809 5.30925 36.5809 4.87421ZM87.7458 44.5595C87.7458 56.2601 83.1893 67.2604 74.9157 75.534C66.6421 83.8075 55.6418 88.3641 43.9413 88.3641C32.2407 88.3641 21.2404 83.8075 12.9669 75.534C4.69327 67.2604 0.136719 56.2601 0.136719 44.5595C0.136719 43.7792 0.769412 43.1465 1.54977 43.1465H86.3328C87.1131 43.1465 87.7458 43.7792 87.7458 44.5595ZM27.0414 45.9726H23.8291C24.4309 47.0709 24.8782 48.5502 24.902 50.6793C24.9712 56.8434 26.1994 57.6765 27.8994 58.8299C30.0074 60.2599 32.6307 62.0395 34.1515 70.5646C35.407 77.6039 37.1131 79.1734 37.6225 79.1734C37.6248 79.1734 37.6267 79.1734 37.629 79.1733C38.2412 79.157 39.9531 77.1459 40.5568 72.2654C41.0495 68.2831 43.1318 65.8263 45.1455 63.4506C47.2805 60.9317 49.2971 58.5525 49.6249 54.2333C49.6655 53.6951 49.3651 53.0779 48.7315 52.3988C45.4755 48.9084 35.8879 46.216 34.5554 46.2125C33.4416 46.3015 32.5182 46.4091 31.7753 46.4958C29.6794 46.7401 28.3237 46.895 27.0414 45.9726ZM73.9629 72.4198C73.8177 72.4277 73.6733 72.4327 73.5302 72.4327C72.4874 72.4327 71.5113 72.2195 70.7332 71.7676C69.3772 70.9802 68.7982 69.5824 69.1843 68.0284C70.0712 64.4593 69.9359 62.7111 69.7925 60.86C69.7252 59.9911 69.6558 59.0926 69.6787 57.9966C69.7561 54.3361 69.3295 51.9963 68.4114 51.0424C67.6989 50.3022 66.5631 50.2472 64.6174 50.214C62.918 50.1849 60.9918 50.152 58.9254 49.3939C58.8242 49.3567 58.7274 49.3083 58.6372 49.2491C57.0175 48.1868 55.8443 47.1085 55.0761 45.9726H43.5023C46.2117 47.1046 48.8846 48.5562 50.5558 50.2211C51.9176 51.578 52.5524 52.9997 52.4424 54.4472C52.0453 59.6804 49.5248 62.6542 47.301 65.2777C45.3958 67.5257 43.7503 69.4668 43.3612 72.6123C42.6651 78.2408 40.4443 81.9252 37.7041 81.9983C37.6744 81.9992 37.6444 81.9995 37.6149 81.9995C34.7646 81.9995 32.6637 78.3207 31.3688 71.0608C30.0575 63.709 28.0679 62.3594 26.3126 61.1687C23.8051 59.4676 22.1556 57.8208 22.0761 50.7111C22.0457 47.9899 21.2569 46.9352 20.27 45.9726H2.98684C3.73434 67.9164 21.8187 85.538 43.9413 85.538C55.7876 85.538 66.4745 80.4835 73.9629 72.4198ZM84.8957 45.9726H58.9325C59.2665 46.2451 59.638 46.5193 60.0492 46.7941C61.6164 47.336 63.166 47.3627 64.6661 47.3881C66.741 47.4236 68.8867 47.4604 70.448 49.0825C71.9679 50.6616 72.6022 53.4293 72.5047 58.0563C72.4845 59.0131 72.5456 59.8042 72.6106 60.6418C72.765 62.6356 72.9247 64.6971 71.9274 68.7102C71.8329 69.0903 71.9283 69.1934 72.1528 69.3238C73.1437 69.8992 75.7379 69.6532 77.4115 68.1773C81.8843 61.8569 84.6147 54.2202 84.8957 45.9726ZM87.7458 11.6501V35.7018C87.7458 37.4597 86.3156 38.8899 84.5578 38.8899H81.0762C80.466 40.94 78.5649 42.44 76.3192 42.44C74.0735 42.44 72.1724 40.9402 71.5622 38.8899H70.026C69.4157 40.94 67.5146 42.44 65.269 42.44C63.0233 42.44 61.1222 40.9402 60.5119 38.8899H42.3841C41.774 40.94 39.8729 42.44 37.6272 42.44C35.3815 42.44 33.4805 40.9402 32.8702 38.8899H31.183C29.6698 38.8899 28.4387 37.6587 28.4387 36.1457V25.8894C28.4387 25.435 28.5221 25.0266 28.701 24.6046L32.2221 16.3141C32.7783 15.0045 34.102 14.1585 35.5938 14.1585H45.5472V11.6503C45.5472 9.89248 46.9774 8.4623 48.7352 8.4623H84.558C86.3156 8.46212 87.7458 9.89213 87.7458 11.6501ZM39.7641 37.4766C39.7641 36.2983 38.8055 35.3397 37.6272 35.3397C36.4489 35.3397 35.4902 36.2983 35.4902 37.4766C35.4902 38.6549 36.4489 39.6137 37.6272 39.6137C38.8055 39.6137 39.7641 38.6549 39.7641 37.4766ZM42.3841 36.0636H45.5472V16.9844H35.5938C35.227 16.9844 34.9389 17.1467 34.8234 17.4187L31.3026 25.7084C31.2704 25.784 31.2648 25.8216 31.2648 25.8893V36.0636H32.8702C33.4803 34.0134 35.3815 32.5136 37.6272 32.5136C39.8729 32.5136 41.7738 34.0134 42.3841 36.0636ZM67.4062 37.4766C67.4062 36.2983 66.4474 35.3397 65.2691 35.3397C64.0908 35.3397 63.1321 36.2983 63.1321 37.4766C63.1321 38.6549 64.0908 39.6137 65.2691 39.6137C66.4474 39.6137 67.4062 38.6549 67.4062 37.4766ZM78.4563 37.4766C78.4563 36.2983 77.4975 35.3397 76.3192 35.3397C75.1409 35.3397 74.1821 36.2983 74.1821 37.4766C74.1821 38.6549 75.1409 39.6137 76.3192 39.6137C77.4975 39.6137 78.4563 38.6549 78.4563 37.4766ZM84.9197 11.6501C84.9197 11.4541 84.754 11.2882 84.5578 11.2882H48.7352C48.5392 11.2882 48.3733 11.4539 48.3733 11.6501V36.0636H60.5123C61.1224 34.0134 63.0236 32.5136 65.2693 32.5136C67.515 32.5136 69.4163 34.0134 70.0263 36.0636H71.5625C72.1726 34.0134 74.0739 32.5136 76.3195 32.5136C78.5652 32.5136 80.4665 34.0134 81.0766 36.0636H84.5582C84.7542 36.0636 84.9201 35.8979 84.9201 35.7017L84.9197 11.6501ZM43.1745 27.0179H33.8373C33.363 27.0179 32.9205 26.78 32.6588 26.3847C32.3972 25.9892 32.3513 25.489 32.5367 25.0526L35.3577 18.4105C35.5794 17.8886 36.0912 17.5498 36.6582 17.5498H43.1747C43.955 17.5498 44.5877 18.1825 44.5877 18.9628V25.6049C44.5876 26.3852 43.9549 27.0179 43.1745 27.0179ZM41.7615 20.3759H37.5931L35.9724 24.1918H41.7613L41.7615 20.3759ZM76.3194 36.2672C75.651 36.2672 75.11 36.8083 75.11 37.4768C75.11 38.1452 75.651 38.6862 76.3194 38.6862C76.9879 38.6862 77.5289 38.1452 77.5289 37.4768C77.5289 36.8083 76.9877 36.2672 76.3194 36.2672ZM37.6271 36.2672C36.9587 36.2672 36.4175 36.8083 36.4175 37.4768C36.4175 38.1452 36.9585 38.6862 37.6271 38.6862C38.2956 38.6862 38.8366 38.1452 38.8366 37.4768C38.8366 36.8083 38.2956 36.2672 37.6271 36.2672ZM65.2691 36.2672C64.6008 36.2672 64.0596 36.8083 64.0596 37.4768C64.0596 38.1452 64.6006 38.6862 65.2691 38.6862C65.9377 38.6862 66.4787 38.1452 66.4787 37.4768C66.4787 36.8083 65.9377 36.2672 65.2691 36.2672ZM53.0487 13.0824C52.2684 13.0824 51.6357 13.7151 51.6357 14.4955V29.3066C51.6357 30.0869 52.2684 30.7196 53.0487 30.7196C53.8291 30.7196 54.4618 30.0869 54.4618 29.3066V14.4955C54.4618 13.7151 53.8289 13.0824 53.0487 13.0824ZM69.3657 13.0824C68.5854 13.0824 67.9527 13.7151 67.9527 14.4955V29.3066C67.9527 30.0869 68.5854 30.7196 69.3657 30.7196C70.1461 30.7196 70.7788 30.0869 70.7788 29.3066V14.4955C70.7788 13.7151 70.1461 13.0824 69.3657 13.0824ZM58.4876 13.0824C57.7072 13.0824 57.0745 13.7151 57.0745 14.4955V29.3066C57.0745 30.0869 57.7072 30.7196 58.4876 30.7196C59.2679 30.7196 59.9006 30.0869 59.9006 29.3066V14.4955C59.9006 13.7151 59.2679 13.0824 58.4876 13.0824ZM74.8047 13.0824C74.0244 13.0824 73.3917 13.7151 73.3917 14.4955L73.3919 29.3066C73.3919 30.0869 74.0246 30.7196 74.8049 30.7196C75.5853 30.7196 76.218 30.0869 76.218 29.3066L76.2178 14.4955C76.2178 13.7151 75.5851 13.0824 74.8047 13.0824ZM63.9267 13.0824C63.1464 13.0824 62.5137 13.7151 62.5137 14.4955V29.3066C62.5137 30.0869 63.1464 30.7196 63.9267 30.7196C64.7071 30.7196 65.3398 30.0869 65.3398 29.3066V14.4955C65.3398 13.7151 64.7071 13.0824 63.9267 13.0824ZM80.2439 13.0824C79.4636 13.0824 78.8309 13.7151 78.8309 14.4955V29.3066C78.8309 30.0869 79.4636 30.7196 80.2439 30.7196C81.0243 30.7196 81.657 30.0869 81.657 29.3066V14.4955C81.657 13.7151 81.0243 13.0824 80.2439 13.0824ZM10.5112 39.3124C5.88907 34.045 0.136719 27.4892 0.136719 21.3944C0.136719 13.9626 6.18281 7.91615 13.6147 7.91615C21.0467 7.91615 27.0928 13.9624 27.0928 21.3944C27.0928 27.4894 21.3404 34.045 16.7183 39.3124C15.9917 40.1404 15.3053 40.9227 14.6938 41.6458C14.4251 41.9632 14.0305 42.1464 13.6149 42.1464C13.1993 42.1464 12.8045 41.9632 12.5361 41.6458C11.9242 40.9227 11.238 40.1404 10.5112 39.3124ZM2.96282 21.3944C2.96282 26.4252 8.55337 32.7964 12.6355 37.4485C12.9711 37.8311 13.2986 38.204 13.6147 38.5672C13.9309 38.204 14.2584 37.8311 14.594 37.4485C18.6759 32.7964 24.2667 26.4253 24.2667 21.3944C24.2667 15.5208 19.4883 10.7423 13.6147 10.7423C7.74122 10.7423 2.96282 15.5208 2.96282 21.3944ZM13.6147 29.94C8.9024 29.94 5.06879 26.1063 5.06879 21.3942C5.06879 16.6818 8.9024 12.8482 13.6147 12.8482C18.3271 12.8482 22.1607 16.6818 22.1607 21.3942C22.1605 26.1063 18.3269 29.94 13.6147 29.94ZM13.6147 27.1139C16.7687 27.1139 19.3346 24.5481 19.3346 21.3942C19.3346 18.2403 16.7688 15.6743 13.6147 15.6743C10.4606 15.6743 7.89489 18.2401 7.89489 21.3942C7.89489 24.5481 10.4606 27.1139 13.6147 27.1139Z" fill="#B30000" fill-opacity="0.4"/>
</svg>
