<svg width="104" height="103" viewBox="0 0 104 103" fill="none" xmlns="http://www.w3.org/2000/svg">
<path d="M29.8745 61.2726H16.2637V64.6753H29.8745V61.2726Z" fill="#B30000" fill-opacity="0.4"/>
<path d="M102.853 80.9276L97.7491 70.7195C97.4609 70.1429 96.8716 69.779 96.2272 69.779H86.0191V64.675C86.0191 63.7354 85.2573 62.9736 84.3177 62.9736H50.2907C49.3511 62.9736 48.5894 63.7354 48.5894 64.675V95.2993C48.5894 96.2389 49.3511 97.0007 50.2907 97.0007H57.3377C58.259 100.626 61.9447 102.818 65.5697 101.896C67.9754 101.285 69.8539 99.4064 70.4653 97.0007H82.858C83.7793 100.626 87.465 102.818 91.09 101.896C93.4957 101.285 95.3742 99.4064 95.9856 97.0007H101.331C102.271 97.0007 103.033 96.2389 103.033 95.2993V81.6885C103.033 81.4244 102.971 81.1638 102.853 80.9276ZM63.9015 98.702C62.0222 98.702 60.4988 97.1787 60.4988 95.2993C60.4988 93.42 62.0222 91.8966 63.9015 91.8966C65.7809 91.8966 67.3042 93.42 67.3042 95.2993C67.3023 97.1778 65.78 98.7001 63.9015 98.702ZM82.6164 93.598H70.4653C69.694 90.601 66.9961 88.5033 63.9015 88.4939C60.807 88.5033 58.1091 90.601 57.3377 93.598H51.9921V66.3763H82.6164V93.598ZM92.8245 73.1817H95.1755L98.5785 79.9871H92.8245V73.1817ZM89.4218 98.702C87.5424 98.702 86.0191 97.1787 86.0191 95.2993C86.0191 93.42 87.5424 91.8966 89.4218 91.8966C91.3011 91.8966 92.8245 93.42 92.8245 95.2993C92.8226 97.1778 91.3003 98.7001 89.4218 98.702ZM99.6299 93.598H95.9856C95.2142 90.601 92.5163 88.5033 89.4218 88.4939C88.2234 88.5007 87.0488 88.8276 86.0191 89.4407V73.1817H89.4218V81.6885C89.4218 82.6281 90.1836 83.3899 91.1231 83.3899H99.6299V93.598Z" fill="#B30000" fill-opacity="0.4"/>
<path d="M41.7833 23.843H38.3823V27.2457H41.7833V23.843Z" fill="#B30000" fill-opacity="0.4"/>
<path d="M48.5865 23.8442H45.1855V27.2469H48.5865V23.8442Z" fill="#B30000" fill-opacity="0.4"/>
<path d="M55.3922 23.8442H51.9912V27.2469H55.3922V23.8442Z" fill="#B30000" fill-opacity="0.4"/>
<path d="M62.1981 23.8442H58.7971V27.2469H62.1981V23.8442Z" fill="#B30000" fill-opacity="0.4"/>
<path d="M94.6715 28.4413L89.4005 23.1695C85.4817 19.2555 80.1734 17.051 74.6349 17.037H61.4396L53.4329 4.2262C53.1217 3.72877 52.5767 3.42635 51.9899 3.42614H46.8859C45.9459 3.42657 45.1841 4.18898 45.1845 5.12919C45.1845 5.26785 45.2015 5.40588 45.2351 5.54049L48.1093 17.037H34.5411L29.8009 1.23629C29.585 0.516404 28.9224 0.0234375 28.171 0.0234375H19.6642C18.7247 0.0234375 17.9629 0.785218 17.9629 1.72479V18.7383H17.9788C17.9733 19.1875 18.1468 19.6205 18.4614 19.9412L29.0948 30.5746C33.482 34.9905 39.4533 37.4672 45.6779 37.4532H46.1413L41.9139 46.971C41.5326 47.8295 41.9194 48.8348 42.778 49.2163C42.8279 49.2384 42.8788 49.2582 42.9306 49.2754L48.0313 50.9768C48.7459 51.2148 49.5317 50.9549 49.9636 50.3379L58.9774 37.4532H90.9341C93.8485 37.4585 96.2153 35.1004 96.2208 32.186C96.2234 30.7813 95.6657 29.4336 94.6715 28.4413ZM51.0469 6.82884L57.427 17.037H51.6171L49.0649 6.82884H51.0469ZM21.3656 3.42614H26.905L30.9882 17.037H21.3656V3.42614ZM47.9035 47.3472L45.7842 46.6403L51.3759 34.0505H57.2052L47.9035 47.3472ZM92.6794 32.8842C92.396 33.5975 91.7014 34.0615 90.9341 34.0505H61.3578L61.8656 33.3244C62.4041 32.5543 62.2163 31.4933 61.4462 30.9549C61.1604 30.7552 60.8204 30.6478 60.4716 30.6478H50.2701C49.5974 30.6478 48.9879 31.044 48.715 31.6588L47.6527 34.0505H45.6779C40.3563 34.0622 35.2512 31.9442 31.5005 28.1689L23.7713 20.4397H74.6349C78.3443 20.4556 81.9531 21.647 84.943 23.8424H72.4061V27.2451H88.6628L92.2698 30.8521C92.8147 31.3789 92.9778 32.1875 92.6794 32.8842Z" fill="#B30000" fill-opacity="0.4"/>
<path d="M42.6558 97.4524C41.5846 96.3021 40.1478 95.5583 38.59 95.348L45.0866 77.1574C45.4022 76.2712 44.9397 75.2972 44.0535 74.9816C44.0433 74.9779 44.0328 74.9743 44.0224 74.9709L39.8737 73.5879L36.6513 55.8648C36.5044 55.0555 35.7996 54.4675 34.9774 54.4675H28.172V49.3635C28.172 48.4239 27.4102 47.6621 26.4706 47.6621H19.6652C18.7257 47.6621 17.9639 48.4239 17.9639 49.3635V54.4675H11.1585C10.3361 54.4675 9.63152 55.0558 9.48457 55.8648L6.26221 73.5879L2.11347 74.9709C1.22132 75.2693 0.740262 76.2344 1.03864 77.1263C1.04204 77.1368 1.04565 77.147 1.04927 77.1574L7.54588 95.3487C5.99063 95.5605 4.55639 96.3038 3.48667 97.4524C2.87099 98.2278 1.94035 98.6867 0.950379 98.7027V102.105C2.79401 102.095 4.54959 101.315 5.79285 99.9538C6.40853 99.1778 7.33959 98.7186 8.32999 98.7027C8.6894 98.6997 9.04605 98.7662 9.38036 98.8985C9.39461 98.9049 9.40376 98.9185 9.41822 98.9245C9.9518 99.1903 10.4363 99.5448 10.8512 99.9729C12.1072 101.323 13.8647 102.094 15.7085 102.105C17.5517 102.095 19.3069 101.315 20.5493 99.9529C21.6197 98.5549 23.6207 98.289 25.0188 99.3592C25.2416 99.5297 25.4411 99.7292 25.6119 99.9521C26.853 101.314 28.6073 102.095 30.4501 102.105C32.2929 102.094 34.0491 101.322 35.3032 99.9721C35.7145 99.5472 36.1945 99.1943 36.723 98.9287C36.7383 98.9223 36.7481 98.9079 36.763 98.9011C37.0981 98.7671 37.4561 98.6999 37.817 98.7029C38.805 98.7188 39.7337 99.1778 40.3467 99.9532C41.5884 101.315 43.343 102.095 45.1855 102.106V98.7029C44.1975 98.6867 43.2687 98.2278 42.6558 97.4524ZM21.3666 51.0648H24.7693V54.4675H21.3666V51.0648ZM21.3666 95.5218C20.1778 95.8895 19.1023 96.5539 18.2414 97.4524C17.1683 98.852 15.1637 99.1165 13.7641 98.0434C13.5421 97.8732 13.3434 97.6744 13.1731 97.4524C12.645 96.9364 12.0596 96.4826 11.4282 96.1L4.83818 77.6493L21.3666 72.1403V95.5218ZM22.5297 68.1655L9.94372 72.3608L12.5783 57.8702H33.5576L36.1922 72.3608L23.6062 68.1655C23.2568 68.0492 22.8791 68.0492 22.5297 68.1655ZM34.7043 96.1111C34.0804 96.492 33.5015 96.9422 32.9787 97.4532C31.9105 98.8498 29.9123 99.1159 28.5157 98.0476C28.2922 97.8767 28.0923 97.6767 27.9213 97.4532C27.0553 96.5456 25.9696 95.8769 24.7695 95.5122V72.1403L41.2979 77.6493L34.7043 96.1111Z" fill="#B30000" fill-opacity="0.4"/>
<path d="M69.0026 23.8429H65.6016V27.2456H69.0026V23.8429Z" fill="#B30000" fill-opacity="0.4"/>
</svg>
